<mxfile host="Electron" agent="Mozilla/5.0 (X11; Linux x86_64) AppleWebKit/537.36 (KHTML, like Gecko) draw.io/24.7.17 Chrome/128.0.6613.36 Electron/32.0.1 Safari/537.36" version="24.7.17">
  <diagram name="PÃ¡gina-1" id="YFtdE8htejDOTgzQWXvQ">
    <mxGraphModel dx="1100" dy="746" grid="1" gridSize="10" guides="1" tooltips="1" connect="1" arrows="1" fold="1" page="1" pageScale="1" pageWidth="827" pageHeight="583" math="0" shadow="0">
      <root>
        <mxCell id="0" />
        <mxCell id="1" parent="0" />
        <mxCell id="0sDl_rXxAtg33bTiCDJy-245" style="edgeStyle=orthogonalEdgeStyle;rounded=0;orthogonalLoop=1;jettySize=auto;html=1;exitX=0;exitY=1;exitDx=0;exitDy=0;exitPerimeter=0;entryX=0;entryY=1;entryDx=0;entryDy=0;entryPerimeter=0;endSize=1;startSize=1;strokeWidth=2;" parent="1" edge="1">
          <mxGeometry relative="1" as="geometry">
            <mxPoint x="116.49914212498015" y="46.60451475991675" as="sourcePoint" />
            <Array as="points">
              <mxPoint x="60" y="47" />
              <mxPoint x="60" y="117" />
            </Array>
          </mxGeometry>
        </mxCell>
        <mxCell id="akxVl1QOJM7sjqm9vT8Y-443" value="" style="group" parent="1" vertex="1" connectable="0">
          <mxGeometry x="53" y="167" width="720.1600000000001" height="250" as="geometry" />
        </mxCell>
        <mxCell id="akxVl1QOJM7sjqm9vT8Y-420" value="" style="rounded=1;whiteSpace=wrap;html=1;fontFamily=Helvetica;fontSize=11;fontColor=default;labelBackgroundColor=default;arcSize=20;absoluteArcSize=1;points=[];fillColor=default;strokeWidth=1.5;" parent="akxVl1QOJM7sjqm9vT8Y-443" vertex="1">
          <mxGeometry x="59.58" width="600" height="250" as="geometry" />
        </mxCell>
        <mxCell id="akxVl1QOJM7sjqm9vT8Y-415" value="" style="rounded=1;whiteSpace=wrap;html=1;fontFamily=Helvetica;fontSize=11;fontColor=default;labelBackgroundColor=default;arcSize=20;absoluteArcSize=1;points=[];dashed=1;fillColor=none;" parent="akxVl1QOJM7sjqm9vT8Y-443" vertex="1">
          <mxGeometry x="559.58" y="102" width="80" height="50" as="geometry" />
        </mxCell>
        <mxCell id="akxVl1QOJM7sjqm9vT8Y-314" style="edgeStyle=orthogonalEdgeStyle;shape=connector;rounded=0;jumpStyle=arc;orthogonalLoop=1;jettySize=auto;html=1;strokeColor=#384770;strokeWidth=2;align=center;verticalAlign=middle;fontFamily=Helvetica;fontSize=11;fontColor=default;labelBackgroundColor=default;startArrow=none;startFill=0;startSize=3;endArrow=classic;endSize=1;entryX=0;entryY=0;entryDx=0;entryDy=0;jumpSize=4;" parent="akxVl1QOJM7sjqm9vT8Y-443" edge="1">
          <mxGeometry relative="1" as="geometry">
            <mxPoint x="203.57999999999998" y="194" as="targetPoint" />
            <mxPoint x="169.57999999999998" y="88" as="sourcePoint" />
            <Array as="points">
              <mxPoint x="169.57999999999998" y="194" />
            </Array>
          </mxGeometry>
        </mxCell>
        <mxCell id="akxVl1QOJM7sjqm9vT8Y-339" value="" style="rounded=1;whiteSpace=wrap;html=1;fontFamily=Helvetica;fontSize=11;fontColor=default;labelBackgroundColor=default;arcSize=20;absoluteArcSize=1;points=[];dashed=1;fillColor=none;" parent="akxVl1QOJM7sjqm9vT8Y-443" vertex="1">
          <mxGeometry x="79.58" y="15" width="59.07" height="125" as="geometry" />
        </mxCell>
        <mxCell id="akxVl1QOJM7sjqm9vT8Y-177" value="" style="group" parent="akxVl1QOJM7sjqm9vT8Y-443" vertex="1" connectable="0">
          <mxGeometry x="409.08" y="43" width="121.07106781186553" height="50" as="geometry" />
        </mxCell>
        <mxCell id="akxVl1QOJM7sjqm9vT8Y-143" value="&lt;b&gt;&lt;font face=&quot;monospace&quot; style=&quot;font-size: 14px;&quot;&gt;rnd_fxp&lt;/font&gt;&lt;/b&gt;" style="rounded=1;whiteSpace=wrap;html=1;fontFamily=Helvetica;fontSize=11;fontColor=default;labelBackgroundColor=default;points=[];horizontal=1;verticalAlign=top;arcSize=20;absoluteArcSize=1;spacingTop=-5;strokeWidth=1.5;" parent="akxVl1QOJM7sjqm9vT8Y-177" vertex="1">
          <mxGeometry x="7.5" width="106.5" height="50" as="geometry" />
        </mxCell>
        <mxCell id="akxVl1QOJM7sjqm9vT8Y-159" value="" style="group" parent="akxVl1QOJM7sjqm9vT8Y-177" vertex="1" connectable="0">
          <mxGeometry x="69" y="20" width="52.071067811865476" height="14.142135623730951" as="geometry" />
        </mxCell>
        <mxCell id="akxVl1QOJM7sjqm9vT8Y-160" value="" style="rounded=1;whiteSpace=wrap;html=1;points=[[0,0,0,0,0]];rotation=45;arcSize=25;absoluteArcSize=0;verticalAlign=middle;fontFamily=Helvetica;fontSize=11;fontColor=default;labelBackgroundColor=default;direction=south;aspect=fixed;strokeWidth=1.5;" parent="akxVl1QOJM7sjqm9vT8Y-159" vertex="1">
          <mxGeometry x="40" y="2.0710678118654755" width="10" height="10" as="geometry" />
        </mxCell>
        <mxCell id="akxVl1QOJM7sjqm9vT8Y-161" value="&lt;font face=&quot;monospace&quot; size=&quot;1&quot;&gt;&lt;i style=&quot;&quot;&gt;o_data&lt;/i&gt;&lt;/font&gt;" style="text;html=1;align=right;verticalAlign=middle;whiteSpace=wrap;rounded=0;points=[];fontSize=11;fontFamily=Helvetica;fontColor=default;labelBackgroundColor=none;spacingLeft=0;spacingBottom=0;spacingRight=10;" parent="akxVl1QOJM7sjqm9vT8Y-159" vertex="1">
          <mxGeometry y="2.0710678118654755" width="45" height="10" as="geometry" />
        </mxCell>
        <mxCell id="akxVl1QOJM7sjqm9vT8Y-162" value="" style="group" parent="akxVl1QOJM7sjqm9vT8Y-177" vertex="1" connectable="0">
          <mxGeometry y="20" width="57.071067811865476" height="14.142135623730951" as="geometry" />
        </mxCell>
        <mxCell id="akxVl1QOJM7sjqm9vT8Y-163" value="" style="rounded=1;whiteSpace=wrap;html=1;points=[[1,1,0,0,0]];rotation=45;arcSize=25;absoluteArcSize=0;verticalAlign=middle;fontFamily=Helvetica;fontSize=11;fontColor=default;labelBackgroundColor=default;direction=south;aspect=fixed;strokeWidth=1.5;" parent="akxVl1QOJM7sjqm9vT8Y-162" vertex="1">
          <mxGeometry x="2.0710678118654755" y="2.0710678118654755" width="10" height="10" as="geometry" />
        </mxCell>
        <mxCell id="akxVl1QOJM7sjqm9vT8Y-164" value="&lt;font size=&quot;1&quot; face=&quot;monospace&quot;&gt;&lt;i style=&quot;&quot;&gt;i_data&lt;/i&gt;&lt;/font&gt;" style="text;html=1;align=left;verticalAlign=middle;whiteSpace=wrap;rounded=0;points=[];fontSize=11;fontFamily=Helvetica;fontColor=default;labelBackgroundColor=none;spacingLeft=10;spacingBottom=0;" parent="akxVl1QOJM7sjqm9vT8Y-162" vertex="1">
          <mxGeometry x="7.0710678118654755" y="2.0710678118654755" width="50" height="10" as="geometry" />
        </mxCell>
        <mxCell id="akxVl1QOJM7sjqm9vT8Y-265" style="edgeStyle=orthogonalEdgeStyle;shape=connector;rounded=0;orthogonalLoop=1;jettySize=auto;html=1;exitX=1;exitY=0.25;exitDx=0;exitDy=0;exitPerimeter=0;entryX=0;entryY=0;entryDx=0;entryDy=0;strokeColor=#384770;strokeWidth=2;align=center;verticalAlign=middle;fontFamily=Helvetica;fontSize=11;fontColor=default;labelBackgroundColor=default;startSize=1;endArrow=classic;endSize=1;" parent="akxVl1QOJM7sjqm9vT8Y-443" source="akxVl1QOJM7sjqm9vT8Y-196" target="akxVl1QOJM7sjqm9vT8Y-218" edge="1">
          <mxGeometry relative="1" as="geometry">
            <Array as="points">
              <mxPoint x="309.58" y="45" />
              <mxPoint x="309.58" y="59" />
            </Array>
          </mxGeometry>
        </mxCell>
        <mxCell id="akxVl1QOJM7sjqm9vT8Y-231" value="" style="group" parent="akxVl1QOJM7sjqm9vT8Y-443" vertex="1" connectable="0">
          <mxGeometry x="199.57999999999998" y="30" width="30" height="30" as="geometry" />
        </mxCell>
        <mxCell id="akxVl1QOJM7sjqm9vT8Y-309" style="edgeStyle=orthogonalEdgeStyle;shape=connector;rounded=0;jumpStyle=arc;orthogonalLoop=1;jettySize=auto;html=1;strokeColor=#384770;strokeWidth=2;align=center;verticalAlign=middle;fontFamily=Helvetica;fontSize=11;fontColor=default;labelBackgroundColor=default;startArrow=none;startFill=0;startSize=3;endArrow=classic;endSize=1;entryX=0;entryY=1;entryDx=0;entryDy=0;" parent="akxVl1QOJM7sjqm9vT8Y-231" target="akxVl1QOJM7sjqm9vT8Y-227" edge="1">
          <mxGeometry relative="1" as="geometry">
            <mxPoint x="-30" y="57" as="sourcePoint" />
            <Array as="points">
              <mxPoint x="-30" y="26" />
            </Array>
          </mxGeometry>
        </mxCell>
        <mxCell id="akxVl1QOJM7sjqm9vT8Y-227" value="" style="ellipse;whiteSpace=wrap;html=1;aspect=fixed;strokeWidth=2;" parent="akxVl1QOJM7sjqm9vT8Y-231" vertex="1">
          <mxGeometry width="30" height="30" as="geometry" />
        </mxCell>
        <mxCell id="akxVl1QOJM7sjqm9vT8Y-225" value="" style="group;rotation=45;" parent="akxVl1QOJM7sjqm9vT8Y-231" vertex="1" connectable="0">
          <mxGeometry x="5" y="5" width="20" height="20" as="geometry" />
        </mxCell>
        <mxCell id="akxVl1QOJM7sjqm9vT8Y-223" value="" style="endArrow=none;html=1;strokeWidth=2;shadow=0;jumpStyle=none;rounded=0;strokeColor=default;comic=0;fixDash=0;startFill=1;endFill=1;sourcePerimeterSpacing=0;" parent="akxVl1QOJM7sjqm9vT8Y-225" edge="1">
          <mxGeometry width="50" height="50" relative="1" as="geometry">
            <mxPoint x="17" y="17" as="sourcePoint" />
            <mxPoint x="3" y="3" as="targetPoint" />
          </mxGeometry>
        </mxCell>
        <mxCell id="akxVl1QOJM7sjqm9vT8Y-224" value="" style="endArrow=none;html=1;rounded=0;strokeWidth=2;shadow=0;jumpStyle=none;sourcePerimeterSpacing=0;" parent="akxVl1QOJM7sjqm9vT8Y-225" edge="1">
          <mxGeometry width="50" height="50" relative="1" as="geometry">
            <mxPoint x="3" y="17" as="sourcePoint" />
            <mxPoint x="17" y="3" as="targetPoint" />
          </mxGeometry>
        </mxCell>
        <mxCell id="akxVl1QOJM7sjqm9vT8Y-232" value="" style="group" parent="akxVl1QOJM7sjqm9vT8Y-443" vertex="1" connectable="0">
          <mxGeometry x="329.58" y="55" width="30" height="30" as="geometry" />
        </mxCell>
        <mxCell id="akxVl1QOJM7sjqm9vT8Y-218" value="" style="ellipse;whiteSpace=wrap;html=1;aspect=fixed;strokeWidth=2;" parent="akxVl1QOJM7sjqm9vT8Y-232" vertex="1">
          <mxGeometry width="30" height="30" as="geometry" />
        </mxCell>
        <mxCell id="akxVl1QOJM7sjqm9vT8Y-226" value="" style="group" parent="akxVl1QOJM7sjqm9vT8Y-232" vertex="1" connectable="0">
          <mxGeometry x="5" y="5" width="20" height="20" as="geometry" />
        </mxCell>
        <mxCell id="akxVl1QOJM7sjqm9vT8Y-220" value="" style="endArrow=none;html=1;strokeWidth=2;shadow=0;jumpStyle=none;rounded=0;strokeColor=default;comic=0;fixDash=0;startFill=1;endFill=1;sourcePerimeterSpacing=0;" parent="akxVl1QOJM7sjqm9vT8Y-226" edge="1">
          <mxGeometry width="50" height="50" relative="1" as="geometry">
            <mxPoint x="20" y="10" as="sourcePoint" />
            <mxPoint y="10" as="targetPoint" />
          </mxGeometry>
        </mxCell>
        <mxCell id="akxVl1QOJM7sjqm9vT8Y-219" value="" style="endArrow=none;html=1;rounded=0;strokeWidth=2;shadow=0;jumpStyle=none;sourcePerimeterSpacing=0;" parent="akxVl1QOJM7sjqm9vT8Y-226" edge="1">
          <mxGeometry width="50" height="50" relative="1" as="geometry">
            <mxPoint x="10" y="20" as="sourcePoint" />
            <mxPoint x="10" as="targetPoint" />
          </mxGeometry>
        </mxCell>
        <mxCell id="akxVl1QOJM7sjqm9vT8Y-238" style="edgeStyle=orthogonalEdgeStyle;shape=connector;rounded=0;orthogonalLoop=1;jettySize=auto;html=1;exitX=1;exitY=0.5;exitDx=0;exitDy=0;entryX=0;entryY=0.25;entryDx=0;entryDy=0;entryPerimeter=0;strokeColor=#384770;strokeWidth=2;align=center;verticalAlign=middle;fontFamily=Helvetica;fontSize=11;fontColor=default;labelBackgroundColor=default;startSize=1;endArrow=classic;endSize=1;" parent="akxVl1QOJM7sjqm9vT8Y-443" source="akxVl1QOJM7sjqm9vT8Y-227" target="akxVl1QOJM7sjqm9vT8Y-196" edge="1">
          <mxGeometry relative="1" as="geometry" />
        </mxCell>
        <mxCell id="akxVl1QOJM7sjqm9vT8Y-266" style="edgeStyle=orthogonalEdgeStyle;shape=connector;rounded=0;orthogonalLoop=1;jettySize=auto;html=1;exitX=1;exitY=0.25;exitDx=0;exitDy=0;exitPerimeter=0;entryX=0;entryY=1;entryDx=0;entryDy=0;strokeColor=#384770;strokeWidth=2;align=center;verticalAlign=middle;fontFamily=Helvetica;fontSize=11;fontColor=default;labelBackgroundColor=default;startSize=1;endArrow=classic;endSize=1;" parent="akxVl1QOJM7sjqm9vT8Y-443" source="akxVl1QOJM7sjqm9vT8Y-239" target="akxVl1QOJM7sjqm9vT8Y-218" edge="1">
          <mxGeometry relative="1" as="geometry">
            <Array as="points">
              <mxPoint x="309.58" y="98" />
              <mxPoint x="309.58" y="81" />
            </Array>
          </mxGeometry>
        </mxCell>
        <mxCell id="akxVl1QOJM7sjqm9vT8Y-239" value="" style="rounded=0;whiteSpace=wrap;html=1;points=[[0,0.25,0,0,0],[0,0.75,0,0,0],[1,0.25,0,0,0]];container=0;fontFamily=Helvetica;fontSize=11;fontColor=default;labelBackgroundColor=default;strokeWidth=1.5;" parent="akxVl1QOJM7sjqm9vT8Y-443" vertex="1">
          <mxGeometry x="269.58" y="90" width="20" height="32" as="geometry" />
        </mxCell>
        <mxCell id="akxVl1QOJM7sjqm9vT8Y-240" value="" style="endArrow=none;html=1;rounded=0;strokeWidth=1.5;" parent="akxVl1QOJM7sjqm9vT8Y-443" edge="1">
          <mxGeometry width="50" height="50" relative="1" as="geometry">
            <mxPoint x="269.58" y="122" as="sourcePoint" />
            <mxPoint x="269.58" y="107" as="targetPoint" />
            <Array as="points">
              <mxPoint x="279.58" y="114.5" />
            </Array>
          </mxGeometry>
        </mxCell>
        <mxCell id="akxVl1QOJM7sjqm9vT8Y-241" value="" style="group" parent="akxVl1QOJM7sjqm9vT8Y-443" vertex="1" connectable="0">
          <mxGeometry x="199.57999999999998" y="83" width="30" height="30" as="geometry" />
        </mxCell>
        <mxCell id="akxVl1QOJM7sjqm9vT8Y-242" value="" style="ellipse;whiteSpace=wrap;html=1;aspect=fixed;strokeWidth=2;" parent="akxVl1QOJM7sjqm9vT8Y-241" vertex="1">
          <mxGeometry width="30" height="30" as="geometry" />
        </mxCell>
        <mxCell id="akxVl1QOJM7sjqm9vT8Y-243" value="" style="group;rotation=45;" parent="akxVl1QOJM7sjqm9vT8Y-241" vertex="1" connectable="0">
          <mxGeometry x="5" y="5" width="20" height="20" as="geometry" />
        </mxCell>
        <mxCell id="akxVl1QOJM7sjqm9vT8Y-244" value="" style="endArrow=none;html=1;strokeWidth=2;shadow=0;jumpStyle=none;rounded=0;strokeColor=default;comic=0;fixDash=0;startFill=1;endFill=1;sourcePerimeterSpacing=0;" parent="akxVl1QOJM7sjqm9vT8Y-243" edge="1">
          <mxGeometry width="50" height="50" relative="1" as="geometry">
            <mxPoint x="17" y="17" as="sourcePoint" />
            <mxPoint x="3" y="3" as="targetPoint" />
          </mxGeometry>
        </mxCell>
        <mxCell id="akxVl1QOJM7sjqm9vT8Y-245" value="" style="endArrow=none;html=1;rounded=0;strokeWidth=2;shadow=0;jumpStyle=none;sourcePerimeterSpacing=0;" parent="akxVl1QOJM7sjqm9vT8Y-243" edge="1">
          <mxGeometry width="50" height="50" relative="1" as="geometry">
            <mxPoint x="3" y="17" as="sourcePoint" />
            <mxPoint x="17" y="3" as="targetPoint" />
          </mxGeometry>
        </mxCell>
        <mxCell id="akxVl1QOJM7sjqm9vT8Y-246" style="edgeStyle=orthogonalEdgeStyle;shape=connector;rounded=0;orthogonalLoop=1;jettySize=auto;html=1;exitX=1;exitY=0.5;exitDx=0;exitDy=0;entryX=0;entryY=0.25;entryDx=0;entryDy=0;entryPerimeter=0;strokeColor=#384770;strokeWidth=2;align=center;verticalAlign=middle;fontFamily=Helvetica;fontSize=11;fontColor=default;labelBackgroundColor=default;startSize=1;endArrow=classic;endSize=1;" parent="akxVl1QOJM7sjqm9vT8Y-443" source="akxVl1QOJM7sjqm9vT8Y-242" target="akxVl1QOJM7sjqm9vT8Y-239" edge="1">
          <mxGeometry relative="1" as="geometry" />
        </mxCell>
        <mxCell id="akxVl1QOJM7sjqm9vT8Y-247" value="" style="rounded=0;whiteSpace=wrap;html=1;points=[[0,0.25,0,0,0],[0,0.75,0,0,0],[1,0.25,0,0,0]];container=0;fontFamily=Helvetica;fontSize=11;fontColor=default;labelBackgroundColor=default;strokeWidth=1.5;" parent="akxVl1QOJM7sjqm9vT8Y-443" vertex="1">
          <mxGeometry x="269.58" y="142" width="20" height="32" as="geometry" />
        </mxCell>
        <mxCell id="akxVl1QOJM7sjqm9vT8Y-248" value="" style="endArrow=none;html=1;rounded=0;strokeWidth=1.5;" parent="akxVl1QOJM7sjqm9vT8Y-443" edge="1">
          <mxGeometry width="50" height="50" relative="1" as="geometry">
            <mxPoint x="269.58" y="174" as="sourcePoint" />
            <mxPoint x="269.58" y="159" as="targetPoint" />
            <Array as="points">
              <mxPoint x="279.58" y="166.5" />
            </Array>
          </mxGeometry>
        </mxCell>
        <mxCell id="akxVl1QOJM7sjqm9vT8Y-249" value="" style="group" parent="akxVl1QOJM7sjqm9vT8Y-443" vertex="1" connectable="0">
          <mxGeometry x="199.57999999999998" y="135" width="30" height="30" as="geometry" />
        </mxCell>
        <mxCell id="akxVl1QOJM7sjqm9vT8Y-250" value="" style="ellipse;whiteSpace=wrap;html=1;aspect=fixed;strokeWidth=2;" parent="akxVl1QOJM7sjqm9vT8Y-249" vertex="1">
          <mxGeometry width="30" height="30" as="geometry" />
        </mxCell>
        <mxCell id="akxVl1QOJM7sjqm9vT8Y-251" value="" style="group;rotation=45;" parent="akxVl1QOJM7sjqm9vT8Y-249" vertex="1" connectable="0">
          <mxGeometry x="5" y="5" width="20" height="20" as="geometry" />
        </mxCell>
        <mxCell id="akxVl1QOJM7sjqm9vT8Y-252" value="" style="endArrow=none;html=1;strokeWidth=2;shadow=0;jumpStyle=none;rounded=0;strokeColor=default;comic=0;fixDash=0;startFill=1;endFill=1;sourcePerimeterSpacing=0;" parent="akxVl1QOJM7sjqm9vT8Y-251" edge="1">
          <mxGeometry width="50" height="50" relative="1" as="geometry">
            <mxPoint x="17" y="17" as="sourcePoint" />
            <mxPoint x="3" y="3" as="targetPoint" />
          </mxGeometry>
        </mxCell>
        <mxCell id="akxVl1QOJM7sjqm9vT8Y-253" value="" style="endArrow=none;html=1;rounded=0;strokeWidth=2;shadow=0;jumpStyle=none;sourcePerimeterSpacing=0;" parent="akxVl1QOJM7sjqm9vT8Y-251" edge="1">
          <mxGeometry width="50" height="50" relative="1" as="geometry">
            <mxPoint x="3" y="17" as="sourcePoint" />
            <mxPoint x="17" y="3" as="targetPoint" />
          </mxGeometry>
        </mxCell>
        <mxCell id="akxVl1QOJM7sjqm9vT8Y-254" style="edgeStyle=orthogonalEdgeStyle;shape=connector;rounded=0;orthogonalLoop=1;jettySize=auto;html=1;exitX=1;exitY=0.5;exitDx=0;exitDy=0;entryX=0;entryY=0.25;entryDx=0;entryDy=0;entryPerimeter=0;strokeColor=#384770;strokeWidth=2;align=center;verticalAlign=middle;fontFamily=Helvetica;fontSize=11;fontColor=default;labelBackgroundColor=default;startSize=1;endArrow=classic;endSize=1;" parent="akxVl1QOJM7sjqm9vT8Y-443" source="akxVl1QOJM7sjqm9vT8Y-250" target="akxVl1QOJM7sjqm9vT8Y-247" edge="1">
          <mxGeometry relative="1" as="geometry" />
        </mxCell>
        <mxCell id="akxVl1QOJM7sjqm9vT8Y-255" value="" style="rounded=0;whiteSpace=wrap;html=1;points=[[0,0.25,0,0,0],[0,0.75,0,0,0],[1,0.25,0,0,0]];container=0;fontFamily=Helvetica;fontSize=11;fontColor=default;labelBackgroundColor=default;strokeWidth=1.5;" parent="akxVl1QOJM7sjqm9vT8Y-443" vertex="1">
          <mxGeometry x="269.58" y="195" width="20" height="32" as="geometry" />
        </mxCell>
        <mxCell id="akxVl1QOJM7sjqm9vT8Y-256" value="" style="endArrow=none;html=1;rounded=0;strokeWidth=1.5;" parent="akxVl1QOJM7sjqm9vT8Y-443" edge="1">
          <mxGeometry width="50" height="50" relative="1" as="geometry">
            <mxPoint x="269.58" y="227" as="sourcePoint" />
            <mxPoint x="269.58" y="212" as="targetPoint" />
            <Array as="points">
              <mxPoint x="279.58" y="219.5" />
            </Array>
          </mxGeometry>
        </mxCell>
        <mxCell id="akxVl1QOJM7sjqm9vT8Y-257" value="" style="group" parent="akxVl1QOJM7sjqm9vT8Y-443" vertex="1" connectable="0">
          <mxGeometry x="199.57999999999998" y="188" width="30" height="30" as="geometry" />
        </mxCell>
        <mxCell id="akxVl1QOJM7sjqm9vT8Y-258" value="" style="ellipse;whiteSpace=wrap;html=1;aspect=fixed;strokeWidth=2;" parent="akxVl1QOJM7sjqm9vT8Y-257" vertex="1">
          <mxGeometry width="30" height="30" as="geometry" />
        </mxCell>
        <mxCell id="akxVl1QOJM7sjqm9vT8Y-259" value="" style="group;rotation=45;" parent="akxVl1QOJM7sjqm9vT8Y-257" vertex="1" connectable="0">
          <mxGeometry x="5" y="5" width="20" height="20" as="geometry" />
        </mxCell>
        <mxCell id="akxVl1QOJM7sjqm9vT8Y-260" value="" style="endArrow=none;html=1;strokeWidth=2;shadow=0;jumpStyle=none;rounded=0;strokeColor=default;comic=0;fixDash=0;startFill=1;endFill=1;sourcePerimeterSpacing=0;" parent="akxVl1QOJM7sjqm9vT8Y-259" edge="1">
          <mxGeometry width="50" height="50" relative="1" as="geometry">
            <mxPoint x="17" y="17" as="sourcePoint" />
            <mxPoint x="3" y="3" as="targetPoint" />
          </mxGeometry>
        </mxCell>
        <mxCell id="akxVl1QOJM7sjqm9vT8Y-261" value="" style="endArrow=none;html=1;rounded=0;strokeWidth=2;shadow=0;jumpStyle=none;sourcePerimeterSpacing=0;" parent="akxVl1QOJM7sjqm9vT8Y-259" edge="1">
          <mxGeometry width="50" height="50" relative="1" as="geometry">
            <mxPoint x="3" y="17" as="sourcePoint" />
            <mxPoint x="17" y="3" as="targetPoint" />
          </mxGeometry>
        </mxCell>
        <mxCell id="akxVl1QOJM7sjqm9vT8Y-262" style="edgeStyle=orthogonalEdgeStyle;shape=connector;rounded=0;orthogonalLoop=1;jettySize=auto;html=1;exitX=1;exitY=0.5;exitDx=0;exitDy=0;entryX=0;entryY=0.25;entryDx=0;entryDy=0;entryPerimeter=0;strokeColor=#384770;strokeWidth=2;align=center;verticalAlign=middle;fontFamily=Helvetica;fontSize=11;fontColor=default;labelBackgroundColor=default;startSize=1;endArrow=classic;endSize=1;" parent="akxVl1QOJM7sjqm9vT8Y-443" source="akxVl1QOJM7sjqm9vT8Y-258" target="akxVl1QOJM7sjqm9vT8Y-255" edge="1">
          <mxGeometry relative="1" as="geometry" />
        </mxCell>
        <mxCell id="akxVl1QOJM7sjqm9vT8Y-282" style="edgeStyle=orthogonalEdgeStyle;shape=connector;rounded=0;orthogonalLoop=1;jettySize=auto;html=1;exitX=1;exitY=0.5;exitDx=0;exitDy=0;entryX=1;entryY=1;entryDx=0;entryDy=0;entryPerimeter=0;strokeColor=#384770;strokeWidth=2;align=center;verticalAlign=middle;fontFamily=Helvetica;fontSize=11;fontColor=default;labelBackgroundColor=default;startSize=1;endArrow=classic;endSize=1;" parent="akxVl1QOJM7sjqm9vT8Y-443" source="akxVl1QOJM7sjqm9vT8Y-218" target="akxVl1QOJM7sjqm9vT8Y-163" edge="1">
          <mxGeometry relative="1" as="geometry" />
        </mxCell>
        <mxCell id="akxVl1QOJM7sjqm9vT8Y-285" value="" style="group" parent="akxVl1QOJM7sjqm9vT8Y-443" vertex="1" connectable="0">
          <mxGeometry x="409.08" y="148" width="121.07106781186553" height="50" as="geometry" />
        </mxCell>
        <mxCell id="akxVl1QOJM7sjqm9vT8Y-286" value="&lt;b&gt;&lt;font face=&quot;monospace&quot; style=&quot;font-size: 14px;&quot;&gt;rnd_fxp&lt;/font&gt;&lt;/b&gt;" style="rounded=1;whiteSpace=wrap;html=1;fontFamily=Helvetica;fontSize=11;fontColor=default;labelBackgroundColor=default;points=[];horizontal=1;verticalAlign=top;arcSize=20;absoluteArcSize=1;spacingTop=-5;strokeWidth=1.5;" parent="akxVl1QOJM7sjqm9vT8Y-285" vertex="1">
          <mxGeometry x="7.5" width="106.5" height="50" as="geometry" />
        </mxCell>
        <mxCell id="akxVl1QOJM7sjqm9vT8Y-287" value="" style="group" parent="akxVl1QOJM7sjqm9vT8Y-285" vertex="1" connectable="0">
          <mxGeometry x="69" y="20" width="52.071067811865476" height="14.142135623730951" as="geometry" />
        </mxCell>
        <mxCell id="akxVl1QOJM7sjqm9vT8Y-288" value="" style="rounded=1;whiteSpace=wrap;html=1;points=[[0,0,0,0,0]];rotation=45;arcSize=25;absoluteArcSize=0;verticalAlign=middle;fontFamily=Helvetica;fontSize=11;fontColor=default;labelBackgroundColor=default;direction=south;aspect=fixed;strokeWidth=1.5;" parent="akxVl1QOJM7sjqm9vT8Y-287" vertex="1">
          <mxGeometry x="40" y="2.0710678118654755" width="10" height="10" as="geometry" />
        </mxCell>
        <mxCell id="akxVl1QOJM7sjqm9vT8Y-289" value="&lt;font face=&quot;monospace&quot; size=&quot;1&quot;&gt;&lt;i style=&quot;&quot;&gt;o_data&lt;/i&gt;&lt;/font&gt;" style="text;html=1;align=right;verticalAlign=middle;whiteSpace=wrap;rounded=0;points=[];fontSize=11;fontFamily=Helvetica;fontColor=default;labelBackgroundColor=none;spacingLeft=0;spacingBottom=0;spacingRight=10;" parent="akxVl1QOJM7sjqm9vT8Y-287" vertex="1">
          <mxGeometry y="2.0710678118654755" width="45" height="10" as="geometry" />
        </mxCell>
        <mxCell id="akxVl1QOJM7sjqm9vT8Y-290" value="" style="group" parent="akxVl1QOJM7sjqm9vT8Y-285" vertex="1" connectable="0">
          <mxGeometry y="20" width="57.071067811865476" height="14.142135623730951" as="geometry" />
        </mxCell>
        <mxCell id="akxVl1QOJM7sjqm9vT8Y-291" value="" style="rounded=1;whiteSpace=wrap;html=1;points=[[1,1,0,0,0]];rotation=45;arcSize=25;absoluteArcSize=0;verticalAlign=middle;fontFamily=Helvetica;fontSize=11;fontColor=default;labelBackgroundColor=default;direction=south;aspect=fixed;strokeWidth=1.5;" parent="akxVl1QOJM7sjqm9vT8Y-290" vertex="1">
          <mxGeometry x="2.0710678118654755" y="2.0710678118654755" width="10" height="10" as="geometry" />
        </mxCell>
        <mxCell id="akxVl1QOJM7sjqm9vT8Y-292" value="&lt;font size=&quot;1&quot; face=&quot;monospace&quot;&gt;&lt;i style=&quot;&quot;&gt;i_data&lt;/i&gt;&lt;/font&gt;" style="text;html=1;align=left;verticalAlign=middle;whiteSpace=wrap;rounded=0;points=[];fontSize=11;fontFamily=Helvetica;fontColor=default;labelBackgroundColor=none;spacingLeft=10;spacingBottom=0;" parent="akxVl1QOJM7sjqm9vT8Y-290" vertex="1">
          <mxGeometry x="7.0710678118654755" y="2.0710678118654755" width="50" height="10" as="geometry" />
        </mxCell>
        <mxCell id="akxVl1QOJM7sjqm9vT8Y-293" style="edgeStyle=orthogonalEdgeStyle;shape=connector;rounded=0;orthogonalLoop=1;jettySize=auto;html=1;exitX=1;exitY=0.25;exitDx=0;exitDy=0;exitPerimeter=0;entryX=0;entryY=0;entryDx=0;entryDy=0;strokeColor=#384770;strokeWidth=2;align=center;verticalAlign=middle;fontFamily=Helvetica;fontSize=11;fontColor=default;labelBackgroundColor=default;startSize=1;endArrow=classic;endSize=1;" parent="akxVl1QOJM7sjqm9vT8Y-443" source="akxVl1QOJM7sjqm9vT8Y-247" target="akxVl1QOJM7sjqm9vT8Y-295" edge="1">
          <mxGeometry relative="1" as="geometry">
            <mxPoint x="289.58" y="150" as="sourcePoint" />
            <Array as="points">
              <mxPoint x="309.58" y="150" />
              <mxPoint x="309.58" y="164" />
            </Array>
          </mxGeometry>
        </mxCell>
        <mxCell id="akxVl1QOJM7sjqm9vT8Y-294" value="" style="group" parent="akxVl1QOJM7sjqm9vT8Y-443" vertex="1" connectable="0">
          <mxGeometry x="329.58" y="160" width="30" height="30" as="geometry" />
        </mxCell>
        <mxCell id="akxVl1QOJM7sjqm9vT8Y-295" value="" style="ellipse;whiteSpace=wrap;html=1;aspect=fixed;strokeWidth=2;" parent="akxVl1QOJM7sjqm9vT8Y-294" vertex="1">
          <mxGeometry width="30" height="30" as="geometry" />
        </mxCell>
        <mxCell id="akxVl1QOJM7sjqm9vT8Y-296" value="" style="group" parent="akxVl1QOJM7sjqm9vT8Y-294" vertex="1" connectable="0">
          <mxGeometry x="5" y="5" width="20" height="20" as="geometry" />
        </mxCell>
        <mxCell id="akxVl1QOJM7sjqm9vT8Y-297" value="" style="endArrow=none;html=1;strokeWidth=2;shadow=0;jumpStyle=none;rounded=0;strokeColor=default;comic=0;fixDash=0;startFill=1;endFill=1;sourcePerimeterSpacing=0;" parent="akxVl1QOJM7sjqm9vT8Y-296" edge="1">
          <mxGeometry width="50" height="50" relative="1" as="geometry">
            <mxPoint x="20" y="10" as="sourcePoint" />
            <mxPoint y="10" as="targetPoint" />
          </mxGeometry>
        </mxCell>
        <mxCell id="akxVl1QOJM7sjqm9vT8Y-298" value="" style="endArrow=none;html=1;rounded=0;strokeWidth=2;shadow=0;jumpStyle=none;sourcePerimeterSpacing=0;" parent="akxVl1QOJM7sjqm9vT8Y-296" edge="1">
          <mxGeometry width="50" height="50" relative="1" as="geometry">
            <mxPoint x="10" y="20" as="sourcePoint" />
            <mxPoint x="10" as="targetPoint" />
          </mxGeometry>
        </mxCell>
        <mxCell id="akxVl1QOJM7sjqm9vT8Y-299" style="edgeStyle=orthogonalEdgeStyle;shape=connector;rounded=0;orthogonalLoop=1;jettySize=auto;html=1;exitX=1;exitY=0.25;exitDx=0;exitDy=0;exitPerimeter=0;entryX=0;entryY=1;entryDx=0;entryDy=0;strokeColor=#384770;strokeWidth=2;align=center;verticalAlign=middle;fontFamily=Helvetica;fontSize=11;fontColor=default;labelBackgroundColor=default;startSize=1;endArrow=classic;endSize=1;" parent="akxVl1QOJM7sjqm9vT8Y-443" source="akxVl1QOJM7sjqm9vT8Y-255" target="akxVl1QOJM7sjqm9vT8Y-295" edge="1">
          <mxGeometry relative="1" as="geometry">
            <mxPoint x="289.58" y="203" as="sourcePoint" />
            <Array as="points">
              <mxPoint x="309.58" y="203" />
              <mxPoint x="309.58" y="186" />
            </Array>
          </mxGeometry>
        </mxCell>
        <mxCell id="akxVl1QOJM7sjqm9vT8Y-300" style="edgeStyle=orthogonalEdgeStyle;shape=connector;rounded=0;orthogonalLoop=1;jettySize=auto;html=1;exitX=1;exitY=0.5;exitDx=0;exitDy=0;entryX=1;entryY=1;entryDx=0;entryDy=0;entryPerimeter=0;strokeColor=#384770;strokeWidth=2;align=center;verticalAlign=middle;fontFamily=Helvetica;fontSize=11;fontColor=default;labelBackgroundColor=default;startSize=1;endArrow=classic;endSize=1;" parent="akxVl1QOJM7sjqm9vT8Y-443" source="akxVl1QOJM7sjqm9vT8Y-295" target="akxVl1QOJM7sjqm9vT8Y-291" edge="1">
          <mxGeometry relative="1" as="geometry" />
        </mxCell>
        <mxCell id="akxVl1QOJM7sjqm9vT8Y-313" style="edgeStyle=orthogonalEdgeStyle;shape=connector;rounded=0;jumpStyle=arc;orthogonalLoop=1;jettySize=auto;html=1;strokeColor=#384770;strokeWidth=2;align=center;verticalAlign=middle;fontFamily=Helvetica;fontSize=11;fontColor=default;labelBackgroundColor=default;startArrow=none;startFill=0;startSize=3;endArrow=classic;endSize=1;entryX=0;entryY=0;entryDx=0;entryDy=0;" parent="akxVl1QOJM7sjqm9vT8Y-443" edge="1">
          <mxGeometry relative="1" as="geometry">
            <mxPoint x="203.57999999999998" y="160" as="targetPoint" />
            <mxPoint x="170.57999999999998" y="160" as="sourcePoint" />
          </mxGeometry>
        </mxCell>
        <mxCell id="akxVl1QOJM7sjqm9vT8Y-315" style="edgeStyle=orthogonalEdgeStyle;shape=connector;rounded=0;jumpStyle=arc;orthogonalLoop=1;jettySize=auto;html=1;strokeColor=#384770;strokeWidth=2;align=center;verticalAlign=middle;fontFamily=Helvetica;fontSize=11;fontColor=default;labelBackgroundColor=default;startArrow=none;startFill=0;startSize=3;endArrow=classic;endSize=1;entryX=0;entryY=1;entryDx=0;entryDy=0;" parent="akxVl1QOJM7sjqm9vT8Y-443" target="akxVl1QOJM7sjqm9vT8Y-258" edge="1">
          <mxGeometry relative="1" as="geometry">
            <mxPoint x="193.57999999999998" y="214" as="targetPoint" />
            <mxPoint x="149.57999999999998" y="34" as="sourcePoint" />
            <Array as="points">
              <mxPoint x="149.57999999999998" y="214" />
            </Array>
          </mxGeometry>
        </mxCell>
        <mxCell id="akxVl1QOJM7sjqm9vT8Y-316" style="edgeStyle=orthogonalEdgeStyle;shape=connector;rounded=0;jumpStyle=arc;orthogonalLoop=1;jettySize=auto;html=1;strokeColor=#384770;strokeWidth=2;align=center;verticalAlign=middle;fontFamily=Helvetica;fontSize=11;fontColor=default;labelBackgroundColor=default;startArrow=none;startFill=0;startSize=3;endArrow=classic;endSize=1;entryX=0;entryY=0;entryDx=0;entryDy=0;" parent="akxVl1QOJM7sjqm9vT8Y-443" edge="1">
          <mxGeometry relative="1" as="geometry">
            <mxPoint x="203.57999999999998" y="140" as="targetPoint" />
            <mxPoint x="149.57999999999998" y="140" as="sourcePoint" />
            <Array as="points">
              <mxPoint x="159.57999999999998" y="140" />
            </Array>
          </mxGeometry>
        </mxCell>
        <mxCell id="akxVl1QOJM7sjqm9vT8Y-318" value="" style="group" parent="akxVl1QOJM7sjqm9vT8Y-443" vertex="1" connectable="0">
          <mxGeometry x="269.58" y="37" width="20" height="32" as="geometry" />
        </mxCell>
        <mxCell id="akxVl1QOJM7sjqm9vT8Y-196" value="" style="rounded=0;whiteSpace=wrap;html=1;points=[[0,0.25,0,0,0],[0,0.75,0,0,0],[1,0.25,0,0,0]];container=0;fontFamily=Helvetica;fontSize=11;fontColor=default;labelBackgroundColor=default;strokeWidth=1.5;" parent="akxVl1QOJM7sjqm9vT8Y-318" vertex="1">
          <mxGeometry width="20" height="32" as="geometry" />
        </mxCell>
        <mxCell id="akxVl1QOJM7sjqm9vT8Y-199" value="" style="endArrow=none;html=1;rounded=0;strokeWidth=1.5;" parent="akxVl1QOJM7sjqm9vT8Y-318" edge="1">
          <mxGeometry width="50" height="50" relative="1" as="geometry">
            <mxPoint y="32" as="sourcePoint" />
            <mxPoint y="17" as="targetPoint" />
            <Array as="points">
              <mxPoint x="10" y="24.5" />
            </Array>
          </mxGeometry>
        </mxCell>
        <mxCell id="akxVl1QOJM7sjqm9vT8Y-319" value="" style="group" parent="akxVl1QOJM7sjqm9vT8Y-443" vertex="1" connectable="0">
          <mxGeometry x="99.58" y="26" width="20" height="32" as="geometry" />
        </mxCell>
        <mxCell id="akxVl1QOJM7sjqm9vT8Y-397" style="edgeStyle=orthogonalEdgeStyle;shape=connector;rounded=0;jumpStyle=arc;orthogonalLoop=1;jettySize=auto;html=1;exitX=0;exitY=0.25;exitDx=0;exitDy=0;exitPerimeter=0;strokeColor=#384770;strokeWidth=2;align=center;verticalAlign=middle;fontFamily=Helvetica;fontSize=11;fontColor=default;labelBackgroundColor=default;startArrow=none;startFill=0;startSize=3;endArrow=classic;endSize=1;entryX=0;entryY=0.25;entryDx=0;entryDy=0;entryPerimeter=0;" parent="akxVl1QOJM7sjqm9vT8Y-319" target="akxVl1QOJM7sjqm9vT8Y-320" edge="1">
          <mxGeometry relative="1" as="geometry">
            <mxPoint x="-90" y="7.705882352941217" as="sourcePoint" />
          </mxGeometry>
        </mxCell>
        <mxCell id="akxVl1QOJM7sjqm9vT8Y-320" value="" style="rounded=0;whiteSpace=wrap;html=1;points=[[0,0.25,0,0,0],[0,0.75,0,0,0],[1,0.25,0,0,0]];container=0;fontFamily=Helvetica;fontSize=11;fontColor=default;labelBackgroundColor=default;strokeWidth=1.5;" parent="akxVl1QOJM7sjqm9vT8Y-319" vertex="1">
          <mxGeometry width="20" height="32" as="geometry" />
        </mxCell>
        <mxCell id="akxVl1QOJM7sjqm9vT8Y-321" value="" style="endArrow=none;html=1;rounded=0;strokeWidth=1.5;" parent="akxVl1QOJM7sjqm9vT8Y-319" edge="1">
          <mxGeometry width="50" height="50" relative="1" as="geometry">
            <mxPoint y="32" as="sourcePoint" />
            <mxPoint y="17" as="targetPoint" />
            <Array as="points">
              <mxPoint x="10" y="24.5" />
            </Array>
          </mxGeometry>
        </mxCell>
        <mxCell id="akxVl1QOJM7sjqm9vT8Y-301" style="edgeStyle=orthogonalEdgeStyle;shape=connector;rounded=0;orthogonalLoop=1;jettySize=auto;html=1;strokeColor=#384770;strokeWidth=2;align=center;verticalAlign=middle;fontFamily=Helvetica;fontSize=11;fontColor=default;labelBackgroundColor=default;startSize=1;endArrow=classic;endSize=1;entryX=0;entryY=0;entryDx=0;entryDy=0;exitX=1;exitY=0.25;exitDx=0;exitDy=0;exitPerimeter=0;" parent="akxVl1QOJM7sjqm9vT8Y-443" source="akxVl1QOJM7sjqm9vT8Y-320" target="akxVl1QOJM7sjqm9vT8Y-227" edge="1">
          <mxGeometry relative="1" as="geometry">
            <mxPoint x="139.57999999999998" y="34" as="sourcePoint" />
          </mxGeometry>
        </mxCell>
        <mxCell id="akxVl1QOJM7sjqm9vT8Y-324" value="" style="group" parent="akxVl1QOJM7sjqm9vT8Y-443" vertex="1" connectable="0">
          <mxGeometry x="99.58" y="79" width="20" height="32" as="geometry" />
        </mxCell>
        <mxCell id="akxVl1QOJM7sjqm9vT8Y-398" style="edgeStyle=orthogonalEdgeStyle;shape=connector;rounded=0;jumpStyle=arc;orthogonalLoop=1;jettySize=auto;html=1;exitX=0;exitY=0.25;exitDx=0;exitDy=0;exitPerimeter=0;strokeColor=#384770;strokeWidth=2;align=center;verticalAlign=middle;fontFamily=Helvetica;fontSize=11;fontColor=default;labelBackgroundColor=default;startArrow=none;startFill=0;startSize=3;endArrow=classic;endSize=1;entryX=0;entryY=0.25;entryDx=0;entryDy=0;entryPerimeter=0;" parent="akxVl1QOJM7sjqm9vT8Y-324" target="akxVl1QOJM7sjqm9vT8Y-325" edge="1">
          <mxGeometry relative="1" as="geometry">
            <mxPoint x="-90" y="8.235294117647072" as="sourcePoint" />
          </mxGeometry>
        </mxCell>
        <mxCell id="akxVl1QOJM7sjqm9vT8Y-325" value="" style="rounded=0;whiteSpace=wrap;html=1;points=[[0,0.25,0,0,0],[0,0.75,0,0,0],[1,0.25,0,0,0]];container=0;fontFamily=Helvetica;fontSize=11;fontColor=default;labelBackgroundColor=default;strokeWidth=1.5;" parent="akxVl1QOJM7sjqm9vT8Y-324" vertex="1">
          <mxGeometry width="20" height="32" as="geometry" />
        </mxCell>
        <mxCell id="akxVl1QOJM7sjqm9vT8Y-326" value="" style="endArrow=none;html=1;rounded=0;strokeWidth=1.5;" parent="akxVl1QOJM7sjqm9vT8Y-324" edge="1">
          <mxGeometry width="50" height="50" relative="1" as="geometry">
            <mxPoint y="32" as="sourcePoint" />
            <mxPoint y="17" as="targetPoint" />
            <Array as="points">
              <mxPoint x="10" y="24.5" />
            </Array>
          </mxGeometry>
        </mxCell>
        <mxCell id="akxVl1QOJM7sjqm9vT8Y-312" style="edgeStyle=orthogonalEdgeStyle;shape=connector;rounded=0;jumpStyle=arc;orthogonalLoop=1;jettySize=auto;html=1;strokeColor=#384770;strokeWidth=2;align=center;verticalAlign=middle;fontFamily=Helvetica;fontSize=11;fontColor=default;labelBackgroundColor=default;startArrow=none;startFill=0;startSize=3;endArrow=classic;endSize=1;entryX=0;entryY=0;entryDx=0;entryDy=0;exitX=1;exitY=0.25;exitDx=0;exitDy=0;exitPerimeter=0;jumpSize=6;" parent="akxVl1QOJM7sjqm9vT8Y-443" source="akxVl1QOJM7sjqm9vT8Y-325" target="akxVl1QOJM7sjqm9vT8Y-242" edge="1">
          <mxGeometry relative="1" as="geometry">
            <mxPoint x="203.57999999999998" y="86" as="targetPoint" />
            <mxPoint x="139.57999999999998" y="87" as="sourcePoint" />
          </mxGeometry>
        </mxCell>
        <mxCell id="akxVl1QOJM7sjqm9vT8Y-328" value="&lt;i style=&quot;font-family: monospace; text-wrap: nowrap; font-size: 8px;&quot;&gt;[0]&lt;/i&gt;" style="text;html=1;align=center;verticalAlign=middle;whiteSpace=wrap;rounded=0;fontFamily=Helvetica;fontSize=11;fontColor=#000000;labelBackgroundColor=none;points=[];" parent="akxVl1QOJM7sjqm9vT8Y-443" vertex="1">
          <mxGeometry x="179.57999999999998" y="20" width="20" height="14" as="geometry" />
        </mxCell>
        <mxCell id="akxVl1QOJM7sjqm9vT8Y-330" value="&lt;i style=&quot;font-family: monospace; text-wrap: nowrap; font-size: 8px;&quot;&gt;[0]&lt;/i&gt;" style="text;html=1;align=center;verticalAlign=middle;whiteSpace=wrap;rounded=0;fontFamily=Helvetica;fontSize=11;fontColor=#000000;labelBackgroundColor=none;points=[];" parent="akxVl1QOJM7sjqm9vT8Y-443" vertex="1">
          <mxGeometry x="179.57999999999998" y="41" width="20" height="14" as="geometry" />
        </mxCell>
        <mxCell id="akxVl1QOJM7sjqm9vT8Y-331" value="&lt;i style=&quot;font-family: monospace; text-wrap: nowrap; font-size: 8px;&quot;&gt;[1]&lt;/i&gt;" style="text;html=1;align=center;verticalAlign=middle;whiteSpace=wrap;rounded=0;fontFamily=Helvetica;fontSize=11;fontColor=#000000;labelBackgroundColor=none;points=[];" parent="akxVl1QOJM7sjqm9vT8Y-443" vertex="1">
          <mxGeometry x="179.57999999999998" y="73" width="20" height="14" as="geometry" />
        </mxCell>
        <mxCell id="akxVl1QOJM7sjqm9vT8Y-332" value="&lt;i style=&quot;font-family: monospace; text-wrap: nowrap; font-size: 8px;&quot;&gt;[1]&lt;/i&gt;" style="text;html=1;align=center;verticalAlign=middle;whiteSpace=wrap;rounded=0;fontFamily=Helvetica;fontSize=11;fontColor=#000000;labelBackgroundColor=none;points=[];" parent="akxVl1QOJM7sjqm9vT8Y-443" vertex="1">
          <mxGeometry x="179.57999999999998" y="94" width="20" height="14" as="geometry" />
        </mxCell>
        <mxCell id="akxVl1QOJM7sjqm9vT8Y-333" value="&lt;i style=&quot;font-family: monospace; text-wrap: nowrap; font-size: 8px;&quot;&gt;[0]&lt;/i&gt;" style="text;html=1;align=center;verticalAlign=middle;whiteSpace=wrap;rounded=0;fontFamily=Helvetica;fontSize=11;fontColor=#000000;labelBackgroundColor=none;points=[];" parent="akxVl1QOJM7sjqm9vT8Y-443" vertex="1">
          <mxGeometry x="179.57999999999998" y="125" width="20" height="14" as="geometry" />
        </mxCell>
        <mxCell id="akxVl1QOJM7sjqm9vT8Y-334" value="&lt;i style=&quot;font-family: monospace; text-wrap: nowrap; font-size: 8px;&quot;&gt;[1]&lt;/i&gt;" style="text;html=1;align=center;verticalAlign=middle;whiteSpace=wrap;rounded=0;fontFamily=Helvetica;fontSize=11;fontColor=#000000;labelBackgroundColor=none;points=[];" parent="akxVl1QOJM7sjqm9vT8Y-443" vertex="1">
          <mxGeometry x="179.57999999999998" y="146" width="20" height="14" as="geometry" />
        </mxCell>
        <mxCell id="akxVl1QOJM7sjqm9vT8Y-335" value="&lt;i style=&quot;font-family: monospace; text-wrap: nowrap; font-size: 8px;&quot;&gt;[0]&lt;/i&gt;" style="text;html=1;align=center;verticalAlign=middle;whiteSpace=wrap;rounded=0;fontFamily=Helvetica;fontSize=11;fontColor=#000000;labelBackgroundColor=none;points=[];" parent="akxVl1QOJM7sjqm9vT8Y-443" vertex="1">
          <mxGeometry x="179.57999999999998" y="180" width="20" height="14" as="geometry" />
        </mxCell>
        <mxCell id="akxVl1QOJM7sjqm9vT8Y-336" value="&lt;i style=&quot;font-family: monospace; text-wrap: nowrap; font-size: 8px;&quot;&gt;[1]&lt;/i&gt;" style="text;html=1;align=center;verticalAlign=middle;whiteSpace=wrap;rounded=0;fontFamily=Helvetica;fontSize=11;fontColor=#000000;labelBackgroundColor=none;points=[];" parent="akxVl1QOJM7sjqm9vT8Y-443" vertex="1">
          <mxGeometry x="179.57999999999998" y="199" width="20" height="14" as="geometry" />
        </mxCell>
        <mxCell id="akxVl1QOJM7sjqm9vT8Y-337" style="edgeStyle=orthogonalEdgeStyle;shape=connector;rounded=0;jumpStyle=arc;orthogonalLoop=1;jettySize=auto;html=1;strokeColor=#384770;strokeWidth=2;align=center;verticalAlign=middle;fontFamily=Helvetica;fontSize=11;fontColor=default;labelBackgroundColor=default;startArrow=none;startFill=0;startSize=3;endArrow=classic;endSize=1;entryX=0;entryY=0;entryDx=0;entryDy=0;" parent="akxVl1QOJM7sjqm9vT8Y-443" edge="1">
          <mxGeometry relative="1" as="geometry">
            <mxPoint x="203.57999999999998" y="109" as="targetPoint" />
            <mxPoint x="149.57999999999998" y="109" as="sourcePoint" />
            <Array as="points">
              <mxPoint x="159.57999999999998" y="109" />
            </Array>
          </mxGeometry>
        </mxCell>
        <mxCell id="akxVl1QOJM7sjqm9vT8Y-340" value="&lt;i style=&quot;font-family: monospace; text-wrap: nowrap; font-size: 8px;&quot;&gt;INREGS==1&lt;/i&gt;" style="text;html=1;align=center;verticalAlign=middle;whiteSpace=wrap;rounded=0;fontFamily=Helvetica;fontSize=11;fontColor=#000000;labelBackgroundColor=none;points=[];" parent="akxVl1QOJM7sjqm9vT8Y-443" vertex="1">
          <mxGeometry x="85.58" y="123" width="50" height="10" as="geometry" />
        </mxCell>
        <mxCell id="akxVl1QOJM7sjqm9vT8Y-341" style="edgeStyle=orthogonalEdgeStyle;shape=connector;rounded=0;jumpStyle=arc;orthogonalLoop=1;jettySize=auto;html=1;exitX=0;exitY=0;exitDx=0;exitDy=0;exitPerimeter=0;entryX=0;entryY=0;entryDx=0;entryDy=0;entryPerimeter=0;strokeColor=#384770;strokeWidth=2;align=center;verticalAlign=middle;fontFamily=Helvetica;fontSize=11;fontColor=default;labelBackgroundColor=default;startArrow=none;startFill=0;startSize=3;endArrow=none;endSize=1;endFill=0;" parent="akxVl1QOJM7sjqm9vT8Y-443" source="akxVl1QOJM7sjqm9vT8Y-160" target="akxVl1QOJM7sjqm9vT8Y-288" edge="1">
          <mxGeometry relative="1" as="geometry">
            <Array as="points">
              <mxPoint x="549.58" y="70" />
              <mxPoint x="549.58" y="175" />
            </Array>
          </mxGeometry>
        </mxCell>
        <mxCell id="akxVl1QOJM7sjqm9vT8Y-342" style="edgeStyle=orthogonalEdgeStyle;shape=connector;rounded=0;orthogonalLoop=1;jettySize=auto;html=1;exitX=1;exitY=0.5;exitDx=0;exitDy=0;strokeColor=#384770;strokeWidth=2;align=center;verticalAlign=middle;fontFamily=Helvetica;fontSize=11;fontColor=default;labelBackgroundColor=default;startSize=1;endArrow=none;endSize=1;entryX=0;entryY=0.25;entryDx=0;entryDy=0;entryPerimeter=0;endFill=0;" parent="akxVl1QOJM7sjqm9vT8Y-443" target="akxVl1QOJM7sjqm9vT8Y-409" edge="1">
          <mxGeometry relative="1" as="geometry">
            <mxPoint x="549.58" y="120" as="sourcePoint" />
            <mxPoint x="569.58" y="90" as="targetPoint" />
          </mxGeometry>
        </mxCell>
        <mxCell id="akxVl1QOJM7sjqm9vT8Y-343" value="" style="endArrow=none;html=1;rounded=0;strokeColor=default;align=center;verticalAlign=middle;fontFamily=Helvetica;fontSize=11;fontColor=default;labelBackgroundColor=default;startSize=3;endSize=3;jumpStyle=none;strokeWidth=0.5;" parent="akxVl1QOJM7sjqm9vT8Y-443" edge="1">
          <mxGeometry width="50" height="50" relative="1" as="geometry">
            <mxPoint x="238.57999999999998" y="50" as="sourcePoint" />
            <mxPoint x="248.57999999999998" y="40" as="targetPoint" />
          </mxGeometry>
        </mxCell>
        <mxCell id="akxVl1QOJM7sjqm9vT8Y-345" value="&lt;font style=&quot;font-size: 5px;&quot;&gt;2xWL_IN&lt;/font&gt;" style="text;html=1;align=center;verticalAlign=middle;whiteSpace=wrap;rounded=0;fontSize=11;fontStyle=2;points=[];fontFamily=monospace;fontColor=default;labelBackgroundColor=none;spacingTop=0;spacing=0;spacingBottom=5;" parent="akxVl1QOJM7sjqm9vT8Y-443" vertex="1">
          <mxGeometry x="230.57999999999998" y="30" width="27.93" height="10" as="geometry" />
        </mxCell>
        <mxCell id="akxVl1QOJM7sjqm9vT8Y-358" value="" style="endArrow=none;html=1;rounded=0;strokeColor=default;align=center;verticalAlign=middle;fontFamily=Helvetica;fontSize=11;fontColor=default;labelBackgroundColor=default;startSize=3;endSize=3;jumpStyle=none;strokeWidth=0.5;" parent="akxVl1QOJM7sjqm9vT8Y-443" edge="1">
          <mxGeometry width="50" height="50" relative="1" as="geometry">
            <mxPoint x="367.58" y="180" as="sourcePoint" />
            <mxPoint x="377.58" y="170" as="targetPoint" />
          </mxGeometry>
        </mxCell>
        <mxCell id="akxVl1QOJM7sjqm9vT8Y-359" value="&lt;font style=&quot;font-size: 5px;&quot;&gt;&amp;lt;2xWL_IN+1,&lt;/font&gt;&lt;div style=&quot;line-height: 20%;&quot;&gt;&lt;font style=&quot;font-size: 5px;&quot;&gt;2xIWL_IN+1&amp;gt;&lt;/font&gt;&lt;/div&gt;" style="text;html=1;align=left;verticalAlign=middle;whiteSpace=wrap;rounded=0;fontSize=11;fontStyle=2;points=[];fontFamily=monospace;fontColor=default;labelBackgroundColor=none;spacingTop=-10;spacing=0;spacingBottom=0;" parent="akxVl1QOJM7sjqm9vT8Y-443" vertex="1">
          <mxGeometry x="358.58" y="180" width="35" height="20" as="geometry" />
        </mxCell>
        <mxCell id="akxVl1QOJM7sjqm9vT8Y-360" value="&lt;font style=&quot;font-size: 5px;&quot;&gt;2xWL_IN+1&lt;/font&gt;" style="text;html=1;align=left;verticalAlign=middle;whiteSpace=wrap;rounded=0;fontSize=11;fontStyle=2;points=[];fontFamily=monospace;fontColor=default;labelBackgroundColor=none;spacingTop=0;spacing=0;spacingBottom=5;" parent="akxVl1QOJM7sjqm9vT8Y-443" vertex="1">
          <mxGeometry x="359.65" y="159" width="27.93" height="10" as="geometry" />
        </mxCell>
        <mxCell id="akxVl1QOJM7sjqm9vT8Y-361" value="&lt;font style=&quot;font-size: 5px;&quot;&gt;&amp;lt;2xWL_IN,&lt;/font&gt;&lt;div style=&quot;line-height: 20%;&quot;&gt;&lt;font style=&quot;font-size: 5px;&quot;&gt;2xIWL_IN&amp;gt;&lt;/font&gt;&lt;/div&gt;" style="text;html=1;align=left;verticalAlign=middle;whiteSpace=wrap;rounded=0;fontSize=11;fontStyle=2;points=[];fontFamily=monospace;fontColor=default;labelBackgroundColor=none;spacingTop=-10;spacing=0;spacingBottom=0;" parent="akxVl1QOJM7sjqm9vT8Y-443" vertex="1">
          <mxGeometry x="230.57999999999998" y="49" width="30" height="20" as="geometry" />
        </mxCell>
        <mxCell id="akxVl1QOJM7sjqm9vT8Y-364" value="" style="endArrow=none;html=1;rounded=0;strokeColor=default;align=center;verticalAlign=middle;fontFamily=Helvetica;fontSize=11;fontColor=default;labelBackgroundColor=default;startSize=3;endSize=3;jumpStyle=none;strokeWidth=0.5;" parent="akxVl1QOJM7sjqm9vT8Y-443" edge="1">
          <mxGeometry width="50" height="50" relative="1" as="geometry">
            <mxPoint x="238.57999999999998" y="103" as="sourcePoint" />
            <mxPoint x="248.57999999999998" y="93" as="targetPoint" />
          </mxGeometry>
        </mxCell>
        <mxCell id="akxVl1QOJM7sjqm9vT8Y-365" value="&lt;font style=&quot;font-size: 5px;&quot;&gt;2xWL_IN&lt;/font&gt;" style="text;html=1;align=center;verticalAlign=middle;whiteSpace=wrap;rounded=0;fontSize=11;fontStyle=2;points=[];fontFamily=monospace;fontColor=default;labelBackgroundColor=none;spacingTop=0;spacing=0;spacingBottom=5;" parent="akxVl1QOJM7sjqm9vT8Y-443" vertex="1">
          <mxGeometry x="230.57999999999998" y="83" width="27.93" height="10" as="geometry" />
        </mxCell>
        <mxCell id="akxVl1QOJM7sjqm9vT8Y-366" value="&lt;font style=&quot;font-size: 5px;&quot;&gt;&amp;lt;2xWL_IN,&lt;/font&gt;&lt;div style=&quot;line-height: 20%;&quot;&gt;&lt;font style=&quot;font-size: 5px;&quot;&gt;2xIWL_IN&amp;gt;&lt;/font&gt;&lt;/div&gt;" style="text;html=1;align=left;verticalAlign=middle;whiteSpace=wrap;rounded=0;fontSize=11;fontStyle=2;points=[];fontFamily=monospace;fontColor=default;labelBackgroundColor=none;spacingTop=-10;spacing=0;spacingBottom=0;" parent="akxVl1QOJM7sjqm9vT8Y-443" vertex="1">
          <mxGeometry x="230.57999999999998" y="102" width="30" height="20" as="geometry" />
        </mxCell>
        <mxCell id="akxVl1QOJM7sjqm9vT8Y-367" value="" style="endArrow=none;html=1;rounded=0;strokeColor=default;align=center;verticalAlign=middle;fontFamily=Helvetica;fontSize=11;fontColor=default;labelBackgroundColor=default;startSize=3;endSize=3;jumpStyle=none;strokeWidth=0.5;" parent="akxVl1QOJM7sjqm9vT8Y-443" edge="1">
          <mxGeometry width="50" height="50" relative="1" as="geometry">
            <mxPoint x="238.57999999999998" y="155" as="sourcePoint" />
            <mxPoint x="248.57999999999998" y="145" as="targetPoint" />
          </mxGeometry>
        </mxCell>
        <mxCell id="akxVl1QOJM7sjqm9vT8Y-368" value="&lt;font style=&quot;font-size: 5px;&quot;&gt;2xWL_IN&lt;/font&gt;" style="text;html=1;align=center;verticalAlign=middle;whiteSpace=wrap;rounded=0;fontSize=11;fontStyle=2;points=[];fontFamily=monospace;fontColor=default;labelBackgroundColor=none;spacingTop=0;spacing=0;spacingBottom=5;" parent="akxVl1QOJM7sjqm9vT8Y-443" vertex="1">
          <mxGeometry x="230.57999999999998" y="135" width="27.93" height="10" as="geometry" />
        </mxCell>
        <mxCell id="akxVl1QOJM7sjqm9vT8Y-369" value="&lt;font style=&quot;font-size: 5px;&quot;&gt;&amp;lt;2xWL_IN,&lt;/font&gt;&lt;div style=&quot;line-height: 20%;&quot;&gt;&lt;font style=&quot;font-size: 5px;&quot;&gt;2xIWL_IN&amp;gt;&lt;/font&gt;&lt;/div&gt;" style="text;html=1;align=left;verticalAlign=middle;whiteSpace=wrap;rounded=0;fontSize=11;fontStyle=2;points=[];fontFamily=monospace;fontColor=default;labelBackgroundColor=none;spacingTop=-10;spacing=0;spacingBottom=0;" parent="akxVl1QOJM7sjqm9vT8Y-443" vertex="1">
          <mxGeometry x="230.57999999999998" y="154" width="30" height="20" as="geometry" />
        </mxCell>
        <mxCell id="akxVl1QOJM7sjqm9vT8Y-370" value="" style="endArrow=none;html=1;rounded=0;strokeColor=default;align=center;verticalAlign=middle;fontFamily=Helvetica;fontSize=11;fontColor=default;labelBackgroundColor=default;startSize=3;endSize=3;jumpStyle=none;strokeWidth=0.5;" parent="akxVl1QOJM7sjqm9vT8Y-443" edge="1">
          <mxGeometry width="50" height="50" relative="1" as="geometry">
            <mxPoint x="238.57999999999998" y="208" as="sourcePoint" />
            <mxPoint x="248.57999999999998" y="198" as="targetPoint" />
          </mxGeometry>
        </mxCell>
        <mxCell id="akxVl1QOJM7sjqm9vT8Y-371" value="&lt;font style=&quot;font-size: 5px;&quot;&gt;2xWL_IN&lt;/font&gt;" style="text;html=1;align=center;verticalAlign=middle;whiteSpace=wrap;rounded=0;fontSize=11;fontStyle=2;points=[];fontFamily=monospace;fontColor=default;labelBackgroundColor=none;spacingTop=0;spacing=0;spacingBottom=5;" parent="akxVl1QOJM7sjqm9vT8Y-443" vertex="1">
          <mxGeometry x="230.57999999999998" y="188" width="27.93" height="10" as="geometry" />
        </mxCell>
        <mxCell id="akxVl1QOJM7sjqm9vT8Y-372" value="&lt;font style=&quot;font-size: 5px;&quot;&gt;&amp;lt;2xWL_IN,&lt;/font&gt;&lt;div style=&quot;line-height: 20%;&quot;&gt;&lt;font style=&quot;font-size: 5px;&quot;&gt;2xIWL_IN&amp;gt;&lt;/font&gt;&lt;/div&gt;" style="text;html=1;align=left;verticalAlign=middle;whiteSpace=wrap;rounded=0;fontSize=11;fontStyle=2;points=[];fontFamily=monospace;fontColor=default;labelBackgroundColor=none;spacingTop=-10;spacing=0;spacingBottom=0;" parent="akxVl1QOJM7sjqm9vT8Y-443" vertex="1">
          <mxGeometry x="230.57999999999998" y="207" width="30" height="20" as="geometry" />
        </mxCell>
        <mxCell id="akxVl1QOJM7sjqm9vT8Y-373" value="" style="endArrow=none;html=1;rounded=0;strokeColor=default;align=center;verticalAlign=middle;fontFamily=Helvetica;fontSize=11;fontColor=default;labelBackgroundColor=default;startSize=3;endSize=3;jumpStyle=none;strokeWidth=0.5;" parent="akxVl1QOJM7sjqm9vT8Y-443" edge="1">
          <mxGeometry width="50" height="50" relative="1" as="geometry">
            <mxPoint x="367.58" y="75" as="sourcePoint" />
            <mxPoint x="377.58" y="65" as="targetPoint" />
          </mxGeometry>
        </mxCell>
        <mxCell id="akxVl1QOJM7sjqm9vT8Y-374" value="&lt;font style=&quot;font-size: 5px;&quot;&gt;&amp;lt;2xWL_IN+1,&lt;/font&gt;&lt;div style=&quot;line-height: 20%;&quot;&gt;&lt;font style=&quot;font-size: 5px;&quot;&gt;2xIWL_IN+1&amp;gt;&lt;/font&gt;&lt;/div&gt;" style="text;html=1;align=left;verticalAlign=middle;whiteSpace=wrap;rounded=0;fontSize=11;fontStyle=2;points=[];fontFamily=monospace;fontColor=default;labelBackgroundColor=none;spacingTop=-10;spacing=0;spacingBottom=0;" parent="akxVl1QOJM7sjqm9vT8Y-443" vertex="1">
          <mxGeometry x="358.58" y="75" width="35" height="20" as="geometry" />
        </mxCell>
        <mxCell id="akxVl1QOJM7sjqm9vT8Y-375" value="&lt;font style=&quot;font-size: 5px;&quot;&gt;2xWL_IN+1&lt;/font&gt;" style="text;html=1;align=left;verticalAlign=middle;whiteSpace=wrap;rounded=0;fontSize=11;fontStyle=2;points=[];fontFamily=monospace;fontColor=default;labelBackgroundColor=none;spacingTop=0;spacing=0;spacingBottom=5;" parent="akxVl1QOJM7sjqm9vT8Y-443" vertex="1">
          <mxGeometry x="359.65" y="54" width="27.93" height="10" as="geometry" />
        </mxCell>
        <mxCell id="akxVl1QOJM7sjqm9vT8Y-395" value="" style="group" parent="akxVl1QOJM7sjqm9vT8Y-443" vertex="1" connectable="0">
          <mxGeometry x="79.58" y="179" width="60" height="40" as="geometry" />
        </mxCell>
        <mxCell id="akxVl1QOJM7sjqm9vT8Y-390" value="" style="rounded=1;whiteSpace=wrap;html=1;fontFamily=Helvetica;fontSize=11;fontColor=default;labelBackgroundColor=default;arcSize=20;absoluteArcSize=1;points=[];fillColor=none;" parent="akxVl1QOJM7sjqm9vT8Y-395" vertex="1">
          <mxGeometry width="60" height="40" as="geometry" />
        </mxCell>
        <mxCell id="akxVl1QOJM7sjqm9vT8Y-389" style="edgeStyle=orthogonalEdgeStyle;shape=connector;rounded=0;jumpStyle=arc;orthogonalLoop=1;jettySize=auto;html=1;exitX=0;exitY=0.25;exitDx=0;exitDy=0;exitPerimeter=0;strokeColor=#000000;strokeWidth=1;align=center;verticalAlign=middle;fontFamily=Helvetica;fontSize=11;fontColor=default;labelBackgroundColor=default;startArrow=none;startFill=0;startSize=3;endArrow=none;endSize=1;endFill=0;" parent="akxVl1QOJM7sjqm9vT8Y-395" source="akxVl1QOJM7sjqm9vT8Y-377" edge="1">
          <mxGeometry relative="1" as="geometry">
            <mxPoint y="9.804266452648449" as="targetPoint" />
          </mxGeometry>
        </mxCell>
        <mxCell id="akxVl1QOJM7sjqm9vT8Y-377" value="" style="rounded=0;whiteSpace=wrap;html=1;points=[[0,0.25,0,0,0],[0,0.75,0,0,0],[1,0.25,0,0,0]];container=0;fontFamily=Helvetica;fontSize=11;fontColor=default;labelBackgroundColor=default;strokeWidth=1;" parent="akxVl1QOJM7sjqm9vT8Y-395" vertex="1">
          <mxGeometry x="18.97363636363636" y="5.586714285714265" width="10.649090909090908" height="17.037714285714287" as="geometry" />
        </mxCell>
        <mxCell id="akxVl1QOJM7sjqm9vT8Y-383" value="" style="verticalLabelPosition=bottom;shadow=0;dashed=0;align=center;html=1;verticalAlign=top;shape=mxgraph.electrical.logic_gates.inverting_contact;fontFamily=Helvetica;fontSize=11;fontColor=default;labelBackgroundColor=default;aspect=fixed;" parent="akxVl1QOJM7sjqm9vT8Y-395" vertex="1">
          <mxGeometry x="14.713999999999999" y="16.235285714285737" width="4.259428571428572" height="4.259428571428572" as="geometry" />
        </mxCell>
        <mxCell id="akxVl1QOJM7sjqm9vT8Y-394" style="edgeStyle=orthogonalEdgeStyle;shape=connector;rounded=0;jumpStyle=arc;orthogonalLoop=1;jettySize=auto;html=1;exitX=1;exitY=0.5;exitDx=0;exitDy=0;exitPerimeter=0;strokeColor=#000000;strokeWidth=1;align=center;verticalAlign=middle;fontFamily=Helvetica;fontSize=11;fontColor=default;labelBackgroundColor=default;startArrow=none;startFill=0;startSize=3;endArrow=none;endSize=1;endFill=0;" parent="akxVl1QOJM7sjqm9vT8Y-395" source="akxVl1QOJM7sjqm9vT8Y-385" edge="1">
          <mxGeometry relative="1" as="geometry">
            <mxPoint x="60" y="30" as="targetPoint" />
          </mxGeometry>
        </mxCell>
        <mxCell id="akxVl1QOJM7sjqm9vT8Y-385" value="" style="verticalLabelPosition=bottom;shadow=0;dashed=0;align=center;html=1;verticalAlign=top;shape=mxgraph.electrical.logic_gates.logic_gate;operation=and;fontFamily=Helvetica;fontSize=11;fontColor=default;labelBackgroundColor=default;strokeWidth=1;" parent="akxVl1QOJM7sjqm9vT8Y-395" vertex="1">
          <mxGeometry x="35" y="21" width="21.298181818181817" height="12.778285714285717" as="geometry" />
        </mxCell>
        <mxCell id="akxVl1QOJM7sjqm9vT8Y-386" style="edgeStyle=orthogonalEdgeStyle;shape=connector;rounded=0;jumpStyle=arc;orthogonalLoop=1;jettySize=auto;html=1;exitX=1;exitY=0.25;exitDx=0;exitDy=0;exitPerimeter=0;strokeColor=#000000;strokeWidth=1;align=center;verticalAlign=middle;fontFamily=Helvetica;fontSize=11;fontColor=default;labelBackgroundColor=default;startArrow=none;startFill=0;startSize=3;endArrow=none;endSize=1;endFill=0;" parent="akxVl1QOJM7sjqm9vT8Y-395" source="akxVl1QOJM7sjqm9vT8Y-377" edge="1">
          <mxGeometry relative="1" as="geometry">
            <mxPoint x="33.322727272727235" y="-2.0038571428571004" as="sourcePoint" />
            <mxPoint x="35" y="24.5" as="targetPoint" />
            <Array as="points">
              <mxPoint x="35" y="10" />
            </Array>
          </mxGeometry>
        </mxCell>
        <mxCell id="akxVl1QOJM7sjqm9vT8Y-388" style="edgeStyle=orthogonalEdgeStyle;shape=connector;rounded=0;jumpStyle=arc;orthogonalLoop=1;jettySize=auto;html=1;exitX=0;exitY=0.75;exitDx=0;exitDy=0;exitPerimeter=0;entryX=0.1;entryY=0.5;entryDx=0;entryDy=0;entryPerimeter=0;strokeColor=#000000;strokeWidth=1;align=center;verticalAlign=middle;fontFamily=Helvetica;fontSize=11;fontColor=default;labelBackgroundColor=default;startArrow=none;startFill=0;startSize=3;endArrow=none;endSize=1;endFill=0;" parent="akxVl1QOJM7sjqm9vT8Y-395" source="akxVl1QOJM7sjqm9vT8Y-385" target="akxVl1QOJM7sjqm9vT8Y-383" edge="1">
          <mxGeometry relative="1" as="geometry">
            <Array as="points">
              <mxPoint x="10" y="31" />
              <mxPoint x="10" y="18" />
            </Array>
          </mxGeometry>
        </mxCell>
        <mxCell id="akxVl1QOJM7sjqm9vT8Y-392" style="edgeStyle=orthogonalEdgeStyle;shape=connector;rounded=0;jumpStyle=arc;orthogonalLoop=1;jettySize=auto;html=1;strokeColor=#000000;strokeWidth=1;align=center;verticalAlign=middle;fontFamily=Helvetica;fontSize=11;fontColor=default;labelBackgroundColor=default;startArrow=oval;startFill=1;startSize=1;endArrow=none;endSize=1;endFill=0;" parent="akxVl1QOJM7sjqm9vT8Y-395" edge="1">
          <mxGeometry relative="1" as="geometry">
            <mxPoint y="30" as="targetPoint" />
            <mxPoint x="10" y="30.5" as="sourcePoint" />
          </mxGeometry>
        </mxCell>
        <mxCell id="akxVl1QOJM7sjqm9vT8Y-393" value="&lt;i style=&quot;font-family: monospace; text-wrap: nowrap; font-size: 8px;&quot;&gt;CGIC&lt;/i&gt;" style="text;html=1;align=center;verticalAlign=middle;whiteSpace=wrap;rounded=0;fontFamily=Helvetica;fontSize=11;fontColor=#000000;labelBackgroundColor=none;points=[];" parent="akxVl1QOJM7sjqm9vT8Y-395" vertex="1">
          <mxGeometry x="33.30000000000001" width="24.61" height="10" as="geometry" />
        </mxCell>
        <mxCell id="akxVl1QOJM7sjqm9vT8Y-396" value="&lt;i style=&quot;font-family: monospace; text-wrap: nowrap; font-size: 8px;&quot;&gt;Clock Gate&lt;/i&gt;" style="text;html=1;align=center;verticalAlign=middle;whiteSpace=wrap;rounded=0;fontFamily=Helvetica;fontSize=11;fontColor=#000000;labelBackgroundColor=none;points=[];" parent="akxVl1QOJM7sjqm9vT8Y-443" vertex="1">
          <mxGeometry x="79.58" y="167" width="60" height="10" as="geometry" />
        </mxCell>
        <mxCell id="akxVl1QOJM7sjqm9vT8Y-399" value="&lt;font face=&quot;monospace&quot;&gt;&lt;span style=&quot;font-size: 8px; text-wrap: nowrap;&quot;&gt;&lt;i&gt;uu_rnd_fxp_imag&lt;/i&gt;&lt;/span&gt;&lt;/font&gt;" style="text;html=1;align=center;verticalAlign=middle;whiteSpace=wrap;rounded=0;fontFamily=Helvetica;fontSize=11;fontColor=#000000;labelBackgroundColor=none;points=[];" parent="akxVl1QOJM7sjqm9vT8Y-443" vertex="1">
          <mxGeometry x="419.58" y="132" width="100" height="16" as="geometry" />
        </mxCell>
        <mxCell id="akxVl1QOJM7sjqm9vT8Y-400" value="&lt;font face=&quot;monospace&quot;&gt;&lt;span style=&quot;font-size: 8px; text-wrap: nowrap;&quot;&gt;&lt;i&gt;uu_rnd_fxp_real&lt;/i&gt;&lt;/span&gt;&lt;/font&gt;" style="text;html=1;align=center;verticalAlign=middle;whiteSpace=wrap;rounded=0;fontFamily=Helvetica;fontSize=11;fontColor=#000000;labelBackgroundColor=none;points=[];" parent="akxVl1QOJM7sjqm9vT8Y-443" vertex="1">
          <mxGeometry x="419.58" y="27" width="100" height="16" as="geometry" />
        </mxCell>
        <mxCell id="akxVl1QOJM7sjqm9vT8Y-401" value="" style="rounded=1;whiteSpace=wrap;html=1;fontFamily=Helvetica;fontSize=11;fontColor=default;labelBackgroundColor=default;arcSize=20;absoluteArcSize=1;points=[];dashed=1;fillColor=none;" parent="akxVl1QOJM7sjqm9vT8Y-443" vertex="1">
          <mxGeometry x="399.58" y="15" width="140" height="215" as="geometry" />
        </mxCell>
        <mxCell id="akxVl1QOJM7sjqm9vT8Y-402" value="&lt;font face=&quot;monospace&quot;&gt;&lt;span style=&quot;font-size: 8px; text-wrap: nowrap;&quot;&gt;&lt;i&gt;WL_OUT != 2*WL_IN+1 &amp;amp;&amp;amp;&lt;/i&gt;&lt;/span&gt;&lt;/font&gt;&lt;div style=&quot;line-height: 100%;&quot;&gt;&lt;font face=&quot;monospace&quot;&gt;&lt;span style=&quot;font-size: 8px; text-wrap: nowrap;&quot;&gt;&lt;i&gt;IWL_IN != 2*IWL_IN+1&lt;/i&gt;&lt;/span&gt;&lt;/font&gt;&lt;/div&gt;" style="text;html=1;align=center;verticalAlign=middle;whiteSpace=wrap;rounded=0;fontFamily=Helvetica;fontSize=11;fontColor=#000000;labelBackgroundColor=none;points=[];spacing=0;" parent="akxVl1QOJM7sjqm9vT8Y-443" vertex="1">
          <mxGeometry x="399.58" y="204" width="140" height="26" as="geometry" />
        </mxCell>
        <mxCell id="akxVl1QOJM7sjqm9vT8Y-407" value="" style="group" parent="akxVl1QOJM7sjqm9vT8Y-443" vertex="1" connectable="0">
          <mxGeometry x="569.58" y="112" width="20" height="32" as="geometry" />
        </mxCell>
        <mxCell id="akxVl1QOJM7sjqm9vT8Y-409" value="" style="rounded=0;whiteSpace=wrap;html=1;points=[[0,0.25,0,0,0],[0,0.75,0,0,0],[1,0.25,0,0,0]];container=0;fontFamily=Helvetica;fontSize=11;fontColor=default;labelBackgroundColor=default;strokeWidth=1.5;" parent="akxVl1QOJM7sjqm9vT8Y-407" vertex="1">
          <mxGeometry width="20" height="32" as="geometry" />
        </mxCell>
        <mxCell id="akxVl1QOJM7sjqm9vT8Y-410" value="" style="endArrow=none;html=1;rounded=0;strokeWidth=1.5;" parent="akxVl1QOJM7sjqm9vT8Y-407" edge="1">
          <mxGeometry width="50" height="50" relative="1" as="geometry">
            <mxPoint y="32" as="sourcePoint" />
            <mxPoint y="17" as="targetPoint" />
            <Array as="points">
              <mxPoint x="10" y="24.5" />
            </Array>
          </mxGeometry>
        </mxCell>
        <mxCell id="akxVl1QOJM7sjqm9vT8Y-414" style="edgeStyle=orthogonalEdgeStyle;shape=connector;rounded=0;jumpStyle=arc;orthogonalLoop=1;jettySize=auto;html=1;exitX=1;exitY=0.25;exitDx=0;exitDy=0;exitPerimeter=0;entryX=0;entryY=0.25;entryDx=0;entryDy=0;entryPerimeter=0;strokeColor=#384770;strokeWidth=2;align=center;verticalAlign=middle;fontFamily=Helvetica;fontSize=11;fontColor=default;labelBackgroundColor=default;startArrow=none;startFill=0;startSize=3;endArrow=none;endSize=1;endFill=0;dashed=1;dashPattern=1 2;" parent="akxVl1QOJM7sjqm9vT8Y-443" edge="1">
          <mxGeometry relative="1" as="geometry">
            <mxPoint x="592.58" y="120" as="sourcePoint" />
            <mxPoint x="612.58" y="120" as="targetPoint" />
          </mxGeometry>
        </mxCell>
        <mxCell id="akxVl1QOJM7sjqm9vT8Y-411" value="" style="group" parent="akxVl1QOJM7sjqm9vT8Y-443" vertex="1" connectable="0">
          <mxGeometry x="609.58" y="112" width="20" height="32" as="geometry" />
        </mxCell>
        <mxCell id="akxVl1QOJM7sjqm9vT8Y-416" style="edgeStyle=orthogonalEdgeStyle;shape=connector;rounded=0;jumpStyle=arc;orthogonalLoop=1;jettySize=auto;html=1;exitX=1;exitY=0.25;exitDx=0;exitDy=0;exitPerimeter=0;strokeColor=#384770;strokeWidth=2;align=center;verticalAlign=middle;fontFamily=Helvetica;fontSize=11;fontColor=default;labelBackgroundColor=default;startArrow=none;startFill=0;startSize=3;endArrow=classic;endSize=1;" parent="akxVl1QOJM7sjqm9vT8Y-411" source="akxVl1QOJM7sjqm9vT8Y-412" edge="1">
          <mxGeometry relative="1" as="geometry">
            <mxPoint x="110" y="8" as="targetPoint" />
          </mxGeometry>
        </mxCell>
        <mxCell id="akxVl1QOJM7sjqm9vT8Y-412" value="" style="rounded=0;whiteSpace=wrap;html=1;points=[[0,0.25,0,0,0],[0,0.75,0,0,0],[1,0.25,0,0,0]];container=0;fontFamily=Helvetica;fontSize=11;fontColor=default;labelBackgroundColor=default;strokeWidth=1.5;" parent="akxVl1QOJM7sjqm9vT8Y-411" vertex="1">
          <mxGeometry width="20" height="32" as="geometry" />
        </mxCell>
        <mxCell id="akxVl1QOJM7sjqm9vT8Y-413" value="" style="endArrow=none;html=1;rounded=0;strokeWidth=1.5;" parent="akxVl1QOJM7sjqm9vT8Y-411" edge="1">
          <mxGeometry width="50" height="50" relative="1" as="geometry">
            <mxPoint y="32" as="sourcePoint" />
            <mxPoint y="17" as="targetPoint" />
            <Array as="points">
              <mxPoint x="10" y="24.5" />
            </Array>
          </mxGeometry>
        </mxCell>
        <mxCell id="akxVl1QOJM7sjqm9vT8Y-417" style="edgeStyle=orthogonalEdgeStyle;shape=connector;rounded=0;jumpStyle=arc;orthogonalLoop=1;jettySize=auto;html=1;strokeColor=#038554;strokeWidth=1;align=center;verticalAlign=middle;fontFamily=Helvetica;fontSize=11;fontColor=default;labelBackgroundColor=default;startArrow=none;startFill=0;startSize=3;endArrow=classic;endSize=1;entryX=0;entryY=0.25;entryDx=0;entryDy=0;entryPerimeter=0;" parent="akxVl1QOJM7sjqm9vT8Y-443" edge="1">
          <mxGeometry relative="1" as="geometry">
            <mxPoint x="79.58" y="189" as="targetPoint" />
            <mxPoint x="9.579999999999998" y="189" as="sourcePoint" />
          </mxGeometry>
        </mxCell>
        <mxCell id="akxVl1QOJM7sjqm9vT8Y-418" style="edgeStyle=orthogonalEdgeStyle;shape=connector;rounded=0;jumpStyle=arc;orthogonalLoop=1;jettySize=auto;html=1;strokeColor=#000000;strokeWidth=1;align=center;verticalAlign=middle;fontFamily=Helvetica;fontSize=11;fontColor=default;labelBackgroundColor=default;startArrow=none;startFill=0;startSize=3;endArrow=classic;endSize=1;entryX=0;entryY=0.25;entryDx=0;entryDy=0;entryPerimeter=0;" parent="akxVl1QOJM7sjqm9vT8Y-443" edge="1">
          <mxGeometry relative="1" as="geometry">
            <mxPoint x="79.58" y="210" as="targetPoint" />
            <mxPoint x="9.579999999999998" y="210" as="sourcePoint" />
          </mxGeometry>
        </mxCell>
        <mxCell id="akxVl1QOJM7sjqm9vT8Y-419" value="&lt;i style=&quot;font-family: monospace; text-wrap: nowrap; font-size: 8px;&quot;&gt;OUTREGS&lt;/i&gt;" style="text;html=1;align=center;verticalAlign=middle;whiteSpace=wrap;rounded=0;fontFamily=Helvetica;fontSize=11;fontColor=#000000;labelBackgroundColor=none;points=[];" parent="akxVl1QOJM7sjqm9vT8Y-443" vertex="1">
          <mxGeometry x="575.58" y="88" width="50" height="10" as="geometry" />
        </mxCell>
        <mxCell id="akxVl1QOJM7sjqm9vT8Y-421" value="&lt;span style=&quot;font-family: monospace; text-wrap: nowrap;&quot;&gt;&lt;font style=&quot;font-size: 14px;&quot;&gt;&lt;b&gt;cmult&lt;/b&gt;&lt;/font&gt;&lt;/span&gt;" style="text;html=1;align=center;verticalAlign=middle;whiteSpace=wrap;rounded=0;fontFamily=Helvetica;fontSize=11;fontColor=#000000;labelBackgroundColor=none;points=[];" parent="akxVl1QOJM7sjqm9vT8Y-443" vertex="1">
          <mxGeometry x="579.58" width="80" height="30" as="geometry" />
        </mxCell>
        <mxCell id="akxVl1QOJM7sjqm9vT8Y-422" value="" style="endArrow=none;html=1;rounded=0;strokeColor=default;align=center;verticalAlign=middle;fontFamily=Helvetica;fontSize=11;fontColor=default;labelBackgroundColor=default;startSize=3;endSize=3;jumpStyle=none;strokeWidth=0.5;" parent="akxVl1QOJM7sjqm9vT8Y-443" edge="1">
          <mxGeometry width="50" height="50" relative="1" as="geometry">
            <mxPoint x="689.58" y="125" as="sourcePoint" />
            <mxPoint x="699.58" y="115" as="targetPoint" />
          </mxGeometry>
        </mxCell>
        <mxCell id="akxVl1QOJM7sjqm9vT8Y-423" value="&lt;font style=&quot;font-size: 5px;&quot;&gt;&amp;lt;WL_OUT,IWL_OUT&amp;gt;&lt;/font&gt;" style="text;html=1;align=right;verticalAlign=middle;whiteSpace=wrap;rounded=0;fontSize=11;fontStyle=2;points=[];fontFamily=monospace;fontColor=default;labelBackgroundColor=none;spacingTop=0;spacing=0;spacingBottom=0;" parent="akxVl1QOJM7sjqm9vT8Y-443" vertex="1">
          <mxGeometry x="669.58" y="122" width="45" height="10" as="geometry" />
        </mxCell>
        <mxCell id="akxVl1QOJM7sjqm9vT8Y-424" value="&lt;font style=&quot;font-size: 5px;&quot;&gt;2xWL_OUT&lt;/font&gt;" style="text;html=1;align=left;verticalAlign=middle;whiteSpace=wrap;rounded=0;fontSize=11;fontStyle=2;points=[];fontFamily=monospace;fontColor=default;labelBackgroundColor=none;spacingTop=0;spacing=0;spacingBottom=5;" parent="akxVl1QOJM7sjqm9vT8Y-443" vertex="1">
          <mxGeometry x="668.65" y="110" width="45.93" height="10" as="geometry" />
        </mxCell>
        <mxCell id="akxVl1QOJM7sjqm9vT8Y-430" value="&lt;div style=&quot;&quot;&gt;&lt;span style=&quot;font-size: 5px; background-color: initial;&quot;&gt;&amp;lt;WL_IN,IWL_IN&amp;gt;&lt;/span&gt;&lt;/div&gt;" style="text;html=1;align=left;verticalAlign=middle;whiteSpace=wrap;rounded=0;fontSize=11;fontStyle=2;points=[];fontFamily=monospace;fontColor=default;labelBackgroundColor=none;spacingTop=0;spacing=0;spacingBottom=5;" parent="akxVl1QOJM7sjqm9vT8Y-443" vertex="1">
          <mxGeometry x="9.579999999999998" y="36" width="45" height="10" as="geometry" />
        </mxCell>
        <mxCell id="akxVl1QOJM7sjqm9vT8Y-431" value="&lt;font style=&quot;font-size: 5px;&quot;&gt;2xWL_IN&lt;/font&gt;" style="text;html=1;align=left;verticalAlign=middle;whiteSpace=wrap;rounded=0;fontSize=11;fontStyle=2;points=[];fontFamily=monospace;fontColor=default;labelBackgroundColor=none;spacingTop=0;spacing=0;spacingBottom=5;" parent="akxVl1QOJM7sjqm9vT8Y-443" vertex="1">
          <mxGeometry x="9.579999999999998" y="23" width="45" height="10" as="geometry" />
        </mxCell>
        <mxCell id="akxVl1QOJM7sjqm9vT8Y-432" value="" style="endArrow=none;html=1;rounded=0;strokeColor=default;align=center;verticalAlign=middle;fontFamily=Helvetica;fontSize=11;fontColor=default;labelBackgroundColor=default;startSize=3;endSize=3;jumpStyle=none;strokeWidth=0.5;" parent="akxVl1QOJM7sjqm9vT8Y-443" edge="1">
          <mxGeometry width="50" height="50" relative="1" as="geometry">
            <mxPoint x="28.58" y="39" as="sourcePoint" />
            <mxPoint x="38.58" y="29" as="targetPoint" />
          </mxGeometry>
        </mxCell>
        <mxCell id="akxVl1QOJM7sjqm9vT8Y-433" value="&lt;div style=&quot;&quot;&gt;&lt;span style=&quot;font-size: 5px; background-color: initial;&quot;&gt;&amp;lt;WL_IN,IWL_IN&amp;gt;&lt;/span&gt;&lt;/div&gt;" style="text;html=1;align=left;verticalAlign=middle;whiteSpace=wrap;rounded=0;fontSize=11;fontStyle=2;points=[];fontFamily=monospace;fontColor=default;labelBackgroundColor=none;spacingTop=0;spacing=0;spacingBottom=5;" parent="akxVl1QOJM7sjqm9vT8Y-443" vertex="1">
          <mxGeometry x="9.579999999999998" y="89" width="45" height="10" as="geometry" />
        </mxCell>
        <mxCell id="akxVl1QOJM7sjqm9vT8Y-434" value="&lt;font style=&quot;font-size: 5px;&quot;&gt;2xWL_IN&lt;/font&gt;" style="text;html=1;align=left;verticalAlign=middle;whiteSpace=wrap;rounded=0;fontSize=11;fontStyle=2;points=[];fontFamily=monospace;fontColor=default;labelBackgroundColor=none;spacingTop=0;spacing=0;spacingBottom=5;" parent="akxVl1QOJM7sjqm9vT8Y-443" vertex="1">
          <mxGeometry x="9.579999999999998" y="76" width="45" height="10" as="geometry" />
        </mxCell>
        <mxCell id="akxVl1QOJM7sjqm9vT8Y-435" value="" style="endArrow=none;html=1;rounded=0;strokeColor=default;align=center;verticalAlign=middle;fontFamily=Helvetica;fontSize=11;fontColor=default;labelBackgroundColor=default;startSize=3;endSize=3;jumpStyle=none;strokeWidth=0.5;" parent="akxVl1QOJM7sjqm9vT8Y-443" edge="1">
          <mxGeometry width="50" height="50" relative="1" as="geometry">
            <mxPoint x="28.58" y="92" as="sourcePoint" />
            <mxPoint x="38.58" y="82" as="targetPoint" />
          </mxGeometry>
        </mxCell>
        <mxCell id="akxVl1QOJM7sjqm9vT8Y-436" value="&lt;font style=&quot;font-size: 11px;&quot;&gt;&lt;span style=&quot;font-size: 11px;&quot;&gt;i_data_a&lt;/span&gt;&lt;/font&gt;" style="text;html=1;align=right;verticalAlign=middle;whiteSpace=wrap;rounded=0;points=[];fontSize=11;fontFamily=monospace;fontStyle=2" parent="akxVl1QOJM7sjqm9vT8Y-443" vertex="1">
          <mxGeometry y="3" width="59.58" height="20" as="geometry" />
        </mxCell>
        <mxCell id="akxVl1QOJM7sjqm9vT8Y-437" value="&lt;font style=&quot;font-size: 11px;&quot;&gt;&lt;span style=&quot;font-size: 11px;&quot;&gt;i_data_b&lt;/span&gt;&lt;/font&gt;" style="text;html=1;align=right;verticalAlign=middle;whiteSpace=wrap;rounded=0;points=[];fontSize=11;fontFamily=monospace;fontStyle=2" parent="akxVl1QOJM7sjqm9vT8Y-443" vertex="1">
          <mxGeometry y="57" width="59.58" height="20" as="geometry" />
        </mxCell>
        <mxCell id="akxVl1QOJM7sjqm9vT8Y-438" value="&lt;font style=&quot;font-size: 11px;&quot;&gt;&lt;span style=&quot;font-size: 11px;&quot;&gt;i_enable&lt;/span&gt;&lt;/font&gt;" style="text;html=1;align=right;verticalAlign=middle;whiteSpace=wrap;rounded=0;points=[];fontSize=11;fontFamily=monospace;fontStyle=2" parent="akxVl1QOJM7sjqm9vT8Y-443" vertex="1">
          <mxGeometry y="169" width="59.58" height="20" as="geometry" />
        </mxCell>
        <mxCell id="akxVl1QOJM7sjqm9vT8Y-439" value="&lt;font style=&quot;font-size: 11px;&quot;&gt;&lt;span style=&quot;font-size: 11px;&quot;&gt;clk&lt;/span&gt;&lt;/font&gt;" style="text;html=1;align=right;verticalAlign=middle;whiteSpace=wrap;rounded=0;points=[];fontSize=11;fontFamily=monospace;fontStyle=2" parent="akxVl1QOJM7sjqm9vT8Y-443" vertex="1">
          <mxGeometry y="189" width="59.58" height="20" as="geometry" />
        </mxCell>
        <mxCell id="akxVl1QOJM7sjqm9vT8Y-440" value="&lt;font style=&quot;font-size: 11px;&quot;&gt;&lt;span style=&quot;font-size: 11px;&quot;&gt;o_data&lt;/span&gt;&lt;/font&gt;" style="text;html=1;align=left;verticalAlign=middle;whiteSpace=wrap;rounded=0;points=[];fontSize=11;fontFamily=monospace;fontStyle=2" parent="akxVl1QOJM7sjqm9vT8Y-443" vertex="1">
          <mxGeometry x="660.58" y="92" width="59.58" height="20" as="geometry" />
        </mxCell>
        <mxCell id="akxVl1QOJM7sjqm9vT8Y-444" value="" style="group" parent="1" vertex="1" connectable="0">
          <mxGeometry x="290.58000000000004" y="40" width="245" height="100" as="geometry" />
        </mxCell>
        <mxCell id="BYSAL5fk7eXTEBKorPxe-69" style="edgeStyle=orthogonalEdgeStyle;shape=connector;rounded=0;orthogonalLoop=1;jettySize=auto;html=1;exitX=1;exitY=0.5;exitDx=0;exitDy=0;exitPerimeter=0;entryX=0;entryY=0.5;entryDx=0;entryDy=0;entryPerimeter=0;strokeColor=#384770;align=center;verticalAlign=middle;fontFamily=Helvetica;fontSize=11;fontColor=default;labelBackgroundColor=default;startSize=1;endArrow=classic;endSize=1;strokeWidth=2;fillColor=#b1ddf0;" parent="akxVl1QOJM7sjqm9vT8Y-444" edge="1">
          <mxGeometry relative="1" as="geometry">
            <mxPoint x="190" y="50" as="sourcePoint" />
            <mxPoint x="245" y="50" as="targetPoint" />
          </mxGeometry>
        </mxCell>
        <mxCell id="Gb7eAu5N4ee6YkhigEsb-36" value="" style="endArrow=none;html=1;rounded=0;strokeColor=default;align=center;verticalAlign=middle;fontFamily=Helvetica;fontSize=11;fontColor=default;labelBackgroundColor=default;startSize=3;endSize=3;jumpStyle=none;strokeWidth=0.5;" parent="akxVl1QOJM7sjqm9vT8Y-444" edge="1">
          <mxGeometry width="50" height="50" relative="1" as="geometry">
            <mxPoint x="210" y="55" as="sourcePoint" />
            <mxPoint x="220" y="45" as="targetPoint" />
          </mxGeometry>
        </mxCell>
        <mxCell id="Gb7eAu5N4ee6YkhigEsb-37" value="&lt;font style=&quot;font-size: 5px;&quot;&gt;&amp;lt;WL_OUT,IWL_OUT&amp;gt;&lt;/font&gt;" style="text;html=1;align=right;verticalAlign=middle;whiteSpace=wrap;rounded=0;fontSize=11;fontStyle=2;points=[];fontFamily=monospace;fontColor=default;labelBackgroundColor=none;spacingTop=0;spacing=0;spacingBottom=0;" parent="akxVl1QOJM7sjqm9vT8Y-444" vertex="1">
          <mxGeometry x="190" y="50" width="45" height="10" as="geometry" />
        </mxCell>
        <mxCell id="Gb7eAu5N4ee6YkhigEsb-38" value="&lt;font style=&quot;font-size: 5px;&quot;&gt;2xWL_OUT&lt;/font&gt;" style="text;html=1;align=left;verticalAlign=middle;whiteSpace=wrap;rounded=0;fontSize=11;fontStyle=2;points=[];fontFamily=monospace;fontColor=default;labelBackgroundColor=none;spacingTop=0;spacing=0;spacingBottom=5;" parent="akxVl1QOJM7sjqm9vT8Y-444" vertex="1">
          <mxGeometry x="189.07" y="40" width="45.93" height="10" as="geometry" />
        </mxCell>
        <mxCell id="BYSAL5fk7eXTEBKorPxe-64" value="" style="group" parent="akxVl1QOJM7sjqm9vT8Y-444" vertex="1" connectable="0">
          <mxGeometry x="55" width="134.07106781186548" height="100" as="geometry" />
        </mxCell>
        <mxCell id="BYSAL5fk7eXTEBKorPxe-7" value="&lt;b&gt;&lt;font style=&quot;font-size: 14px;&quot; face=&quot;monospace&quot;&gt;cmult&lt;/font&gt;&lt;/b&gt;" style="rounded=1;whiteSpace=wrap;html=1;fontFamily=Helvetica;fontSize=11;fontColor=default;labelBackgroundColor=default;points=[];horizontal=1;verticalAlign=top;arcSize=20;absoluteArcSize=1;spacingTop=-5;strokeWidth=1.5;" parent="BYSAL5fk7eXTEBKorPxe-64" vertex="1">
          <mxGeometry x="7" width="120" height="100" as="geometry" />
        </mxCell>
        <mxCell id="BYSAL5fk7eXTEBKorPxe-33" value="" style="group" parent="BYSAL5fk7eXTEBKorPxe-64" vertex="1" connectable="0">
          <mxGeometry y="13" width="57.071067811865476" height="14.142135623730951" as="geometry" />
        </mxCell>
        <mxCell id="BYSAL5fk7eXTEBKorPxe-9" value="" style="rounded=1;whiteSpace=wrap;html=1;points=[[1,1,0,0,0]];rotation=45;arcSize=25;absoluteArcSize=0;verticalAlign=middle;fontFamily=Helvetica;fontSize=11;fontColor=default;labelBackgroundColor=default;direction=south;aspect=fixed;strokeWidth=1.5;" parent="BYSAL5fk7eXTEBKorPxe-33" vertex="1">
          <mxGeometry x="2.0710678118654755" y="2.0710678118654755" width="10" height="10" as="geometry" />
        </mxCell>
        <mxCell id="BYSAL5fk7eXTEBKorPxe-10" value="&lt;font size=&quot;1&quot; face=&quot;monospace&quot;&gt;&lt;i style=&quot;&quot;&gt;clk&lt;/i&gt;&lt;/font&gt;" style="text;html=1;align=left;verticalAlign=middle;whiteSpace=wrap;rounded=0;points=[];fontSize=11;fontFamily=Helvetica;fontColor=default;labelBackgroundColor=none;spacingLeft=10;spacingBottom=0;" parent="BYSAL5fk7eXTEBKorPxe-33" vertex="1">
          <mxGeometry x="7.0710678118654755" y="2.0710678118654755" width="50" height="10" as="geometry" />
        </mxCell>
        <mxCell id="BYSAL5fk7eXTEBKorPxe-43" value="" style="group" parent="BYSAL5fk7eXTEBKorPxe-64" vertex="1" connectable="0">
          <mxGeometry x="82" y="43" width="52.071067811865476" height="14.142135623730951" as="geometry" />
        </mxCell>
        <mxCell id="BYSAL5fk7eXTEBKorPxe-31" value="" style="rounded=1;whiteSpace=wrap;html=1;points=[[0,0,0,0,0]];rotation=45;arcSize=25;absoluteArcSize=0;verticalAlign=middle;fontFamily=Helvetica;fontSize=11;fontColor=default;labelBackgroundColor=default;direction=south;aspect=fixed;strokeWidth=1.5;" parent="BYSAL5fk7eXTEBKorPxe-43" vertex="1">
          <mxGeometry x="40" y="2.0710678118654755" width="10" height="10" as="geometry" />
        </mxCell>
        <mxCell id="BYSAL5fk7eXTEBKorPxe-32" value="&lt;font face=&quot;monospace&quot; size=&quot;1&quot;&gt;&lt;i style=&quot;&quot;&gt;o_data&lt;/i&gt;&lt;/font&gt;" style="text;html=1;align=right;verticalAlign=middle;whiteSpace=wrap;rounded=0;points=[];fontSize=11;fontFamily=Helvetica;fontColor=default;labelBackgroundColor=none;spacingLeft=0;spacingBottom=0;spacingRight=10;" parent="BYSAL5fk7eXTEBKorPxe-43" vertex="1">
          <mxGeometry y="2.0710678118654755" width="45" height="10" as="geometry" />
        </mxCell>
        <mxCell id="BYSAL5fk7eXTEBKorPxe-55" value="" style="group" parent="BYSAL5fk7eXTEBKorPxe-64" vertex="1" connectable="0">
          <mxGeometry y="33" width="57.071067811865476" height="14.142135623730951" as="geometry" />
        </mxCell>
        <mxCell id="BYSAL5fk7eXTEBKorPxe-56" value="" style="rounded=1;whiteSpace=wrap;html=1;points=[[1,1,0,0,0]];rotation=45;arcSize=25;absoluteArcSize=0;verticalAlign=middle;fontFamily=Helvetica;fontSize=11;fontColor=default;labelBackgroundColor=default;direction=south;aspect=fixed;strokeWidth=1.5;" parent="BYSAL5fk7eXTEBKorPxe-55" vertex="1">
          <mxGeometry x="2.0710678118654755" y="2.0710678118654755" width="10" height="10" as="geometry" />
        </mxCell>
        <mxCell id="BYSAL5fk7eXTEBKorPxe-57" value="&lt;font size=&quot;1&quot; face=&quot;monospace&quot;&gt;&lt;i style=&quot;&quot;&gt;i_enable&lt;/i&gt;&lt;/font&gt;" style="text;html=1;align=left;verticalAlign=middle;whiteSpace=wrap;rounded=0;points=[];fontSize=11;fontFamily=Helvetica;fontColor=default;labelBackgroundColor=none;spacingLeft=10;spacingBottom=0;" parent="BYSAL5fk7eXTEBKorPxe-55" vertex="1">
          <mxGeometry x="7.0710678118654755" y="2.0710678118654755" width="50" height="10" as="geometry" />
        </mxCell>
        <mxCell id="BYSAL5fk7eXTEBKorPxe-58" value="" style="group" parent="BYSAL5fk7eXTEBKorPxe-64" vertex="1" connectable="0">
          <mxGeometry y="53" width="57.071067811865476" height="14.142135623730951" as="geometry" />
        </mxCell>
        <mxCell id="BYSAL5fk7eXTEBKorPxe-59" value="" style="rounded=1;whiteSpace=wrap;html=1;points=[[1,1,0,0,0]];rotation=45;arcSize=25;absoluteArcSize=0;verticalAlign=middle;fontFamily=Helvetica;fontSize=11;fontColor=default;labelBackgroundColor=default;direction=south;aspect=fixed;strokeWidth=1.5;" parent="BYSAL5fk7eXTEBKorPxe-58" vertex="1">
          <mxGeometry x="2.0710678118654755" y="2.0710678118654755" width="10" height="10" as="geometry" />
        </mxCell>
        <mxCell id="BYSAL5fk7eXTEBKorPxe-60" value="&lt;font size=&quot;1&quot; face=&quot;monospace&quot;&gt;&lt;i style=&quot;&quot;&gt;i_data_a&lt;/i&gt;&lt;/font&gt;" style="text;html=1;align=left;verticalAlign=middle;whiteSpace=wrap;rounded=0;points=[];fontSize=11;fontFamily=Helvetica;fontColor=default;labelBackgroundColor=none;spacingLeft=10;spacingBottom=0;" parent="BYSAL5fk7eXTEBKorPxe-58" vertex="1">
          <mxGeometry x="7.0710678118654755" y="2.0710678118654755" width="50" height="10" as="geometry" />
        </mxCell>
        <mxCell id="BYSAL5fk7eXTEBKorPxe-61" value="" style="group" parent="BYSAL5fk7eXTEBKorPxe-64" vertex="1" connectable="0">
          <mxGeometry y="73" width="57.071067811865476" height="14.142135623730951" as="geometry" />
        </mxCell>
        <mxCell id="BYSAL5fk7eXTEBKorPxe-62" value="" style="rounded=1;whiteSpace=wrap;html=1;points=[[1,1,0,0,0]];rotation=45;arcSize=25;absoluteArcSize=0;verticalAlign=middle;fontFamily=Helvetica;fontSize=11;fontColor=default;labelBackgroundColor=default;direction=south;aspect=fixed;strokeWidth=1.5;" parent="BYSAL5fk7eXTEBKorPxe-61" vertex="1">
          <mxGeometry x="2.0710678118654755" y="2.0710678118654755" width="10" height="10" as="geometry" />
        </mxCell>
        <mxCell id="BYSAL5fk7eXTEBKorPxe-63" value="&lt;font size=&quot;1&quot; face=&quot;monospace&quot;&gt;&lt;i style=&quot;&quot;&gt;i_data_b&lt;/i&gt;&lt;/font&gt;" style="text;html=1;align=left;verticalAlign=middle;whiteSpace=wrap;rounded=0;points=[];fontSize=11;fontFamily=Helvetica;fontColor=default;labelBackgroundColor=none;spacingLeft=10;spacingBottom=0;" parent="BYSAL5fk7eXTEBKorPxe-61" vertex="1">
          <mxGeometry x="7.0710678118654755" y="2.0710678118654755" width="50" height="10" as="geometry" />
        </mxCell>
        <mxCell id="BYSAL5fk7eXTEBKorPxe-65" style="edgeStyle=orthogonalEdgeStyle;shape=connector;rounded=0;orthogonalLoop=1;jettySize=auto;html=1;exitX=1;exitY=0.5;exitDx=0;exitDy=0;exitPerimeter=0;entryX=0;entryY=0.5;entryDx=0;entryDy=0;entryPerimeter=0;strokeColor=#384770;align=center;verticalAlign=middle;fontFamily=Helvetica;fontSize=11;fontColor=default;labelBackgroundColor=default;startSize=1;endArrow=classic;endSize=1;strokeWidth=2;fillColor=#b1ddf0;" parent="akxVl1QOJM7sjqm9vT8Y-444" edge="1">
          <mxGeometry relative="1" as="geometry">
            <mxPoint y="60" as="sourcePoint" />
            <mxPoint x="55" y="60" as="targetPoint" />
          </mxGeometry>
        </mxCell>
        <mxCell id="BYSAL5fk7eXTEBKorPxe-66" style="edgeStyle=orthogonalEdgeStyle;shape=connector;rounded=0;orthogonalLoop=1;jettySize=auto;html=1;exitX=1;exitY=0.5;exitDx=0;exitDy=0;exitPerimeter=0;entryX=0;entryY=0.5;entryDx=0;entryDy=0;entryPerimeter=0;strokeColor=#384770;align=center;verticalAlign=middle;fontFamily=Helvetica;fontSize=11;fontColor=default;labelBackgroundColor=default;startSize=1;endArrow=classic;endSize=1;strokeWidth=2;fillColor=#b1ddf0;" parent="akxVl1QOJM7sjqm9vT8Y-444" edge="1">
          <mxGeometry relative="1" as="geometry">
            <mxPoint y="80" as="sourcePoint" />
            <mxPoint x="55" y="80" as="targetPoint" />
          </mxGeometry>
        </mxCell>
        <mxCell id="BYSAL5fk7eXTEBKorPxe-67" style="edgeStyle=orthogonalEdgeStyle;shape=connector;rounded=0;orthogonalLoop=1;jettySize=auto;html=1;exitX=1;exitY=0.5;exitDx=0;exitDy=0;exitPerimeter=0;entryX=0;entryY=0.5;entryDx=0;entryDy=0;entryPerimeter=0;strokeColor=default;align=center;verticalAlign=middle;fontFamily=Helvetica;fontSize=11;fontColor=default;labelBackgroundColor=default;startSize=1;endArrow=classic;endSize=1;" parent="akxVl1QOJM7sjqm9vT8Y-444" edge="1">
          <mxGeometry relative="1" as="geometry">
            <mxPoint y="20" as="sourcePoint" />
            <mxPoint x="55" y="20" as="targetPoint" />
          </mxGeometry>
        </mxCell>
        <mxCell id="BYSAL5fk7eXTEBKorPxe-68" style="edgeStyle=orthogonalEdgeStyle;shape=connector;rounded=0;orthogonalLoop=1;jettySize=auto;html=1;exitX=1;exitY=0.5;exitDx=0;exitDy=0;exitPerimeter=0;entryX=0;entryY=0.5;entryDx=0;entryDy=0;entryPerimeter=0;strokeColor=#038554;align=center;verticalAlign=middle;fontFamily=Helvetica;fontSize=11;fontColor=default;labelBackgroundColor=default;startSize=1;endArrow=classic;endSize=1;fillColor=#d5e8d4;" parent="akxVl1QOJM7sjqm9vT8Y-444" edge="1">
          <mxGeometry relative="1" as="geometry">
            <mxPoint y="40" as="sourcePoint" />
            <mxPoint x="55" y="40" as="targetPoint" />
          </mxGeometry>
        </mxCell>
        <mxCell id="BYSAL5fk7eXTEBKorPxe-71" value="&lt;div style=&quot;&quot;&gt;&lt;span style=&quot;font-size: 5px; background-color: initial;&quot;&gt;&amp;lt;WL_IN,IWL_IN&amp;gt;&lt;/span&gt;&lt;/div&gt;" style="text;html=1;align=left;verticalAlign=middle;whiteSpace=wrap;rounded=0;fontSize=11;fontStyle=2;points=[];fontFamily=monospace;fontColor=default;labelBackgroundColor=none;spacingTop=0;spacing=0;spacingBottom=5;" parent="akxVl1QOJM7sjqm9vT8Y-444" vertex="1">
          <mxGeometry y="81" width="45" height="10" as="geometry" />
        </mxCell>
        <mxCell id="BYSAL5fk7eXTEBKorPxe-72" value="&lt;font style=&quot;font-size: 5px;&quot;&gt;2xWL_IN&lt;/font&gt;" style="text;html=1;align=left;verticalAlign=middle;whiteSpace=wrap;rounded=0;fontSize=11;fontStyle=2;points=[];fontFamily=monospace;fontColor=default;labelBackgroundColor=none;spacingTop=0;spacing=0;spacingBottom=5;" parent="akxVl1QOJM7sjqm9vT8Y-444" vertex="1">
          <mxGeometry y="70" width="45" height="10" as="geometry" />
        </mxCell>
        <mxCell id="BYSAL5fk7eXTEBKorPxe-177" value="&lt;div style=&quot;&quot;&gt;&lt;span style=&quot;font-size: 5px; background-color: initial;&quot;&gt;&amp;lt;WL_IN,IWL_IN&amp;gt;&lt;/span&gt;&lt;/div&gt;" style="text;html=1;align=left;verticalAlign=middle;whiteSpace=wrap;rounded=0;fontSize=11;fontStyle=2;points=[];fontFamily=monospace;fontColor=default;labelBackgroundColor=none;spacingTop=0;spacing=0;spacingBottom=5;" parent="akxVl1QOJM7sjqm9vT8Y-444" vertex="1">
          <mxGeometry y="61" width="45" height="10" as="geometry" />
        </mxCell>
        <mxCell id="BYSAL5fk7eXTEBKorPxe-178" value="&lt;font style=&quot;font-size: 5px;&quot;&gt;2xWL_IN&lt;/font&gt;" style="text;html=1;align=left;verticalAlign=middle;whiteSpace=wrap;rounded=0;fontSize=11;fontStyle=2;points=[];fontFamily=monospace;fontColor=default;labelBackgroundColor=none;spacingTop=0;spacing=0;spacingBottom=5;" parent="akxVl1QOJM7sjqm9vT8Y-444" vertex="1">
          <mxGeometry y="50" width="45" height="10" as="geometry" />
        </mxCell>
        <mxCell id="akxVl1QOJM7sjqm9vT8Y-428" value="" style="endArrow=none;html=1;rounded=0;strokeColor=default;align=center;verticalAlign=middle;fontFamily=Helvetica;fontSize=11;fontColor=default;labelBackgroundColor=default;startSize=3;endSize=3;jumpStyle=none;strokeWidth=0.5;" parent="akxVl1QOJM7sjqm9vT8Y-444" edge="1">
          <mxGeometry width="50" height="50" relative="1" as="geometry">
            <mxPoint x="19" y="65" as="sourcePoint" />
            <mxPoint x="29" y="55" as="targetPoint" />
          </mxGeometry>
        </mxCell>
        <mxCell id="akxVl1QOJM7sjqm9vT8Y-429" value="" style="endArrow=none;html=1;rounded=0;strokeColor=default;align=center;verticalAlign=middle;fontFamily=Helvetica;fontSize=11;fontColor=default;labelBackgroundColor=default;startSize=3;endSize=3;jumpStyle=none;strokeWidth=0.5;" parent="akxVl1QOJM7sjqm9vT8Y-444" edge="1">
          <mxGeometry width="50" height="50" relative="1" as="geometry">
            <mxPoint x="19" y="85" as="sourcePoint" />
            <mxPoint x="29" y="75" as="targetPoint" />
          </mxGeometry>
        </mxCell>
        <mxCell id="1-M_9NGXBiTfHiVbcUes-48" value="" style="group" vertex="1" connectable="0" parent="1">
          <mxGeometry x="370" y="480" width="440.5" height="80" as="geometry" />
        </mxCell>
        <mxCell id="1-M_9NGXBiTfHiVbcUes-15" value="" style="shape=image;verticalLabelPosition=bottom;labelBackgroundColor=default;verticalAlign=top;aspect=fixed;imageAspect=0;image=data:image/png,iVBORw0KGgoAAAANSUhEUgAABLAAAASwCAYAAADrIbPPAAAACXBIWXMAAF2/AABdvwFEwjDnAAAAGXRFWHRTb2Z0d2FyZQB3d3cuaW5rc2NhcGUub3Jnm+48GgAAIABJREFUeJzs3Xe033Vh//HX3St73+xBBiQy1DKqCFhaXFXUH0grVn/aH23d2lato8621rauitW6cdQJKophKRsiIAEhAUIIScjeyc3d4/dHYgqiZJDk87n3Ph7n3JPrV+69r3su49zn+Xzen4rMPK8vAAAAAFBSlUUPAAAAAIAnI2ABAAAAUGoCFgAAAAClJmABAAAAUGoCFgAAAAClJmABAAAAUGoCFgAAAAClJmABAAAAUGoCFgAAAAClJmABAAAAUGoCFgAAAAClJmABAAAAUGoCFgAAAAClJmABAAAAUGoCFgAAAAClJmABAAAAUGoCFgAAAAClJmABAAAAUGoCFgAAAAClJmABAAAAUGoCFgAAAAClJmABAAAAUGoCFgAAAAClVn2kv0Df8u8e6S8BAAAAQIEqZp1/RD+/K7AAAAAAKDUBCwAAAIBSE7AAAAAAKDUBCwAAAIBSE7AAAAAAKDUBCwAAAIBSE7AAAAAAKDUBCwAAAIBSE7AAAAAAKDUBCwAAAIBSE7AAAAAAKDUBCwAAAIBSE7AAAAAAKDUBCwAAAIBSE7AAAAAAKDUBCwAAAIBSqy56wIFYtXZzFi1eVvQMAAAAgAHllBNnZ+rEMUXP2K9+EbBuvH1pLnz7fxY9AwAAAGBA+cbH35RXvuT0omfsl1sIAQAAACg1AQsAAACAUhOwAAAAACg1AQsAAACAUhOwAAAAACg1AQsAAACAUhOwAAAAACg1AQsAAACAUhOwAAAAACg1AQsAAACAUhOwAAAAACg1AQsAAACAUhOwAAAAACg1AQsAAACAUhOwAAAAACg1AQsAAACAUhOwAAAAACg1AQsAAACAUhOwAAAAACg1AQsAAACAUhOwAAAAACg1AQsAAACAUhOwAAAAACg1AQsAAACAUhOwAAAAACg1AQsAAACAUhOwAAAAACg1AQsAAACAUhOwAAAAACg1AQsAAACAUhOwAAAAACg1AQsAAACAUhOwAAAAACg1AQsAAACAUhOwAAAAACg1AQsAAACAUhOwAAAAACg1AQsAAACAUhOwAAAAACg1AQsAAACAUhOwAAAAACg1AQsAAACAUhOwAAAAACg1AQsAAACAUhOwAAAAACg1AQsAAACAUhOwAAAAACg1AQsAAACAUhOwAAAAACg1AQsAAACAUhOwAAAAACg1AQsAAACAUhOwAAAAACg1AQsAAACAUhOwAAAAACg1AQsAAACAUhOwAAAAACg1AQsAAACAUhOwAAAAACg1AQsAAACAUhOwAAAAACg1AQsAAACAUhOwAAAAACg1AQsAAACAUhOwAAAAACg1AQsAAACAUhOwAAAAACg1AQsAAACAUhOwAAAAACg1AQsAAACAUhOwAAAAACg1AQsAAACAUhOwAAAAACg1AQsAAACAUhOwAAAAACg1AQsAAACAUhOwAAAAACg1AQsAAACAUhOwAAAAACg1AQsAAACAUhOwAAAAACg1AQsAAACAUhOwAAAAACg1AQsAAACAUhOwAAAAACg1AQsAAACAUhOwAAAAACg1AQsAAACAUhOwAAAAACg1AQsAAACAUhOwAAAAACg1AQsAAACAUhOwAAAAACi16qIHQBmNHN6UioqKdHZ2p6W1veg5AAAAMKgJWAwqE8ePzNwZEzNnxsTMnTkx82ZNzLjRwzNyeFOGNNanqaE+TY11T/i47Tt3Z3dbR3a3dmTr9paseHRjHnh4bR5csTbLHlmfB1eszc6WtkK+JwAAABjoBCwGrIb62px20pycddr8nHXqghw/b2qGNjUc0ucaMawpI4Y17fvfp540+wl/zdoN23LjHUtz3W335bpFS3L/8jVPaT8AAACwh4DFgPLMp83KC848KWedNj+nnjgn9XU1R+1rTxw/Mq944R/mFS/8wyTJ+k3bc92i+3LNzb/OpVcuyrYdu4/aFgAAABhIBCz6vUnjR+X/PP/UvOblZ+bE46YXPWefCWNH5IIXPSsXvOhZufiDr8vVN92T711xW76/8La0tnUUPQ8AAAD6DQGLfqmhvjbnPf+0/MXLnpOzTl2QysqKoic9qbramrzouc/Ii577jHzqH1+THyxclC9859osWrys6GkAAABQegIW/crQpob8zSv/JG9/3YsyfszwoucckhHDmvK685+b153/3Fy36L78y3/9MFfdeHfRswAAAKC0BCz6hWFD9oSrd1z0kowaMaToOYfNmafMz5mnzM/dS1fm41/6Sb754xvT09Nb9CwAAAAolcqiB8CTaWqsyz/97Z9lza2fz0ff8coBFa8e64Rjp+Vr//6G3Puz/8gLzjyp6DkAAABQKgIWpfWnf/SM3Puzj+fdr39phjTWFz3nqJg3a1J++qV/yOVfeGdmTBlX9BwAAAAoBQGL0pk5ZXx+8sV35cf//c5Mnzy26DmFeNFzn5H7Fn48H3jLeamvqyl6DgAAABRKwKI0qqoq8543vCz3LvyPvPCspxc9p3AN9bV5/5vPy70LP55nP3Ne0XMAAACgMAIWpdA8bmSuvuR9+cjbL0hDfW3Rc0pl1tTx+cW33p/3vOFlqaysKHoOAAAAHHUCFoX742cfn8U/+VjOOnV+0VNKq7qqKh95+wW58qvvzYSxI4qeAwAAAEeVgEVhqqoq84G3nJefffndGTd6eNFz+oWzn/W03HPFv+f5Z3hSIQAAAIOHgEUhhjTW54ov/UPe/+bzUlXlb8ODMXbUsPzki+/KG151TtFTAAAA4KhQDjjqxowcmp9/8/35k9NPKHpKv1VZWZHPfOB1+fDbX5GKCudiAQAAMLAJWBxV0yaNzU3f/XD+4PhZRU8ZEN77hpfnKx97faqrqoqeAgAAAEeMgMVRs2DOlNz8vQ9n7syJRU8ZUF79sjPy/c++3dMbAQAAGLAELI6KBXOm5Pr/+WAmjR9V9JQB6SVn/0Eu/8I7U1dbU/QUAAAAOOwELI64yRNG54ovvzujRgwpesqA9kd/+LR85z/f6lB8AAAABhy/6XJEjRk5NNd8/X2Z0jy66CmDwkvO/oN86n3/t+gZAAAAcFgJWBwxjQ11+fEX3unMq6PsDa86J+9748uLngEAAACHjYDFEVFVVZlLP/t3Oe2kOUVPGZQ+9LZX5C9f8UdFzwAAAIDDQsDiiPjAW87LOc85oegZg9rFH3xdnvm0WUXPAAAAgKdMwOKwO+vU+fmHv35p0TMGvdqa6nz702/N8KGNRU8BAACAp0TA4rAaP2Z4vvmJN3sSXknMmjo+X/jnvyp6BgAAADwlKgOHTVVVZf7nU29N87iRRU/hMc57wWm56IKzi54BAAAAh0zA4rB511+fm7NOnV/0DH6HT77vNZk/e0rRMwAAAOCQCFgcFtMmjc27/8a5V2XVUF+bz33k/6WioqLoKQAAAHDQBCwOi8984LVpbKgregZP4tnPnJdXvuTZRc8AAACAgyZg8ZS99E9Ozoue+4yiZ3AA/u1dr8qwIQ1FzwAAAICDImDxlDQ21OXj73l10TM4QBPGjsgH3nJ+0TMAAADgoAhYPCXvef3LMn3y2KJncBDe9OrnZcEcB7oDAADQfwhYHLJRI4bkTa9+XtEzOEjVVVX54FtdhQUAAED/IWBxyN786udnaJPzlPqjc//45Bx7zKSiZwAAAMABEbA4JEMa6/PGv3D1VX9VWVmRd/7VuUXPAAAAgAMiYHFI3vCqczJ6xNCiZ/AU/PmLn51pk5xfBgAAQPkJWBy0+rqavOU1Lyh6Bk9RTXVV/vYvX1T0DAAAANgvAYuD9ooX/mGax40segaHwevOe25GDm8qegYAAAA8KQGLg/aqlz6n6AkcJo0Ndfk/zz+16BkAAADwpAQsDsqk8aNy5inzi57BYfTKF59e9AQAAAB4UgIWB+UvXnZGqqr8bTOQPOfkYzN9ssPcAQAAKC8lgoNy4bmu1hloKioqcsGLnlX0DAAAAPi9BCwO2DMWzMxxx0wuegZHwCtfIkwCAABQXgIWB+wFZ55U9ASOkAVzpmTOjOaiZwAAAMDvJGBxwM46bUHREziCHM4PAABAWQlYHJD6upqcdtKcomdwBJ11moAFAABAOQlYHJA/fPrc1NfVFD2DI+jMU+anoqKi6BkAAADwBAIWB8TVOQPfhLEjMnfmxKJnAAAAwBMIWByQs051/tVgcNapQiUAAADlI2CxXxUVFTl+3tSiZ3AUnHzCMUVPAAAAgCcQsNiv5nEjMrSpoegZHAWzpzcXPQEAAACeQMBiv+bOcC7SYDFnhoAFAABA+QhY7JeDvQePsaOGZdSIIUXPAAAAgMcRsNgvAWtwcRshAAAAZSNgsV9z3EI4qLiNEAAAgLIRsNiv5nEjip7AUTSleXTREwAAAOBxBCz2yxMIBxc/bwAAAMpGwGK/hg0RNAaTIY31RU8AAACAxxGw2C9X5AwuQwVLAAAASkbA4klVVVWmob626BkcRUObXIEFAABAuQhYPCm3kw0+rrgDAACgbAQsnlR9XU3REzjK/MwBAAAoGwGLJ9XS2l70BI4yP3MAAADKRsDiSbW2daa3t6/oGRxFu1oELAAAAMpFwOJJ9fX1ZXeboDGY7NrdVvQEAAAAeBwBi/1yRc7gImABAABQNgIW+yVoDC67dguWAAAAlIuAxX5t37m76AkcRX7eAAAAlI2AxX4tX7Wh6AkcRctX+nkDAABQLgIW+7XskXVFT+AoevCRtUVPAAAAgMcRsNivB1cIWINFT09vHl61segZAAAA8DgCFvslYA0eK9duSkdnV9EzAAAA4HEELPbLLYSDxwMPu30QAACA8hGw2K8du1qzdsO2omdwFAhYAAAAlJGAxQG56Y77i57AUXDj7X7OAAAAlI+AxQG5btF9RU/gCOvr68sNv1xS9AwAAAB4AgGLAyJgDXy/fmBVNm/bVfQMAAAAeAIBiwOy9KE1zsEa4H5xm0gJAABAOQlYHLAbbnd72UB2nYAFAABASQlYHLBrbv510RM4Qrq6e3LD7UuLngEAAAC/k4DFAbv0ykXp6OwqegZHwFU33p2t21uKngEAAAC/k4DFAdu2Y3d+dv3iomdwBHzjhzcWPQEAAAB+LwGLg/LNHwkdA83u1o5c/vM7ip4BAAAAv5eAxUH5yc/vzPadu4uewWH0gytvy+7WjqJnAAAAwO8lYHFQ2ju68oOFi4qewWH0zR/dVPQEAAAAeFICFgftC9+5tugJHCYrVm/Mtbd4uiQAAADlJmBx0BYtXpbrFt1X9AwOg3/7wo/T09Nb9AwAAAB4UgIWh+Sjn/th0RN4ijZs3pGv/uC6omcAAADAfglYHJIrb7g7d977cNEzeAo+8eWfpK29s+gZAAAAsF8CFofsXz//o6IncIh27GrNf33zqqJnAAAAwAERsDhkl165KA88vLboGRyCz1yyMDtb2oqeAQAAAAdEwOKQ9fT05s0f+krRMzhI6zdtz7994cdFzwAAAIADJmDxlFx149358TV3FD2Dg/C3/3xJduxqLXoGAAAAHDABi6fsrR/5qsPA+4nrFy3J/1x+c9EzAAAA4KAIWDxlK1ZvdKB7P9Dd05O3fPgr6evrK3oKAAAAHBQBi8PiXz//wyxftaHoGTyJz1yyMHcvXVn0DAAAADhoAhaHRXtHVy58+6fT1d1T9BR+h2WPrMs/fuK7Rc8AAACAQyJgcdjcdteyfOjT3y96Br+lvaMr57/pE9m1u63oKQAAAHBIBCwOq3/+r0tz9U33FD2Dx3jrh7+axUseKXoGAAAAHDIBi8Oqt7cvF779P7Nu47aip5Dk+z+7LZ//n6uLngEAAABPiYDFYbdxy468+u8vTm+vp90V6eHVG/KX//C5omcAAADAUyZgcURcfdM9ecuHv1L0jEFry/ZdedFffjQ7drUWPQUAAACeMgGLI+YzlyzMRy7+QdEzBp229s685KKPZelDa4qeAgAAAIeFgMUR9Y+f+G6++J1ri54xaHT39OS8N348N9/5QNFTAAAA4LARsDii+vr68tfv+0J+sHBR0VMGvL6+vvzVe/47P/3Fr4qeAgAAAIeVgMUR19PTm1f97X/m2lt+XfSUAauvry9/9y9fz5e/94uipwAAAMBhJ2BxVLS1d+YFr/2XfOentxQ9ZcDp6enNX733v/PxL/2k6CkAAABwRFQXPYDBo7OrO3/+1k9l89ZdecOrzil6zoDQ2taRV7z5k/nJz+8segoAAAAcMa7A4qjq7e3LGz/wpbzrY99MX19f0XP6tW07duec1/yTeAUAAMCAJ2BRiH/9/I9y0Xv+O51d3UVP6ZceXr0hzzr/vbnpjvuLngIAAABHnIBFYb74nWvzrPPel+WrNhQ9pV/53hW35ul/+s4sfWhN0VMAAADgqBCwKNQdv16ep//pOxzufgDaO7ryN+/7Qs5/0yeyY1dr0XMAAADgqBGwKNzOlrZc8OZP5tV/d3F2t3YUPaeUHnh4bU59+bvzuW9dXfQUAAAAOOoELErjksuuzykve3duvH1p0VNKo7unJ5/8yk/zzJe8K3cvXVn0HAAAACiEgEWp3LdsdZ5zwfvz4ov+NavXbSl6TqFu+OXSPOPF78rbPvK1tLS2Fz0HAAAACiNgUUqXX3tnjv2Tt+aDn/7eoHtS4bqN2/Lqv7s4Z/75B3LP/a66AgAAAAGL0trd2pEPfOp7ecaL35nLrvplenv7ip50RG3fuTv/dPGlmXv2W3PJZdenr29gf78AAABwoKqLHgD7c++Dq/Oyv/n3HHfM5Lzjr16SP3/xs1NTXVX0rMNmw+Yd+eRXfprPfuPK7GxpK3oOAAAAlI4rsOg3ljz0aF7z9xdn9nPfnE9/7WdpbevfTyxcuWZT3vrhr2bmmW/MRz/3Q/EKAAAAfg9XYNHvrFyzKW/50Ffy/k9+Ny/+o2fmVS99Tp572oJUVlYUPW2/2to785Of35mv//CGLLx+cbq6e4qeBAAAAKUnYNFvbd+5O5dcdn0uuez6TJ4wOi9/3in5i5edkafPn1H0tMfp6enNL267L1+/7IZceuUiTxQEAACAgyRgMSA8un5LPvXVK/Kpr16ROTOac9apC3LmqcflzFPmZ8LYEUd1S19fX379wKpct2hJfnHrvbn+l0uybcfuo7oBAAAABhIBiwHnwRXr8uCKdfn8/1ydJDn2mEk585T5+YPjZ2XOjImZM6M5Y0cNOyxfq6enNyvXbsqyFeuzdPmjuemO+3P9oiXZvG3XYfn8AAAAgIDFILD0oTVZ+tCa/Nc3//e1kcObMnt6c+bMaM7kCaMzYlhThjbVp6mxPkMa6zN8aGNqqqvS1tGZXS1t2bGrNS2t7dnd2pGtO1qyYvXGPPDw2ixftSEdnV1FfnsAAAAw4AlYDErbduzOL+9+KL+8+6GipwAAAAD7UVn0AAAAAAB4MgIWAAAAAKUmYAEAAABQagIWAAAAAKUmYAEAAABQagIWAAAAAKUmYAEAAABQagIWAAAAAKUmYAEAAABQagIWAAAAAKUmYAEAAABQagIWAAAAAKUmYAEAAABQagIWAAAAAKUmYAEAAABQagIWAAAAAKUmYAEAAABQagIWAAAAAKUmYAEAAABQagIWAAAAAKUmYAEAAABQagIWAAAAAKUmYAEAAABQagIWAAAAAKUmYAEAAABQagIWAAAAAKUmYAEAAABQagIWAAAAAKUmYAEAAABQagIWAAAAAKUmYAEAAABQagIWAAAAAKUmYAEAAABQagIWAAAAAKUmYAEAAABQagIWAAAAAKUmYAEAAABQagIWAAAAAKUmYAEAAABQagIWAAAAAKUmYAEAAABQagIWAAAAAKUmYAEAAABQagIWAAAAAKUmYAEAAABQagIWAAAAAKUmYAEAAABQagIWAAAAAKUmYAEAAABQagIWAAAAAKUmYAEAAABQagIWAAAAAKUmYAEAAABQagIWAAAAAKUmYAEAAABQagIWAAAAAKUmYAEAAABQagIWAAAAAKUmYAEAAABQagIWAAAAAKUmYAEAAABQagIWAAAAAKUmYAEAAABQagIWAAAAAKUmYAEAAABQagIWAAAAAKUmYAEAAABQagIWAAAAAKUmYAEAAABQagIWAAAAAKUmYAEAAABQagIWAAAAAKUmYAEAAABQagIWAAAAAKUmYAEAAABQagIWAAAAAKUmYAEAAABQagIWAAAAAKUmYAEAAABQagIWAAAAAKUmYAEAAABQagIWAAAAAKUmYAEAAABQagIWAAAAAKUmYAEAAABQagIWAAAAAKUmYAEAAABQagIWAAAAAKUmYAEAAABQagIWAAAAAKUmYAEAAABQagIWAAAAAKUmYAEAAABQagIWAAAAAKUmYAEAAABQagIWAAAAAKUmYAEAAABQagIWAAAAAKUmYAEAAABQagIWAAAAAKUmYAEAAABQagIWAAAAAKUmYAEAAABQagIWAAAAAKUmYAEAAABQagIWAAAAAKUmYAEAAABQagIWAAAAAKVWXfQABo9J40dl+NDGjB09PONGD8uwIQ0ZPWJIkqSutjYjhzclSSorKzJ6xNB9HzdqxJBUVBzY19i1uz2dnd17329Le0dXkmRnS2ta2zr2vt+Wlt3t2bB5R9o6OrNmw9bsamnL5m27Dve3DAAAABwGAhYHZMzIoZk1dXymTByTieNHpXnsiIwbPTxjRg3NqOFDMnxoY4Y2NaSpsS4NdbWprq5KVVVlqqoqU3mg9akE+pKkry/dPb3p7e1NV3dPOjq709bWkdb2juxu7UhLa3t2trRl247d2bJ9VzZu2ZF1G7dl1dotWbVmc5av3pDe3t6ivxUAAAAYMASsQWzapLGZP3tyZkwZnxlTxmXqxDEZP3pYxo4enpHDmtLUWJf6utrUVFcVPfWoqUiSioq933NV6mprMqQxyd4rxQ5U394I1tnZnfaOzuxu68jOlrbs2Lk7W3a0ZPPWXdmwaXvWbNyWNRu2ZOWazXnk0Y3ZtmP3kfrWAAAAoN8SsAaoBXOm5Ph503LsrEmZM2NiJk8YlQljR2TkiCFpaqhLbY0f/ZFUsTeC1VRXpamxLqNHDj2Aj9qjp6c3nV3daevoTMvu9mzf2ZptO1qyaevOrN+0PY9u2JpHHt2YR1ZvzLKV67N1e8sR/V4AAACgaCpGP1RbW51nPm1WTj7+mDxt7tQcM31CJo8fldEjh6axoW5QXTE1EFVVVaahqjYN9bUZNXxIpk7c/8f8Jnq1tnVk1+727GhpzbbtLdm4dWc2bNqeVeu2ZOWaTVm1ZlOWr9rgvC8AAAD6FQGrpI6fNzUnn3BMTpg3PXNnTszUiWMydvSwDG1qEKh4gsdGrwO92quntzddXd1p7+jad4vjtu0t2bKjJRs37znXa82GrVm1dnMeeXRTHlq1ft8B+QAAAHA0CVgFGjViSP742cfn1BNn52lzp2XW1PEZO3pYGuvrDvipe3CoqiorU1VXm/q62owY1pRJ4/f/Mf97tldXWtv33OK4s6UtW7fvyoYtO3LnvSvyo6tuz7KV647GtwAAAMAgIWAdBTOmjMvzzzgpp500J8dMn5AZk8dl1IghrqSi33n82V71GTtq2OP+/wte9Kz827suTG9vb7bvbM3qdVuy6O5lueIXd+WK63+Vrq6ewrYDAADQfwlYh0l1dWXOOmVBzjnjxDxzwczMmDIuY0cNS0N9bdHT4KirrKzMqBFDMmrEkJxw7LRcdMHZ6UvSsrs9q9ZuyuIlj+QXt92XH19zRzZt3Vn0XAAAAEpOwDoEkyeMyovP/oOcdtKcPG3u1MyYMi5DhzTEXX/w+1UkGdpUn/mzp2T+7Cl55UtOT/4l6e3tzaatu3L/8jW58falueaWe3P9ovuKngsAAECJCFhPor62Nn/07AX542cdn5OPPyYzp47P6JFDU11VWfQ0GDAqKyszfszwjB8zPGecclze+8aXp7e3L9t37s7DqzbkV0tW5Be33pef/PzOtLS2Fz0XAACAAghYe40fMyIvf94pOfsPn5YFc6dk0vhRaWyoK3oWDEqVlRX7bkF85vGzctEFZydJ2ju6sn7TtixdviY33/lArrjurtx134qi5wIAAHCEDcqANWbk0Lz8eafm7Gc9LSfNn5HJE0alrram6FkDXndXV7q7u9LR3pburq70dO15P0l6e3vS2dGx96/s2/d6knS2t6evr++AvkZtXX0qKvfczFlTW5fKyqq979emqqp63/uVVVWpa2hMZWVVamtrU11Tm6rqQfmPQ79SX1eT6ZPHZfrkPQ9G+MjbL0hfX1+27dydRx7dlLvuW5Ff3HZvfvLzX2XHrtai5wIAAHCYDPjf2EcMa8zLzjk15zznhJx03PRMaR6T+jqx6mD19fWlbXdLOtpa097elo621nS0taW9vXXf+x17X29va0tXZ3s62trS3d2V7seEqrKrra9PVWVVauvqU1NXn9q6utTU1qW2rj519Q2prd/zWm1tfWrq6lLf0Ji6hsbUNzSkrqEp9Q2Nqal1cP/RVFFRkVHDh2TU8CF5+vwZed35z02SdHR2ZcPmHVn60KO59a4Hc8V1i3P7PQ8VPRcAAIBDMKAC1pDG+rz8eafknNNPyDOeNjNTmsd4CuCT6O3tTWvLzrS27Epry6607W7Z937r7l2Pe71td8sBXwXVn3W27zljqa119yF/jqrq6tTVN6a+sXFv4GpI/d649bver2tsTH19Q+obGpMKjwI4XOpqazJ14phMnTgm5zznxHzgLeent68v23bszkMr1+WXix/KwhsW56qb7k53d2/RcwEAAHgS/TpgnTR/Rl72Jyfn7Gcfn+OOmZxhQxqKnlQaPT09aW/dnd27dmTH1i1p3bUzLbt27Ptz59Yt2bVjW3p7/eJ+uPV0d+8NgzsP+mOra2r2xK+GhjQOHZYhQ4en7jexq37Pn01Dh6dp6LDUNTSmobEplVVVR+T7GIgqKyoyesSQjB4xO6ecMDtvevXzk73u5aLAAAAgAElEQVRXa61ZvzV3L12Za275db79k5uzdXtL0XMBAADYq98ErPFjRuTP/vRZed5zTsgJx07PuNHDU1k5eK9W6enuzs7tW7Nz25bs3LY1O7Ztya7tW7Nz29a07Nye3S27kkFwxdRA093Vle6uHdm9a0e2bFy//w+oqEhDQ2PqG5tS39iUhr1/1jc2pbFpyONe/03w2nP2lydpPlZdbU1mTh2fmVPH56XnnJyLP/i6tLV3Zs2Grfn1/avyi0X35rIrf5lH128teioAAMCgVJGZ5x3RytG3/LtP+XP09vYNvljV15ddO3dk57bN+wLVzm2/CVZb0rJrp0DFIautr09D45C9tzk27fmzcc+tjfWNTWnYe2tjQ0NT6puaUt/QlNo6T+Xs6u7Jhs3bs2TZmtx4x9J89ye35MFH1hU9CwAA4JB94+NvyitfcvpT/jwVs84/LHt+n35xBdZAjlddnR3Ztnljtm/elK2bN2T75o3ZtnlTtm/ZmK7OzqLnMUB1trens709Ow7igqLKqqrUNzSlobHxcVdz1Tc2ZdiIURk9vjljJ0xKbX39kZxeqJrqqkyeMDqTJ4zOn5x+fD78tlekq7sn6zZuy+Klj+TKG+7O9392azZuOfjbRwEAAPj9+kXA6u/6+vqya/vWbNu88XFv2zdvSsvO7UXPgwPS29NzQGd7DRs5OmObJ2XMhIkZM2FSxk6YmGEjRx+1nUdbTXXVvsPiX/xHz8zFH3xd2js6s3LN5tx+z0P58TV35EfX3pHOzu6ipwIAAPRbAtbh1NeXHdu3ZvP6tdmyfm02b1i7J1Rt2ZSebr+8Mjj85jbX5Uvu2fdaXX1DxkyYlDHNEzN2wqSMmTApo8dNSFX1wPxXUH1dbebOnJi5MyfmwnOfk76+ZOuOXfn1/auy8Ma7c8ml12fdxm1FzwQAAOg3+sUZWGXU2dGeLRvWZfP6tdm0fk22bFiXLRvWprOjo+hp0C9UVlVl5Jhxe4PWxIxtnpwxzZPS0NhU9LSjor2jKyvXbMrNd9yf7/z01lx1091FTwIAAAYhZ2ANEH29vdmxdUs2rV+TzRvW7otWO7dtKXoa9Gu9PT17w++65DHtZsiw4Rk9fuKeqDVhUkaPb87IseMH3JMT6+tq9l2l9drzn5ue3t6sfHRTrlu0JF+79Lrc8MulRU8EAAAoDQHrMXp7erJ5w9psXLs6G9eszqZ1a7Jl4/p0dzlMHY6Wlp070rJzR1Yu+9+AU1VVlVHjmjNmwsR9h8WPmTAxDU1DCt16OFVVVmbm1PGZOXV8XnveWenu7smKRzfmF7fely9+9+e5/Z6Hip4IAABQmEEbsHp7e7Nlw7p9sWrj2tXZvH5Nenp6ip4G/Jaenp5sWvdoNq179HGvNw4Ztvew+L1v45szauyEVFZVFbb1cKmursrs6c2ZPb05F/3Z2enq7snyletzzc2/zpe+9/MsXvJI0RMBAACOmkERsPp6e7N104ZsXLs6G9asysa1j2bTujXp6e4qehrwFLS27Myqh3Zm1UP373utsqoqo8aOz5jx/xu2xjZP7vdXa9VUV2XerEmZN2tS3vgXz0tHZ3eWPbIuV990T/7729fk/uVrip4IAABwxAy8gNXXl22bN2bDmlXZ8JhbAd0GCINDb09PNq9fm83r1z7hbK2xzZP3vk3K2OZJGTZydJFTn5K62uosmDMlC+ZMydte+8K0d3TlgYfXZuH1d+Xz374mK1ZvLHoiAADAYdPvA1ZHW2vWP7pyz9vqPX92tLUWPQsomd+crbXigfv2vVZX37AnaE2clLETJmVs8+R+e2B8fV1NTjh2Wk44dlre+dfnZtfu9tz56+X51o9vztcuuy6dnd1FTwQAADhk/Spg9fX2Ztvmjdm4dnXWrlyRdaseztZNG9LX11f0NKAf6mhvy6MrluXRFcv2vVZZVZWRo8dm3MQpe94mTcmYCZNSU1tb6NaDNbSpPmeeOj9nnjo/n/+n/5f1m7bn2lt+nc9+86rc+qsHi54HAABwUPpFwFr/6MrcfOXl2bh2dbo6O4qeAwxgvT092bJxfbZsXJ+li29PklRUVmbkmHEZ2zwp4yZOyYTJ0zK2eVKqa/pH1KqoqEjzuJG58Nzn5MJzn5POru4sWfZoLr3yl/mvb16Zzdt2FT0RAADgSfWLgLVjy+asecQj5IFi9PX2ZuvG9dm6cX0euPvOJEllZWVGjWvOhMlTM37ytIyfNCWjxjX3i9sPa2uqc+Jx03PicdPzobedn607WnLrrx7M1y69Pj9YuCi9vb1FTwQAAHicfhGwAMqmt7c3m9evyeb1a3LvHbcmSaprajNu4uSMnzQ1E6ZMz8RpM9I0dHjRU/dr1PAheeFZT88Lz3p6ent7s2L1piy8YXE+8/WFnm4IAACUgoAFcJh0d3Vm7cqHs3blw/teGzpiVCZOnZEJU6dn4tQZGTN+YipKfJVWZWVlZk0bnze86py84VXnpLWtI3cvXZlv//SWfPHb16S13RNdAQCAo0/AAjiCdm3fmge2b80D9+y59bCmti4TJk9L87QZmTh1Rpqnziz1AfGNDXU57elzctrT5+ST731N1m7cmmtuuief+trPctd9K4qeBwAADBICFsBR1NXZkdUPP5jVD+95EmBFZWXGTpiUKbPmZOqsuWmeOiPVNTVFz/ydKiqSSeNH5dUvPzOvfvmZ6ejsyl1LHsllVy7KZy5Z6OosAADgiBGwAArU19ubjWtXZ+Pa1bnzxmtTWVmZMY8JWhOnzUhVdTmDVl1tTU49cXZOPXF2PvqOV2bN+q25btGS/MeXLs/iJY8UPQ8AABhABCyAEun9raBVXVOTcROnpHnqjL1Ba2aqqsv3r+6KiopMbh6dC889PReee3pa2zpyzwOr8vXLbsh/f/vqdHd7siEAAHDoyvdbEAD7dHd17TsYfk/Qqk3z1OmZOG1mJk6dmUnTZ6WyqqromU/Q2FC37+qs//zAa7N2/dZccf1d+efPXpaVazYVPQ8AAOhnBCyAfqS7qzOrlz+Y1cv3nKFVW1+fSdNnZerMuZk6e15GjhlX9MQnqNx7ddZFF5ydiy44O9t37s4tv3owX/jONfnhVbcXPQ8AAOgHBCyAfqyzvT0r7r8vK+6/L0kydMSoTDtmbqYeMy9TZs1JXX1D0ROfYMSwprzgzJPygjNPSndPbx5csTaXXfXLfPqrV2Tjlp1FzwMAAEpIwAIYQHZt35p777g1995x6xOecFjG2w2rqypz3DGTc9wxk/Oe178sW7e3ZNHdy/LJr1yRq268u+h5AABASQhYAAPUbz/hsKa2LpNnHpMZc+dn2jHzMnTEqKInPsGoEUPy/DNOyvPPOCld3T1ZsuzRfOvHN+bTX12Y9s7OoucBAAAFEbAABomuzo7H3W44fOToTJk1N1Nmzcm02cemtq6u6ImPU1NdlROOnZYTjp2Wj77jlVnjIHgAABi0BCyAQWrHti3ZccctufeOW1JZWZkJU6Znxtz5mTJrTsY1T04qKoqeuE/Fbx0Ev7OlLTffeX8u/saV+enPf1X0PAAA4AgTsABIb29v1q58OGtXPpwkaRo6LFOPmZdps4/NtGPmpq6hseiJjzNsSMO+Ww07Ortz9/2P5Bs/vCFf+J+fu9UQAAAGIAELgCfYvWtnlt71yyy965f7DoOfMW9+ZsydX7qrs+pqq3Py8cfk5OOPyafe93+zZv3WXLdoSf718z/MvQ+uLnoeAABwGAhYADypxx4Gv+jnC9PQNCTTZx+b6XsPg6+try964j6/udXwwnNPz4Xnnp7Wto7cfs/yfPE71+YbP7qx6HkAAMAhErAAOChtu1uydPHtWbr49lRVVWXi9FmZPvu4TJ9zbEaOHV/0vMdpbKjLGacclzNOOS5f/tjrc+8Dq/L1H96Q//rG1W41BACAfkTAAuCQ9fT0ZPXyB7N6+YO5ceEPM2zk6Ewt6ZMNa6qrctL8GTlp/oz8x7v/wlMNAQCgHxGwADhsdm7bknv3PtmwuqYmzVNnZOqsuZk5b0Gprs76fU81/ORXrshVN95d9DwAAOC3CFgAHBHdXV37rs66+arLM3zk6EyZNTcz5s3P1FlzU1Vdnv8EPf6phl25a8kj+fplN+Rz37o6vb29Rc8DAIBBrzy/PQAwoO3YtiU79l6dVVtXlymz5mb6nOMyY+5xaRwyrOh5+9TV1uTUE2fn1BNn59Pv/7954OG1+fblt+Q/L7ki23e2Fj0PAAAGJQELgKOus6Mjy5fck+VL7kmSjB43IdPnzs/MeQvSPGV6UlFR9MQkSVVlZY47ZnI+9Lbz86G3nZ8Nm3fk6pvuyX986fIsXvJI0fMAAGDQELAAKNyWjeuzZeP63HnjtWloGpLps4/N9LnzS3cQ/Pgxw3PhuafnwnNPT2tbR26/Z3m++J1r840f3Vj0NAAAGNAELABKpW13S5Yuvj1LF9+equqaTJw2IzPnLsjM447P0OEjip63T2NDXc445bicccpx+fLHXp8lyx7Nt358Yz5zycK0tncWPQ8AAAYUAQuA0urp/t+D4K+/4tLH3Wo4Ycr0VJTkVsOa6qqccOy0nHDstHz0Ha/MmvVbc8X1d+VDn/5+1mzYWvQ8AADo9wQsAPqNx91q2NiUyTNnZ8bc+Zl57NNSW1df9LwkSUVFRSY3j85FF5ydiy44O1u3t+T6RUvyL5/7YW6/56Gi5wEAQL8kYAHQL7W17s6yexdn2b2LU1lZmQlTpu+LWSPHjCt63j6jRgzJS885OS895+R0dHblriWP5OuX3ZDPfevq9Pb2Fj0PAAD6BQELgH6vt7c3a1c+nLUrH87NV12e0eObM2Pu/MyYOz8TJk9LRWVl0ROTJHW1NTn1xNk59cTZ+dQ/viZLlq3Jty6/KRdfsjAtre1FzwMAgNISsAAYcLZsWJctG9bljhuuSX1jU6aU8FbD6qqqHD9vao6f9+f56N//eTZs3pGrb7on//r5H+beB1cXPQ8AAEpFwAJgQGt/zK2Gj32q4az5x2fIsPI81XD8mOG58NzTc+G5p2dnS1tuvvP+fOaShbniuruKngYAAIUTsAAYNJ7sqYbNU6YnJXmq4bAhDXn+GSfl+WeclK7unixZ9mi+9eMb8+mvLkx7Z2fR8wAA4KgTsAAYtB77VMNhI0ZlxrwFmTlvQSZNn5XKqqqi5yVJaqqrcsKx03LCsdPyL3//yix7ZF2+d8Wt+cRXfpqt21uKngcAAEeFgAUASXZu35q7b7shd992Q2pqazN55uzMnn9iZsydn7qGxqLnJUkqKysyd+bEvPeNL8973/jybN3ekusXLcmHPvP9LF7ySNHzAADgiBGwAOC3dHV2ZsX992XF/felorIyzVOm7zkEft6CjBw7vuh5+4waMSQvPefkvPSck9Pa1pHb71mei7++MN/72W1FTwMAgMNKwAKAJ9HX25u1Kx/O2pUP5+arLs/wkaMzY96CzF5wYiZMmZ6Kkpyb1dhQlzNOOS5nnHKcc7MAABhwBCwAOAg7tm3J4luvz+Jbr09DY1Omzzku0+fOz/Q5x6amtq7oeclvnZv10Xe8MitWb8yPrrkj//aFH2fdxm1FzwMAgIMmYAHAIWpr3Z2li2/P0sW3p7qmJs1TZ2Tm3AU5ZsEJaRo6vOh5SZKKiorMnDo+b3vtC/O2175w37lZH774B7nrvhVFzwMAgAMiYAHAYdDd1ZXVyx/M6uUP5oafXZaxzZMzY978zJg7P+MmTil63j6/69ysL37n2nzjRzcWPQ0AAH4vAQsADrO+vr5sXLs6G9euzqKfL8ywEaMy9Zh5mTFvfqYeMy9VVVVFT0x+69ysr3zs9blv77lZn7lkYVrbnZsFAEB5CFgAcITt3L41995xS+6945bUNTRm6qw5e59q+LTU1tcXPS9JUv1b52atWb81V1x/Vz706e9nzYatRc8DAGCQE7AA4CjqaGvNsnsXZ9m9i1NRWZnmKdMzY+78zDru+IwYPbboecnec7MmN4/ORRecnYsuOHvfuVn/9NlLc+e9Dxc9DwCAQUjAAoCC9PX2Zu3Kh7N25cO5+arLM3rchEyfOz8z5y1I85TpSUVF0ROT3zo3q6OzK7fdtcy5WQAAHFUCFgCUxJaN67Nl4/rceeO1GTJsxJ7bDI9dkMkzZqequhz/ya6rrdl3btaXP/b6/PqBVfn6ZTfks9+8Mp2d3f+fvTuNjrs+0Hz/VKm075K1lFQlVakklTbb8gI2q0matMM4CwRC6G7S0+HOpGe6OWeae8/pvLg5Z+ZO33unk04vk/TkppN0Z4Gms5CwmIBZE2OMMcYgjG2MF8BIqr1Ku1Sq5V/3hYTwwuJF9r+q9P2cw8k5OYfK4xexy49+v+dndjwAAADkqez4NgwAAE4zPTmu1/ft1uv7dquwqFjtXT3q6BmQy9uvktIys+NJkgptBVrf79b6frf+7v/8Y70zEtbDT+/T3/3zoxr2R82OBwAAgDxCgQUAQJZLJuZ1/NBrOn7otdN2szp6BlTb0GR2PGlxN8vtbNRffGWb/uIr2zQ5Pafd+4/oH3+6Q4/97lWz4wEAACDHUWABAJBDztzNqq6tl7tnQF0Dg2p2umTJkt2sqopS3bRlnW7ask7JVFqHj43o/kd26ds/3qF4ImF2PAAAAOQYCiwAAHLYxFhUQ3t2amjPTpWWlcvV3SeXt1+u7l4VFhWbHU9avGq4trdda3vb9dd/+UcaDcT02M5X9d+//YBGgzGz4wEAACAHUGABAJAn5mZn9MbQPr0xtE+2wkI5Pd1LVw3LKqrMjictXjV02Ov11Ttu1FfvuHHpquE//OgxPbnrNbPjAQAAIEtRYAEAkIdSyaTePnJIbx85pN9uf0AtbW65ewbU0btaNXWrzI635NSrhnPxhPYffEv/8stnde9DzymVMsyOBwAAgCxBgQUAQJ7LGIZG3zmh0XdO6PkdDy/tZrm9/Wp1d8pqtZodUZJUWlKkazf26NqNPfrhX/9nvTMc0sNPv6y/+cEj8ofGzI4HAAAAE1FgAQCwwuTCbpbVYlFHW5PuuWub7rlrm2Lj09q597D+x/ce0r4Dx82OBwAAgMuMAgsAgBXszN0se5tbHd4BdQ4MqrwyO3azJKmupkK3bL1St2y9UvOJpF49/I7uffA5fe/+p2QYXDUEAADIdxRYAABAWtzNGj5xVMMnjuq5xx9Ug90hd0+/uvoHVdfYbHa8JcVFhdo82KXNg136zn+9S++MLFw1/MY/PaxgZNzseAAAALgEKLAAAMBZMpmMQr5hhXzD2vvsjqzdzbJaP/iq4f/93V/plYNvmx0PAAAAy4QCCwAAfKzTdrPKK+T29svdM6A2j1eFRUVmx1ty6lXD6dm49rxyVN//2dN64PEXzY4GAACAi0CBBQAAzsvczLQOv7JXh1/ZqwJboVraF3azOvrWqLK6xux4SyrKSvSpa9foU9euUSqd1rF3AvrV4y/qb36wXZPTs2bHAwAAwHmgwAIAABcsnXp/N2vnY79WfWOzXN5+dfQMyO50SRaL2RElSbaCAvV6WvX1u2/V1+++VcHIhJ56/oD+9p+3a+jwO2bHAwAAwMegwAIAAMsmGgooGgpo/65nVFpeIVdXr1zefrm6e1VYVGx2vCVNq6p1583X6c6br9Ps3Lz2HTihH/78Gd338C6zowEAAOADUGABAIBLYm5mWm8M7dMbQ/tkKyxSm6d7cQi+T2UVVWbHW1JWWqwtm/q0ZVOf/uWbf6ZDR4f1b9uf13fve1LTs3Gz4wEAAIACCwAAXA6pZEJvHTmot44clKSsvWpYaCvQYJ9Lg30ufeNrdy5dNfy7f3lUrx7iVUMAAACzUGABAIDL7tSrhmUVlWrv7FHnwKDaPF4V2LLn68mZVw0PvPmu7n3wOX3v/qdkGIbZ8QAAAFaM7PmGCAAAVqTZ6anTrho6PV1ye/vl9g6ovDK7rhpuHuzS5sEufee/3qV3RkJ6+OmX9Tc/eET+0JjZ8QAAAPIaBRYAAMgaqWRCbx85pLePHJLF8ks12B1y9/TL7e1Xo92RNVcNrVaLOtqadM9d23TPXdsUG5/Wzr2H9c0fPKIXXz1qdjwAAIC8Q4EFAACyUiaTUcg3rJBvWHuf3aGqmjq1dfbI3dOfdVcN62oqdMvWK3XL1iuVSKb0+pvv6he/eUHf/vEOxRMJs+MBAADkvOz55gcAAPARJsdjOvjyCzr48gunXTXs6BnIqlcNiwpt2jDQoQ0DHfrrv/wjjQZiemznq/p/v/ugTo6GzY4HAACQkyiwAABAzjn1quFvtz+ghubW968atjjNjrfEYrHIYa/XV++4UV+940ZNTs9p9/4j+v/ue1Lbn91vdjwAAICcQYEFAAByWsYwTr9qWFuvNo934aphZ48KCgrMjrikqqJUN21Zp5u2rFMyldbxkwH96vEX9Y1/eljTs3Gz4wEAAGQtCiwAAJBXJseiS1cNi0vL1ObpXnzVsF/FpWVmx1tSaCtQr6dVX7/7Vn397lsVjEzoqecP6G9+8LAOHHnX7HgAAABZhQILAADkrfm5WR07OKRjB4dksVpld7oWyqyeAdU1NJkd7zRNq6p1583X6c6br9Ps3Lz2HTihH/78Gd2/fbcMwzA7HgAAgKkosAAAwIqQMQz5Tr4l38m3tPvJ7apraJK7Z0Bub7/sTpcsVqvZEZeUlRZry6Y+bdnUpx/9zZ/pyPFR/fw3L+gf792h8clZs+MBAABcdhRYAABgRYqFg4qFg9q/6xmVlJbJmaVXDW0FBRrwtmnA26a/+t/vUGx8Wjv3Htb/+N5D2nfguNnxAAAALgsKLAAAsOLFz7hqmK2vGkpSXU2Fbtl6pW7ZeqXmE0m9evgd3fvgc/r+z55SKsVVQwAAkJ8osAAAAE7xka8aerwqsGXP16fiokJtHuzS5sEufee/3aV3hkN6+OmX9bc/3K7RYMzseAAAAMsme76BAQAAZKFTXzUsKi5WW2eP3N5+ubr7VFpeYXa8JVaLRR1tTbrnrm26565tio5NaedLh/Xd+57UMy+8bnY8AACAi0KBBQAAcI4S8/M6fug1HT/0miwWixrsDjk93eroGZDd6ZIsFrMjLqmvrdQXtm7SF7ZuUjKV1vGTAf3q8Rf1rR9u18QUQ/AAACC3UGABAABcgEwms3TVcP+uZ1RaXiFXV69c3n61d/WqqLjY7IhLCm0F6vW06ut336qv333r0hD8N3/wiF589ajZ8QAAAD4WBRYAAMAymJuZ1htD+/TG0D4V2ArV0u5Wh3dAHX2rVVlda3a805w6BJ9MpXX42Ijuf2SXvnvfk5qejZsdDwAA4CwUWAAAAMssnUpq+MRRDZ84qp2P/Vr1jc1yeRdG4FvdnbJarWZHXFJoK9Da3nat7W3XN752p4KRCT31/AH9w49+o/0H3zI7HgAAgESBBQAAcOlFQwFFQwHt3/WMSsrK5ezoktvbr46e1SoqKTE73mmaVlXrzpuv0503X6f5RFKvHn5HDz6xV9/+8Q7FEwmz4wEAgBWKAgsAAOAyis/O6NjBIR07OCSL1Sq70yW3t1/ungHVNTSZHe80xUWF2jzYpc2DXfrrv/wjjQZiemr36/rGPz2kN9/ymR0PAACsIBRYAAAAJskYhnwn35Lv5Fva/eR2VdfWy90zILe3Xy0ujwoKCsyOuMRischhr9dXbrtBX7ntBs3OzWvfgRP64c+f0f3bd8swDLMjAgCAPEaBBQAAkCUmxqIa2rNTQ3t2qrCoSI6lq4YDKquoMjveacpKi7VlU5+2bOrTT751t94ZCenhp1/W3//Loxr2R82OBwAA8gwFFgAAQBZKJhJ6+8ghvX3kkH77yC/VYHfI3dMvt7dfjXaHZLGYHXGJ1WpRR1uT7rlrm+65a5smp+e0e/8R3f/w87rv4V1mxwMAAHmAAgsAACDLZTIZhXzDCvmGtffZHaqsqVN7Z4/cPf1q83SrwFZodsTTVFWU6qYt63TTlnX60Tf/TMdOBrRj55C++f2HFQiPmx0PAADkIAosAACAHDM1HtPBl1/QwZdfUGFRkdo8Xrm8/XJ196m8MruuGtpsBer1tKrX06p77tqmUHRCz+45pP917w49//IRs+MBAIAcQYEFAACQw5KJhE688bpOvPG6JKm+sVkub7/aPF61ujyyZtEQvCQ11lfrjs9crTs+c7WSqbTefMunn//mBf3PHz2mqZk5s+MBAIAsRYEFAACQR6KhgKKhgPbvekYlpWVyerrl9HTL7R3IutNZhbYCDXQ7NdD9Jf3VPV9SJDapZ/cc1N/+8FG9dOC42fEAAEAWocACAADIU/G5WR07OKRjB4dksT6gptY2ubv71N7dm3VD8JK0qq5Kt2+7Wrdvu1qz8Xm9euht/fTB5/TjX/1OiUTK7HgAAMBEFFgAAAArQMYwFBh+R4Hhd7TnmcdUWl4hh7tTbm+/3D0DKi4pNTviacpKinXNhh5ds6FH3/ur/6hAeFzPvHBQ/+veHXpx6JjZ8QAAwGVGgQUAALACzc1Mn3I6y6qG5la5e/rl9vZn3eksi8Uie2Ot7rz5Ot1583WnbWd9+8ePa3J61uyIAADgEqPAAgAAWOEyhqGQb1gh37D2PrtDZRWVau/skcvbr/auHhUVl5gd8TRnbmfFxqe197Vj+u59T+rRZ/ebHQ8AAFwCFFgAAAA4zez0lN4Y2qc3hvapwFaolna32jxeub39qmtsNjveWepqKnTTlnW6acs6JVNpHT8Z0I6dQ/rWD7fLF4yZHQ8AACwDCiwAAAB8qHQqqeETRzV84qh2P7ld1bX1cnq8cvf0q83jVYEtu75OFtoK1OtpVa+nVffctU3jk7Pa8+qbuv/h53X/9t0yDMPsiAAA4AJk1zcOAAAAZLWJsagmXn5BB19+QbbCItnbXOrwDqijb7Uqq2vNjneWmqqypdNZP/nW3Rr2R/Tosy6GbJkAACAASURBVK/oWz/crndGQmbHAwAA54gCCwAAABcklUwsnc7a+divVV1bL3fPgNzefrW4PCooKDA74mmsVovaWxv051/eqj//8lbNzs3rwJvv6t4Hn9P3f/aUUilOZwEAkK0osAAAALAsJsaiGtqzU0N7dqqwqEiOji65vf1ydferoqra7HhnKSst1ubBLm0e7NJ3/ttd8gVi+t3ew/r7Hz2qVw6+bXY8AABwCgosAAAALLtkIqG3jxzS20cOSZLqG5vl8i7sZrW6O2W1Ws2OeBqrxSKHvV533nyd7rz5Os0nknr18Dt68Im9+u59T2p6Nm52RAAAVjQKLAAAAFxy0VBA0VBA+3c9o9Ky8vdPZ3n7VVJaZna8sxQXFS6dzvrG1+5UJDapZ/cc1D/8+DHteeWo2fEAAFhxKLAAAABwWc3NzujYwSEdOzgki9WqhuZWuXv65fb2q9HukCwWsyOeZVVdlW7fdrVu33a1kqm0jp8M6JGnX9a3fvCIImNTZscDACDvUWABAADANBnDUMg3rJBvWHuf3aGKqmq1d/WqvatXTk+3iktKzY54lkJbgXo9rer1tOprf/p5haOT2rnvsL5//9N6avcBs+MBAJCXKLAAAACQNaYnJ3Ro/4s6tP/FpdNZTk+3OnoG1Ox0yZKFp7Ma6qt026c367ZPb1YqldaxkwHt2Dmkv/vn7RoJxMyOBwBAXqDAAgAAQFY69XTWqdtZTk+33N5+lVdm38uGtlNOZ91z1zZNTc/pxaFj+udfPKtfPLZHmUzG7IgAAOQkCiwAAADkhFO3s3TGy4YtLo8KCgrMjniWyopSferaNfrUtWt0/z/8F73rj+jZFw7qOz99XEOH3zE7HgBghVtVW6n2lgazY5wTizq+eEl/DJQ58YuL/ow3X9uvJx64d1nyAAAAIP8UFhWp2elSh3dAHb0DqqypMzvSx0okUzpyYlSPPPOyvvOTxxWKTpodCQCQx9b2tuuzn9ygazf2qLfToeaGGhUVLt+5Jovn9mX7rA/8fAosAAAA5Jvq2no5PV65e/rV5ulWga3Q7EgfKzY+rb2vHdP9Dz+vf3t0t9Jpw+xIAIAc5e1o0edvvEKf2NyvAa9TzatqZLNd2pPKFFgUWAAAALgItsJC2dvcavN45fR0q7HFaXakj2UYGfmCMf1u72H9408f197XjpsdCQCQpbrd9oWy6qp+re5uU3PDpS+rPggFFgUWAAAAllFVbf1SmdXe2aOikhKzI32sRDKlN9/y6dFn9+t//uQxBcMTZkcCAJhgVW2lvvSZa3TTlkGt63OpaVWNCgqsZseSKLAWUGABAADgUrBarVrV3Cp3T7/c3n412h2SxWJ2rI81NjGjlw4c178+tEv3b3+e64YAkIesVqs+ff1a3fL7V+qq9d3qcDaptKTI7FgfigKLAgsAAACXSXlltdq7etTe1SOnx6uS0jKzI30sw8ho2B/R07tf1/fuf0ovv37C7EgAgAvgam3UF//dJm29flBretq1qrZSlhz4ocp7KLAosAAAAGACi9WqhuZWOT3davN41erulNWaHdc0PkoyldbRt/167Lev6Ns/eUwjgZjZkQAAZygtLtJnb9yoz3xinTav61Z7a8OyvghoBgosCiwAAABkgZKycjk7uuT0dMvV3aeKqhqzI52T6dm4hg6/o18+tkc/+PkzmosnzI4EACvOprWd+tJnrtH1V/aqy2VXVUWp2ZGWHQUWBRYAAACyUHVtvdw9A3J7+9Xi8qig4PK/+HS+MhkpHJvUC6+8qR8/8Fs98sx+ZTKX9K8DALDiFBXZ9NlPbtBtN23W5sEuOeyrZMuSofVLiQKLAgsAAABZrrCoSM1Olzq8A3L3Dqiqps7sSOcknTZ00hfWM7sP6rv3PaGhN94xOxIA5JzG+ird8dlr9ZlPrNdgnyvntquWCwUWBRYAAAByTG1D08IYvKdHrW6PbIXZ+2rUqeLzSR0+PqLtz7ys793/tALhMbMjAUDWGexz6c6br9fvXTWgLrdd5aXFZkfKChRYFFgAAADIYVarVauaW+Xu6Zfb268GuyNnfjI/OzevA2++qwef2Kvv3f+UJqfnzI4EAJeVxWLR71+7Vnd89mpds8GbF2PrlwoFFgUWAAAA8khpeYWcnm61d/bI6fGqoqra7EjnJCMpEp3UnleP6r6Hd+nXT+xVOm2YHQsAllVNVZn+6PPX63O/t0GDfS411FXlzA8dzkUyMa/xaHjhn1hEE7GIetZeIYe786I/+1IXWNSGAAAAwGU0NzOtowde0dEDr0iLY/BOj3eh1OrqUVFxidkRP5BFUkN9lT5340Z97saNymQyCkUntXv/Ef3k1zu1nUF4ADmooa5KX/x3V+kzn1yvTWu7VFdTYXakZZNKJjQRi2osGtJ4JKyxaEhT42Nn/V5tGGnTMp4PCiwAAADARBNjUU28/IIOvvxCTl03tFgsalpVrS9s3aQvbN2ktGFoxB/Vb188pO/e96T2HThudkQAOIvb2ai7bvuEtl4/qN7OVlWUZecPDc5XMpnQeCSksUhY49GF/5yeHDc71rKiwAIAAACyhGEYCvmGFfINa++zO1RaVi5HR9fi6axeVVbXmh3xQxVYrWpvbdCf3HqD/uTWG5RMpXX8ZEA7dg7pu/c+oePvBsyOCGAF6ut06A8+e41uvHaN1njbVJYHg+uZTEZTE2NLp6qiQb/Go+G8PwVLgQUAAABkqbnZGR07OKRjB4ekHLpuKEmFtgL1elrV62nVPXdt03wiqTdOjOqJ517TP/50h0YCUbMjAshDg30u/fEtW/TJqwbU5WrOi8IqPjersUho4YRVNKxo0KfE/LzZsS47CiwAAAAgR5x63bDAZpO9za02j1dtHq8aWrL3uqEkFRcVarDXpcFel772p5/XxNSsXjn4tn75+B79+IHfaW4+YXZEADloy6Z+/fEt12vLpj61t6ySzVZgdqSLkk6nNR4NKRYOKhYKKBYOanZ6yuxYWYFXCAEAAIA8UFhUrGZnu9oWT2g1tjjNjnReYuPT2vvaMd3/8PP62W92K5XihUMAZ1vX79aXb75en94yqK725pwvrOKzM4oE/YqG/IsbViGl05d3VP2KLZ9Sm8d70Z/DK4QAAAAAPlYyMa/hE0c1fOKoJKmqpk5OT/fSlcPSsnKzI36kupoK3bRlnW7ask4//du75QuO6YVXj+pfH9ql7c/ul2FQaAEr0ZYr+/THX9iycMKqtUG2AqvZkS5YKplULBxQdPFkVSwUUGI+bnasnEGBBQAAAOShyfGYDu1/UYf2vyidtZ/Vq6Li7N2FsVgsam2u0xdv2qwv3rRZhpFRMDKulw4c178+/Lx+tWMvhRaQp65a160v33K9fu+a1epwNspWkLsnrN7brooGfYoG/YqFQzKMy3u6Kp9QYAEAAAArwKn7WVarVauaW+X0dKvN41WryyNrFv8l0Wq1yN5Yq8/feIU+f+MVS4XWy6+/pV/85gXdv303hRaQo/LpSuDM1KSiQb8iQZ+iIb8mx2JmR8orbGABAAAAK1yu72cZRkajwZief/mIfrZ9tx555mWzIwH4EJsHu/S/3f5JfeKqgZy+EphOpzQWDi2UVUG/oqGAkoncfBmQDSwAAAAAOeHM/azyyiq1tHfI6emWq7tfFVXVZkf8SFarRU57vf7gs9foDz57zVKhtWvfG/rZo7u1/Zn9ZkcEVqyBbqf+45du1O9ft0ae9mYV5ugJq/n43OLpKr9iIb/GIiFOfl5mFFgAAAAATjMzNaljB4d07OCQZLGooblFzo5uOTq61OryqLAoe/ezdEqh9Yefu1Z/+LlrlU4betcf0XN7D+unDz2nZ184aHZEIG+5nY366h036qYt69TjaVFxUaHZkS7IzNSEIgGfIgGfoqGApibGzI604lFgAQAAAPhwmYzC/lGF/aN6ZfdvZbVa1eRoXyq07E6XCmzZ/deKggKr3I5GuR2N+ve33rBQaPki2r3/Tf3b9uf1+M4hZTKXdFkFyFurait11xc/oVu2blJfp0NVFaVmR7ogp+5XBUeHNTs9aXYknCG7/6QBAAAAkFUMw5D/3bflf/dtvfS7J2QrLFRji1P2NndODMLrvULL2Si3s1F33nydDCMjXzCmF155Uw/s2KsHHn+RQgv4ECVFRbrtpk36w89fq01ru1RXU2F2pPOWyWQ0NTGmaNCvkG9YYf+o5uNzZsfCx6DAAgAAAHDBUsmkfCffku/kW9q/65mzB+HtDsliMTvmR7JaLXLY63X7tqt1+7arZRiGRgIxvfjqUf38N3v04JMvUWhhxSopKtKdt1yrL227WusHOlRXnXuFlWEYGouEFq4EBn2KBn1KJhJmx8J5osACAAAAsGzOHIQvLa+Qw90pp6dbLW0dqmtsNjvix7JarWprWaW2llWLhVZG/vCY9g4d078+/LweeuolGQaFFvKTxWLR1uvW6iu33aBrr+iVvaFGliwvoc9kGIYmYhGFfCOKhvyKBEYprPIABRYAAACAS2ZuZvr9QfgzXjhs7+pTZXWN2RE/ltVqUWtTnb6wdZO+sHWTMpmMwrFJ7R06roeeekn3P/K84vNJs2MCF+zajT36D7d/Ujds7pfTvkpWa24VVulUStFQQJHAqML+EcUiIRnptNmxsMws6vjiJf3RQebELy76M958bb+eeODeZckDAAAAIHvUNzbLsTgI73B5VFxaZnak85bJSJGxSb1y6G099ORLuu+hXZqejZsdC/hQvZ0O/ekdN2rr9WvV0dakosLcOtuSTqc0HgkrsrhhFQ36lKawumBXbPmU2jzei/4ci+f2ZcnzoZ9PgQUAAAAgG1isVjU0t6jV3SmHu0utLo+KikvMjnVBJqfndOjYsHbsHNIPfv60/KFxsyNhBWusr9Kf3HqDbtm6SWu8bSorLTY70nmhsLq0cqXAyq2aFQAAAEDeyhiGQr4RhXwjenX37xYLrVa1tHcsvHLY6VVxSanZMc9JVUWprlrXravWdev/+ovbFZ9P6PjJoHbuPazv/+xpHThy0uyIyGO5/lIghRU+CAUWAAAAgKy0UGgNK+Qb1tCenWcVWu2dPSoqyY0TWiXFRRrodmqg26k///JWpdOGTo6GtfOlN/Sz7bv11O4DvHSIC2azWXXHtmv0ha2bdMUaj1qb67P98c/TUFjhXFBgAQAAAMgJH1ZoOT3damnvyKkrhwUFVnW0NamjrUlfue0GpQ1DvuCYXnrtuB54/EX98vE9SqcNs2Mii2375Hr98S1bdO3Gnpx7KdAw0oqFgwr7RhTyjygWCsowKKzw0SiwAAAAAOSkUwut/buekdVq1arFQqvN45W9zS1bYaHZMc9JgdUqp71eTnu9bv30Jt3/D/9FYxPTeuXQ2/rNb/frRw/8ThNTs2bHhInW9LTpT279hD69ZVBdLrtsBVazI52zTCaj8WhY0ZBf0aBfwZF3lUwmzI6FHMOIOwAAAIC8dGah1dLuVoEtNwqtDzI9G9fBo8N6+vkD+uEvntXJ0bDZkXAJ2Rtr9eWbr8vZ4fWZqcmlgjnkG1Zift7sSPgQjLgDAAAAgImMM05o2QoLZXe61eryqNXtUbOjPacKrYqyEm0e7NLmwS59/e5bNTM3rzff8umpXa/pJw/u1BvHR82OiIvQWF+lr95xoz534xXq73aqrKTI7EjnZXpiXCH/iML+EYX9o5qPz5kdCXmGAgsAAADAipBKJjX81lENv3VUOuOEVkt7h1rbPTkzCi9J5aXFWt/v1vp+t772n26Wsbijte/ACf36ib362W92K5ViRytbFRXZdPtNV+XsS4HxuVlFAj6FfMMKjr6r2ekpsyMhz1FgAQAAAFiRzjyhdeYrh05Pt0pKy8yOec6sVqsc9no57PW6ZeuV+unf3q3xyVkdPPqudjw3pB//6nfyBcfMjrliWa1WfWHrlbrz5ut01bpuNdRXK3dm16X5+JzC/lGFfMMK+0c0PTlhdiSsMBRYAAAAAPAhrxzWrWqUva1DTk+3HB1dKi0rNzvmObNYLKqtLtd1V/Tquit69f/8H3+g+HxCx08GtWvfG/rVjhf1zAsHzY6Z1zYNdukrt92gG69ZLbejUVZr7gyvp1JJxUKBxf9PjGg8GlYmc0kntIGPRIEFAAAAAB8gYxiKhgKKhgI6+PILkqTq2no5FwfhW91dqqyuMTvmeSkpLtJAt1MD3U795z/6fRmGoXBsSq8cekuPPvuK7ntolyanee3wQnW77fpPf/j7+uRVA+pyNefU8HrGMDQeiyjkG1HIN6xIwCfDSJsdC1jCK4QAAAAAcIGqa+sXrhy2u9Xm8aqqtt7sSBdtejauEyeDenbPQf3Tvz2lN9/ymR0pa62qrdRdX/xETr4UmMlkNDUxpmjQv7BjNfKuksmE2bFgAl4hBAAAAIA8NzEW1cRYVG8M7ZPeK7RcHjncnbK3uVVT32B2xPNWUVaitb3tWtvbrnvu2qZEIqV3RsPavf+Ifv3ES3p856tKp1fmOHxZSZH+5LZP6Is3bda6freqK3NnI02SpibGFPK9/1JgYj5udiTgnFFgAQAAAMAyWSq0Xn1JklRWUakmR5ta2jrU0t6hxtY2FRQUmB3zvBQV2dTttqvbbddXbvuEMhlpamZOh4+P6OnnD+i+h3fl9SmtLZv69R9u/6Ru2NSn1uY6WSy5M73OS4HIJxRYAAAAAHCJzE5P6e0jh/T2kUOSpMKiIjXYHbK3LVw5tLe5ZSssNDvmebFYpKqKUm0e7NLmwS59/e5bZRiGfMEx7TtwQk+/8LruffA5Tc3MmR31gqzrd+vLN1+vT28ZVLfbroJcGl5PJhQLB5eG18ciIbMjAcuGDSwAAAAAMInVatWq5taFHa02d869dPhRJqfn9PZwSHtfO6Z7H3xOz798xOxIH+i94fVPbxlUh7NRxUW5UyimUylFQ35eCsRFYQMLAAAAAPCRDMNYLB+GNbRnp3TGMHxLW4fqGpvNjnlBqipKl7a0vnrHjUsvHr7+5rv6zW9f0U8f3KnY+PRlz5Xrw+vj0fD7LwUGfTLSvBSIlYECCwAAAACyyJnD8OWV1WpZLLPs7W412B05tcP0HqvVqqZV1WpatVo3XrNaf//1f6/5RFJvDYe0a98beuy3r2r7s/tlGMs7EF9UZNPtN12lP/z8tdq0tkt1NRXL+vmX2szU5FLJGRx9V8kELwViZaLAAgAAAIAsNjM1oWMHh3Ts4JAkqaS0bOl0Vkt7hxpbHCqw5c61t1MVFxWq19OqXk/r4imtjELRCR0+NqLf7T2sXz6+R0dOjJ7XZ1qtVt366U268+brdNVgt1bVVymX6r7pyQmFfMOLLwWOaD7OS4GAKLAAAAAAILfE52ZPG4Y/dUerscWhVpdHlTV1Zse8IFarRc0NNWpuqNEnrx7Qf7/n9qWrh0dOjGrXvjf0r488f1aplcvD6/PxOYX9o0unrGamJs2OBGQlCiwAAAAAyGGn7mi9p7pulextbtmdLtnb3KpvbJYlh0qdU71/9bBaWzb16et336pkKq3J6TkZhqG66goVFOTOry2ZTCjiH1XIP6KQb0STY1GzIwE5gQILAAAAAPLMRCyiiVhERxZ3tIqKS9TsdMnetlBoNTtcKirOnfHyMxXaClSfI1tWGcPQeCzy/vB6wCfDYHgdOF8UWAAAAACQ5xLzcb17/IjePX5EkmSxWlXfaFdLm1vNbS61tLlVVVtvdsy8cdrw+si7SiYZXgcuFgUWAAAAAKwwGcNQJDCqSGBUB156XpJUXlmlZqdr4bXDNpcaWpwqKCgwO2pOOLWwCvlGlJhneB1YbhRYAAAAAADNTE3qxOEDOnH4gCSpwFaoplbn4pXDdjU7XSqvrDI7ZlY4dXg9ODqs2WmG14FLjQILAAAAAHCWdCop38m35Dv51tJ/V1ldK3ubS02LhVaj3aECW/7/tTKVSioWCiydsBqLhMyOBKw4+f87DQAAAABgWUxNjGnq9TEdff1VSVJBQYEa7A41O12Lp7Ta82JLy0inFQ0FFPKPKOwbViwSUsYwzI4FrGgUWAAAAACAC5JOpxUYOanAyEkV2Gzyrtmg/o1XqdnRLovFYna8c5bJZDQ1MaZo0M/wOpClKLAAAAAAABekvatXfeuvVEu7J+f2sRheB3ILBRYAAAAA4Jw0tjjVv2GznB6vquvqZLFYzY50zhheB3IbBRYAAAAA4ANVVteqf8NmuXv6VdfQnFOD7QyvA/kld373AQAAAABcUiWlZerfeLU8fatV39iswqJisyOds4xhaDwWUcg3opBvWJGAT4aRNjsWgGVCgQUAAAAAK5TVZlPv2ivUtXpQTa1tKi4pNTvSOctkMhqPhhcKK/+wogG/0umU2bEAXCIUWAAAAACwgjhcnerbuFkOV6cqqqqlHHotkOF1YOWiwAIAAACAPFbfZFff+k1q7+pVTX2DrFaG1wHkHgosAAAAAMgjZRWV6l13hTx9a7WqyS5bYZHZkc4Zw+sAPgwFFgAAAADkMJvNps7+QXnXblCTo10lpWVmRzpnDK8DOFcUWAAAAACQQ6wFBeoeWJeThZXO2LEKjryrZDJhdiQAOYACCwAAAACy3KnD6+VV1bLk4PB6NOhX0Des+OyM2ZEA5CAKLAAAAADIMnWNzerfsDnnh9dDvmHNTDG8DuDiUWABAAAAgMnKyivUu/7KnBxeT6dSiob8S8Pr49GwMpmM2bEA5BkKLAAAAAC4zIpKStS/frM8/WvV0NyiwqJisyOdM8MwFAsHFPKNKOwbViwclGEYZscCkOcosAAAAADgErNarepevV5dq9epscWp8soqsyOdl9OG10ffVTLB8DqAy4sCCwAAAAAugVweXo/PzigSXLgWGBh+R3MMrwMwGQUWAAAAACyD+ia7+tZvytHh9bjC/hFFQ35Fg36NRUJmRwKA01BgAQAAAMAFKKuoVO+6KxheB4DLgAILAAAAAM5BSWmZ+jdulqu7T/VNLSopLTM70jnLZDIaj4YV8o0o5BtWJOiTkU6bHQsAzhkFFgAAAAB8AKvNpu7+QXnXblCToz2nCiudNbw+rGRi3uxIAHDBKLAAAAAAYNGpw+sVVdVSLg2vz80qEvAtDK+PnNTczLTZkQBg2VBgAQAAAFixGuyt6hm8Qu1dvaqtb5Alh4bXU8mEYuHg0o4Vw+sA8hkFFgAAAIAVo7a+QQNXXiOnu0s1qxpya3g9nVI0uDC8Hg36FQ0HlTEMs2MBwGVBgQUAAAAgb5WUlat/w6acfCnwzOH1aNCnNMPrAFYoCiwAAAAAeSOfhtdDvmEl5hleBwBRYAEAAADIZRarVV39a+Vds1HNznaVlleYHem8zM1ML5RV/hGFfCOKz86YHQkAshIFFgAAAICc4nB1qnvtBrW0d6h2VYMsFobXASDfUWABAAAAyGp1DU3q33iV2rt6VVPfIGsOvRTI8DoALA8KLAAAAABZpay8Qr3rr2R4HQCwhAILAAAAgKlsNps682R4PTg6rGSC4XUAWG4UWAAAAAAuK6vVqu7V6+XpW6Om1jZVVNeYHem8xGdnFFm8FhgYOam5mWmzIwFA3qPAAgAAAHDJOVyd6tu4WQ5Xp8qrqmWxWMyOdM7m43MK+0cXrgSG/Joci5kdCQBWHAosAAAAAMuuvsmuvvWbcnJ4PZVKKhYKLL0UOB4NK5PJmB0LAFY0CiwAAAAAF62solK9667IzeF1w9B4LLI0vB4J+GQYDK8DQDahwAIAAABw3srKK9S/4Sq5ewdU32hXYVEOFVaZjCbeK6z8w4oG/EqlkmbHAgB8BAosAAAAAB8rn14KDPlGlJiPmx0JAHAeKLAAAAAAnCXXC6tTh9eDo8OanZ40OxIA4CJQYAEAAACQ1WZT92Jh1WB3qKyi0uxI5yWVTCoWfn94fSwSMjsSAGAZUWABAAAAK5DVapWru0+dA4NyuDpVUVUtWSxmxzpnZw+vj8owDLNjAQAuEQosAAAAYIVwuDrVt3GzHK5OlVdVy5JLhVUmo/FoeKmwigb9SqdTZscCAFwmFFgAAABAnnJ196lncKNa2jpyrrCSpKnxsYUrgf4Rhf2jSibmzY4EADAJBRYAAACQJxrsDvUMblR7V69q6htktVrNjnRe4nOzigR8i8Pr72p2esrsSACALEGBBQAAAOSo+qYW9a2/MmcLq1QyoVg4yPA6AOBjUWABAAAAOaKuoUn9G69Se1evqmvrVWDLra/z6XRK0aB/acMqGg4qw/A6AOAc5NafeAAAAMAKUlvfIO/gRrV19mhVk122wiKzI52Xs4fXfUqn02bHAgDkIAosAAAAIEuUVVSqd90V8vStzcnCSpJmpiYXrwQOKzg6zPA6AGBZUGABAAAAJikrr1Dv+ivl6VuruoYmFRWXmB3pvM1MTSoa9CsS9CkwclJzM9NmRwIA5CEKLAAAAOAyKSktU/ea9XJ7+9XkaFdJaZnZkc5bfHZGkcUdK14KBABcLhRYAAAAwCVis9nU2T8o79oNuVtYzc0qEvAtXQucmZo0OxIAYAWiwAIAAACWidVmU3eOF1bz8TmF/aOKhvyKBv0ai4TMjgQAAAUWAAAAcKFsNpu8azaoc2BQja1tKi0rNzvSeUvMxxX2jyrsH1HYP6rJ8ZjZkQAAOAsFFgAAAHCOrFarXN196hwYlMPVqYqqasliMTvWeUklk4qFA4tXAkc0Hg0rk8mYHQsAgI9EgQUAAAB8BIerU30bN8vh6lR5VbUsOVZYpVOppeuAkaBfkcCoDMMwOxYAAOeFAgsAAAA4Rc4XVumUxiPhpZcCI0GfjHTa7FgAAFwUCiwAAACsaO8VVnanW1U1tbJYrWZHOi8Zw9B4LKKQb0Qh37CiQZ/SFFYAgDxDgQUAAIAVxeHqVPfaDWpp71BtfUPuFVaZjMajYYV8I4qG/Ir4R5VMJsyOBQDAJUWBqrZgMgAAIABJREFUBQAAgLzWYHeoZ3Cj2rt6VVPfIGsOFlZTE2OKLl4JDI4OK5mYNzsWAACXFQUWAAAA8ord6VLfhs1yuDtVWVOXc4WVJE3Eogr7RxTyjygS8FFYAQBWPAosAAAA5LRTT1hV19arwJZ7X3FnpiYV8g0r5BtW2D+i+Xjc7EgAAGSV3PvTHQAAACva6VcCV8lqLTA70nmbmZpUNOhXJOhTYOSk5mamzY4EAEBWo8ACAABAVsv1DStJis/OKHLKhtXs9KTZkQAAyCkUWAAAAMgqbR6vvGs3qtXVocrq2px7JVCLhVXIP6Kwf1Rh/4hmpiisAAC4GBRYAAAAMJXD1anutRvU0t6Rsyes5uNzCvtHFQ35FQ36NRYJmR0JAIC8QoEFAACAyyo/Cqu4YuGAokGfQr4RCisAAC4xCiwAAABcUvlQWKWSCcXCwcWXAkc0Hg0rk8mYHQsAgBWDAgsAAADLxmq1yt0zoO7V62R3ulReVSOLxWJ2rPOWTCQUCfoUXtyxmohFKKwAADARBRYAAAAumNVmk6uzR50Dg3K4OlVeVZ2ThVUqlVQsFFA06Fck6FckMCrDMMyOBQAAFlFgAQAA4JzZbDZ19g/Ku3aDGuwOlZVXSDlYWKVTKY1Hw4oE/Qr5hhUJ+GQYabNjAQCAD0GBBQAAgA9VVl6h3vVXytXdp/qmFpWUlpkd6YJkDEPjsYhCvpGFwirok5GmsAIAIFdQYAEAAGBJbX2D+tZvkrOzR3WrGmUrKjI70gVJp9OKhQOK+EcV9o8qFg4oTWEFAEDOosACAABYweqbWtS3/ko53V2qWdUgW2FuFlZnnrCKBn0UVgAA5BEKLAAAgBWkzeNV95r1anV5VFlTK6u1wOxIFySdSikWDij83gmrSJArgQAA5DEKLAAAgDxltVrl7hlQ9+p1ana6VFFVk5MvBGqxsIqG/AoHfIr4RxQLhxhdBwBgBaHAAgAAyBPvvRDo6VujptY2lVdV53RhddorgYyuAwCwolFgAQAA5Kiyikr1rrsi518IlKRUKqlYKKBo0K9I0E9hBQAATkOBBQAAkCPqm1rUNbBWbZ09qmtoUlFxidmRLthZhVXAx5VAAADwoSiwAAAAspTD1anutRvU0t6h6tp6Fdhy96tbKplULExhBQAALkzufgsCAADIIzabTV2r16ujd7WaHW0qq6jK2f0qSZqPxxUN+hQJ+BQJ+jQeDSuTyZgdCwAA5CgKLAAAABOUlJWre/U6ub39arA7VFZeIeVwYRWfm1Uk4FM05Fc06KewAgAAy4oCCwAA4DKoqKqWd+0GefrW5vx+lSTFZ2eWXgiMhvyaHIuZHQkAAOQxCiwAAIBLoMHuUM/gRjndXapZ1SBbYZHZkS7KzNTkQlkV9CscGNXs9JTZkQAAwApCgQUAAHCRrDabXJ096hwYlN3pVmVNraxWq9mxLlgmk9HUxJiiiyeswv4RzcfjZscCAAArGAUWAADAeSqrqFRn/9r396sqKs2OdFEyhqHxWEQh34iioYUXApOJebNjAQAALKHAAgAA+BgN9lZ5+taorbMnL/arUqmkYqGAokG/IkG/okGf0um02bEAAAA+FAUWAADAKaxWqzp6V6urf1BNznZVVNXk9HVASZqPzy2UVQGfIkEfLwQCAICcQ4EFAABWNFtRkTp718jTt0ZNrW0qr6qWxWIxO9ZFee+FwGjIr2jQr7FIyOxIAAAAF4UCCwAArCh1DU3qXrM+b64Dnjq4zguBAAAgX1FgAQCAvOZwdap77Qa1tHeourZeBbbc/vrz3uD6e6erQr4RJeZ5IRAAAOS33P4GBwAAcAqbzabO/sG8ug6YSiYUCwcZXAcAACsaBRYAAMhZ5ZVV6hncKFd3n+qbWlRSWmZ2pIt25n4Vg+sAAAAUWAAAIIc02B3qGdwop7tLNasaZCssMjvSRZuZmlw8XeVTNOTX5FjM7EgAAABZhwILAABkJavNps7eNersX6um1jZVVFXLYrWaHeuiGEZaY5Hw+4VV0M9+FQAAwDmgwAIAAFmhpKxc3avXye3tV4PdobLyCinv9qv8SqdTZscCAADIORRYAADAFPVNdnUNDKqts0d1DU0qKi4xO9JFY78KAADg0qDAAgAAl57Vqo7uPnUODMrudKmyplZWa4HZqS5KJpPRRCyi6GJhFQn4NDc7Y3YsAACAvESBBQAAlp2tqEidvWvk6VujptY2lVdVy5Lr1wFTSU1EI6ecsPIpMT9vdiwAAIAVgQILAABctHy8Djg/N6tYJKTo4th6LBySYaTNjgUAALAiUWABAIDz5nB1qnvtBrW0d6i6tl4Fttz/SjEzNfn+64AhvybHYmZHAgAAwKLc/7YJAAAuqXy8DpgxDI3HIktj62H/iObjcbNjAQAA4ENQYAEAgNPk43XAVDKhWDi4eMJqobRKp1NmxwIAAMA5osACAGAFs1qtcnX3qWv1OjU72vPidUBxHRAAACDvUGABALCClJSVq3v1Ojk7uvPnOmAmo6mJMUUXT1aFA6OanZ4yOxYAAACWEQUWAAB5LC+vA6aSmohGFq4ChvyKBHxKJubNjgUAAIBLiAILAIA8ko+vA8bnZjUWCSka9Cka9CsWDskw0mbHAgAAwGWU+99qAQBYofLxOqDYrwIAAMAHoMACACBHNNhb5V27Uc6OLtXUN6qwqMjsSBctnU5rLBJUNOBXJORXLORXYp7rgAAAADgdBRYAAFkqH68DzsfnFAsHNR4JLWxYBX1Kp7kOCAAAgI+W+9+EAQDIA2XlFfKu3SiXt0+rmlpUWlYu5cF1wMnxmKKhwMILgSG/pifGzY4EAACAHESBBQCACRrsDnn6VufV64CGYWgiFlE05Fc06FfYP6L5eNzsWAAAAMgDFFgAAFxiNptNbZ096hwYlN3pVmVNraxWq9mxLhrXAQEAAHC5UGABALDMKqqq5V27Qa7uPtU3taiktMzsSMuC1wEBAABgFgosAAAu0ntj682tbapZ1SBbYe6/Dsh1QAAAAGQTCiwAAM5DSVm5ulevk7OjW02tbSqvqpYlD8bW5+dmFYuEuA4IAACArESBBQDAR8jHsXVxHRAAAAA5hgILAIBFVptNrlPG1iuqqlVgy/0/KrkOCAAAgFyX+9/KAQC4QOWVVeoZ3ChXd59qVzWprKLS7EjL4r3rgNGgT9GgX2ORENcBAQAAkNMosAAAK0Y+jq2L64AAAABYASiwAAB5yVZUpM7eNfL0rcmrsXWuAwIAAGAlosACAOSFBnurPH1r8m5s/czrgLFISAbXAQEAALDCUGABAHKOzWaTp3+tPL3vn66yWq1mx7pomUxGk+OxhaIqFFA05Nf05ITZsQAAAADTUWABALJedV29egavkLOjW/VNdhWXlJodaVmkkgnFwkFFg35FQwHFQgElkwmzYwEAAABZhwILAJB18nVsPT47o0jQr2jIr/FISLFwUIZhmB0LAAAAyHoUWAAAU5VVVKqzf63c3n412B0qLa/Ii7H1jGFofHFsfTwSVjgwqtnpKbNjAQAAADmJAgsAcFnl6+mqZCKhscjCdcBIcOGFwHQ6ZXYsAAAAIC/kRIHl6OjStj+4S8lkQol4XOl0SrPTkzLSac3NzCgxH1ciHtfMzJTSqZQmx6JmRwYASCorr1TXmnVq7+xRg92hsorKvDhdJUkzU5OLZZVP0ZBfk2MxsyMBAAAAeSsnCqzyyip5+tZc0L+byWSkTEZGxlAmk1E6lVLGMJROp5VOp2Sk00qlkjJSac3H55RKJZVKJpRMJJRKJpSYjyuVTGpmalLJRELz8VnNz80pMT+vudlpzc3OSJnMsv+aASAXNdgd6hncKKe7S1V19SoqLjE70rJIpZKaiEaW9quiQb8S83GzYwEAAAArRk4UWBfDYrFIFosKtPC8us1WuPz/I5mMMpIyGUMZIyPDMJROp5ROJZVOLRRk7xVhqWRC8blZJeJxJefjisdnNTs9rfm5WcXjc5qeGFd8ZkqJBK9QAchuJWXl8q5er7auHjW2OFRWUZU3p6vOHlsPyTDSZscCAAAAVqy8L7AuC4tFFkkWS4FklQokFWoZNl0yGRmZzGIxZiiVWjgxdurpsPl4XPG5GcVnZjQ3N6O56SnNTE9pZnJC05PjDAYDWDbNjnZ1DgzK4e5U7apGFRYVmx1pWWQMQ1OT44ou7laFAz7NTk+aHQsAAADAKSiwspnFIqvFovdasQseOl68Qmmk3zsZllIykVAyOa/E/LwSp5ZgM9Oanp7Q9Pi4Jsai7IkBK1RhUYm6Btaqo2dADS0OVVRWy2K1mh1rWSSTCY2FGVsHAAAAcgkF1kpgschqKZDVWiBb4YVdoTQMQ0Y6rXQqqWQyofn4nOZmZhSfXSi9ZmcWT31NjGtyfEzj0ZAMw1j2XwqAS6PB7pCnb7XaOntU19CUN9tVYmwdAAAAyAsUWDgnVqtVVqtVtsL/n707624sOw80/Z0ZA8mInDRYki1Llu1yya4q923//5/QF33Rq8q2lBHB4DwCZ+oLDCQjGDNJHJLPsxYXQABkHmhFZpCv9v52EdV4Els7Lz/5NX3fLwfmN9HUddTz5Wqvy/O4PDuL87PTODs9jtPjQyu+4AEVRRF//8//Gn/8l3+NX/3272K68yLSNNv0Zd0Jw9YBAOBpErC4N0mSRJJlkWZZFGUV4+nWZ33du+FrPpst530twtfp8VEcH+zH0eFeHO3txv7eboTVXvBBP/7qb+If//Xf4ze//2N8/4tfRTUab/qS7szl+Vkc7O3G3uu/xt7rnw1bBwCAJ0rAYnC+Nny1bRttXUddz+Ly4jwuljO9zk+O4uhwP4723sbh/l4cvn0dfd/f+/uATcjzPP7hv//P+MM//zl+8du/ja2dl5E+kdlVXdfGwdvd2N99FXuvX8X+m5/j4vxs05cFAAA8AAGLJyPLssiyLMrRKKbbLz762r7vo2vbaJrF1sbZxcUidp2exMnRQRwf7MXx4UEc7b+Nw/23EYIXA/XDL38d//Rv/9fiZMCffvnkVlftvXkVe29+jv03r+Ng7010rdVVAADwHAlYPEtJkkSW55HleVSj8SdnevVdF03TRFPPYz67jIvzs8XQ+pOjOHz7Jo729+Ltq7/E6fHRg70Hnp+8KOIP//zn+MO//Fv86jfL1VXZ05hd1XddnBwfxt7yVMCDvTeGrQMAAGsCFnyGJE2jKMsoyjLG06148f2PH3ztInbVUc9XpzWextnxURwf7sfh3tvF9qdXf4n5fP6g74HH5xe//m38w7/+z/jN7/8hvn9iq6vq+TwO3r5eng64GLjeNs2mLwsAABioRxGwLs5O4/hwP5IkiTwvIkmSSPN8eTLeYttYkiSRFYvnsuxRvC2eqEXsqqIoq5hsbcd3P/7i1tettjHW9TxmFxdxeXEeZ8eHcXpytJzX9Tb23/wcR/tOZnwOinIUf/rz/4g//POf46df/+ZJnQzY932cHB3E4dvdePv6r7H35merqwAAgC/yKErP2elx/O//9//5oq9J02wRuPIskiSNPM8jSdLIlsPBkzSNLMuvoliaRJpl66/L8ny5zewqiqVZGmmyem5xC1/r+jbG0XgSL+KHiN/87tbXXl/VtRhQfxJnx8dxdLAXx/tv4+3rn+Ng95VVXY/Ir377d/EPf/4f8dvf/yle/vSLKMtq05d0Z+p6Hge7r5dbAXfj7au/Rj2fbfqyAACAR+zJFpiuaxdHqTd1RETc169OSZpGll5FsTzPFxEsyxZxYhnFsmwRKhaRLI08L9bBbP265UeeF/d0tTxW767qip9+eevrVqu65vNZzFfbF0+O4+TwIA73d+Pw7W7svvqvuDhzcttDGk2m8U//+u/xt//wz/Hjr38TWzs7kSRP42TAiIizk+PlVsDF6qqTwwMnfQIAAHfqyQash9J3XTRdd+ehbBHB0sjy4loEyxaf53nky5U7izB2/bFivaonz/JI0qfzSzKftlrVNc7zGE+mH53V1bbtYij95WVcXpzF2clxnB4dxtHB2zjYfRP7u6/jcG/3Qa//qfibv/1D/Onf/lf85vd/jBff/RhFWW76ku5MU88XhxYs51btvf455rPLTV8WAADwxAlYA7VaQdbU9Td9n8UKr2vhK8sjK4rF7SqCvftcUUSeL26fygwe3pdlWWTZOKrROLZffhc//fr213Wr7YuzWVxenMXF2WmcHB7GyeF+HO7txt6bV7G3+yq6ZzqAe7q9HX/687/H3/7DP8VPv/5tTLa2I0mSTV/WnVmtrjrYexN7r3+Ow71dq6sAAIAHJ2A9cV3XRjdvo/7K2Uhpmt0IWqv7WVFEUZSL4PXOc8LX05KmaZRlFWVZxXR754Ov6/s+2raJejaL2eVFnJ0cxfHBfhy83Y2913+Jn//z/8Tl+SPfupgk8bd//Mf405//V/zqd38XL777IfLiKa2uquNoOVNt783Psf/m55hdWl0FAABsnoDFR3VdG/NZ+8VbhNI0jbwoIsuvotbifn7L4/n6fvGEBlk/N6sDEfK8iPF0K17+8FP85vfvv27xZ2oW56cncXF2EidHh7H3+q/x+j//I1791/+OZkAruabbO/HHf/m3+Pt/+u/x069/G+Pp1pNaXXV5fraOVYdvF9tGu67b9GUBAAC8R8DiXnRdF/PZLGL2ZVPB3l3xdX2FV1GUkZfl4nYZu4qijDSz2usxSdMsRuNJjMaTW4fRd10XTT2Py/PzOD9dDKA/ePsmdl/9JV7/1/+J0+Oj+7muPI/f/+m/xR/++V/jV7/929j5/ocndaBC09RxtPd2vRVw9+e/xOzyYtOXBQAA8FkELAbla1Z8LaLXYpZXWVZRVKP1Sq+irKKsRpHl+fq51GD7QUvTNMpqFGU1ip3vvo9f/e79ZVzXV3GdHO7HydFhHO3vxuv//I/463/8f5+1imjrxcv4p3/79/j9P/5LfPfjL2My3Yp4YqurDvZ2Y+/1X2Pv9c+xv/tmcTIrAADAIyRg8eitolfMZnFxdvrJ12d5vl69lRdlFOXiIy8Wq7uKslp+XkRelE9qy9hTcX0V1/e3rOJq2zbq2WVcnJ/F6fFRHO2/jXo+i5c//BTf//Sr2H7x8kmt3GuaOg7evon9N69j/83Psb/7Oi4vzjd9WQAAAHdGwOLZaZsm2qaJy/i8geLXty4uYlcVeVlGWY2iKMooq2rxmNg1GFmWRTaZxmgyje9+/EX87g9/2vQl3anT48PYf/M69nZfxf6bV3F0sBe92VUAAMATJmDBJ9T1POp6Hp+cFpQk68hVVqPIr8WtoiyjLKvIyyrKqoos868en6ep57G/+2a9smp/95WTAQEAgGfHb9FwV/o+6vks6vliNtPHrE5pvJrRtZrfVd24LatRJGZ2PSsnhwfrlVX7b17F8eF+9H2/6csCAADYKAELNmB1SuN8Nouzk+OPvnY1n+tqNdcyci1Xc1nV9XjV89nVVsDdV7H/5nXU8y87uRMAAOA58BsvDFw9n0c9n39yQP27q7pWgevdz83qGo4sz+Pljz/FeLoV3//0yzj73XGcHB3Ewds3cbD72sorAACAJQELnojPXdWVJMliJVd1tZJrvaqrqtYzvIqyErruWZpmUY3GUY3GsfPd9+8933VdtE0ds8vLuDg7jbOTozg+PIij/d3Yf/smmvl8I9cNAADw0AQseGb6vo/57DLms0+fw5im2XtzuRa3o2tzuqrI8uKBrv55SdM00mVg3Np5ET/9+jc3nu/7PtqmifnsMi7OT+P0+CiOD/biaH8/9nd/jlrgAgAAnggBC/igrmtjdnEes4vzj74uy7LFyYvLoFVWoyirUVSjcZSjUVTLUxm5W0mSRF4UkRdFTLa244df/PrG833fRVM3MZ9dxMXZaZwcH8Xx/t5ii+Lem+jadmPXDgAA8CUELOCbtW0bF+dnEecfXtOVpmkU1Wi9ims0mkQ1Hq+3K44mE4Po71iSpFGUZRRlGdPtF/Hjr25bwbXcorhawbX/NvaXM7i6rtvYtQMAAFznt0XgQXRd98nVXIv5W1ertsrlfKjV/aK0iusuLVZwLU65nG7vxI+//Jsbz3ddF009j9nlRVycnsbJ0UEcHezF/ts3cbS3u7HrBgAAnh8BCxiM1YmLZydHtz6/WsU1Go3Xq7mq8Tiq8SRGo3GUo7HB83coTdP1dtDtF9/FL37zuxvPrwLX5cV5nJ+exNnJ4hTF/Tev4uDtm41dNwAA8PQIWMCj8alVXEmSRFFVUVXjRdhareYaXd2mafbg1/1UXQ9cOy9vOUWxbaOez+Ly4iLOT0/i5Gg/Dvfexv7u6w9GSgAAgNsIWMCT0fd9zC8vY355GSdHB7e+pijKKEfL7YnVKKrxZL1FsRyNojBs/s6kWbb433c8iRff/xC/jt/feL5dBa7z8zg7OYqTo4M4ePs63r7+OeaXlxu7bgAAYHgELOBZqet51PU8zk6Ob33eNsWHk2VZZONJjMaTePnDj+893zZNzGeXcXF+FqfHh3G0vxcHu69j783PBswDAMAzI2ABXPM5w+bzvFhHrZunKi5iTJb7T+tdyPI8xvlWjKdb8f1Pv4z449VzfddFXc9jdnER56fHcXx0EGfHR3F8sB+7r/6yycsGAADugd+yAL5Q09TRnNQfWcWVLaPWeLmFbhxlObp6bDSOsIrrmyTXB8y//C5++du/u/H8bYHrcG83Xv/Xf8Ts8mJj1w0AAHwdAQvgjnVde7WK62DvvefX8eXG6q2rFV3VaBxpZtj8t/hU4LI9EQAAHhcBC+CB9Z/appgkUZbl4vTEaycprk9TrMa2KX6jj21PvDo98TzOTo7j5HA/Dt7uxt6bn+PyI1tLAQCA++M3IICh6fuYz2Yxn80i4vDWl+R5EUVVLYfML1ZwmcN1N26envhjxN/94cbzH1y99fZ1dE2zsesGAICnzG84AI9Q09TRNHVcnJ3euk3xo4PmJ9PIbFH8ap8aLt+2TdTz+XuBy3B5AAD4egIWwBP0qUHz1wPXagZXWY2iKKsYT6ZmcH2lJE0jT8vIi/KzT0883NuNN3/5T9sTAQDgIwQsgGfoawLXesj8eBxpKnB9DcPlAQDg6whYALznawPXaDSOcjSOJEke/Jqfgk9tT7xt9dbbV3+N89OTTV42AADcOwELgC/2scCVJEkUZRnFcsC8wHU3vnT11vnpSZwcHcSr//g/MZ9fbuy6AQDgLghYANyp/topircFrjRNoxyNo1p+jMaTxf3lbV4UG7nux+691VvX9F0XTVPH5cVFXJyexMnRfhzuv439N6/j+HB/Y9cMAACfS8AC4EF1XReX52dxeX526/NZXsRoNF6v2lrFrdXqrTRNH/yaH7skTaMoqyjKKrZfvIxf/OZ3N55v2zbq+Swuz8/i7OQojg8P4uDtm9h79bPVWwAADIKABcCgtE0dZ6d1nJ1++fytajSOsD3xi2VZFtl4EqPxJF7+8FP85p3nDZcHAGDTBCwAHpWPzt9azokarbYkjsfLyLWIM1nur72v8SXD5c/PTuP0+CgOdl/H7qu/bPKyAQB4QvwkD8CT0XddzC7OY3ZxHnGw997zTk+8e+8Ol3/Xh05PfPOX/4zLi/ONXDMAAI+PgAXAs/Gp0xPL0TjKsoqiqt7fnjiebOSaH7svPT3R9kQAAG4jYAHA8vTE9eqtW6RpGsWHtidOppFl2YNf81PwJdsTV6u39l7/fGuEBADg6RKwAOAzdN+wPdFw+a/zqdVbHwpcr//rP2J2ebGx6wYA4O4JWABwBz62PTFN06hWUWu5gms0Hi8eG40Nl/9KHwtcfd9HU9cxu7yIi7PT9fbE/bev42hv1/ZEAIBHxk/MAHDPuq6Li/PTuDg/vfX5D63eKssqqvE40tT2xC+VJEkUZRlFWcbWzov46de/ufF833XRtk3U87n5WwAAj4CABQAb9rHVW/Gp7YmGy3+VJE0jT8vIi/KT87dml+dxfna6Dly7r/6yyUsHAHiWBCwAGLhPbU80XP7u3dieGN8tHvyMAfPHB/txuLe7sesGAHiqBCwAeMS+Zbh8ORpHYrj8V/naAfNvf/5LnJ/dvpUUAIAPE7AA4An71OqtcjS+Wr31ziouw+W/3kcDV99H27Yxn13G5cV5nJ0cLVZu7b+NvVc/x3x+uclLBwAYJD+ZAsAz1XVdXJ6fxeX52a3P50WxiFqj61sTl5GrGkWSpg9+zU9CkkSW5zHOt2I83YrvfvxFxN9fPd33fbRNswhc52dxdnIcRwd7cbi3G3u7r6KZzzd59QAAGyFgAQC3auo6mvorh8uPxhG2J36VJEkiL4rIiyImW9vx/S9+Fb975zVt00RTz2M+m5nBBQA8CwIWAPBVPrY9cbWF7tbh8mPbE79VlueR5XlU48knZ3C9e4ri3pufo+u6jV07AMDX8NMjAHDn+i8cLl9UVZRlFdV4EuPJNFKnJ36TT56i2PfRLedwXZyfxenxYRzt78Xp8UHsvX4Vs8uLjV07AMBtBCwA4MF9bPVW2J5475J35nB9/9MvbwSuWG5TnM8uYza7jNn52dVJiq/+GuenJ5u6dADgmRKwAIDB+dTpiYXtiffueuCK73/86DbF89PjOD87jdPjI9sUAYB74Sc8AOBR6T6xPbEoykXYGo0XK7dGVx/laByp0xPvxI1tii+/e+/5rusWg+YvL+PifBG3Tg7342BvNw7fvommaTZy3QDA4yRgAQBPSl3Po67ncXp8eOvzH9qeuJjBNY40NX/rLqTXAtfWi5fx069/+95r3j1N8foqroO3r0UuAGBNwAIAnpVvmb9VjsaRmL91Z949TfE2IhcAEAIWAMBNHwtcSZJEORpHWVZRVJUB8w9A5AIAQsACAPh8fd9fzd+6xWou1GrAfFlVUZTVVeAaTx78mp8DkQsAnj4BCwDgjvSfGDD/oRMUi6pazuASuO7ZLi+jAAAgAElEQVSLyAUAj5uABQDwQD51gmKW5zdOTVyfpjgaRzUaRZYXG7nu5+JTkavv+2ibJup6HrOLi7g4O43z06M4OTqKk6P9OHz7Nubzy41cOwA8dQIWAMBAtE0T56cncX56cuvz767geneLoiHz9ytJksiLIvKiiPFkGi9/+PHW1/VdF23bRD2fx2x2GbPzs/VqrtPjg9jffROX52cPfv0A8JgJWAAAj8SnVnCtZnDdNmS+LKuoRuNIs2wj1/6cJGkaeVpGXpQxnm5FfP/locu2RQC4ScACAHgibszguk2SRFmWUY3GUVaLrYnlaLTepliORpFlfjx8KJ8Tuvq+j65ro5nXUdezmF2cx+XFeZydnsb5yVGcHB3E4f7bmF/augjA0+YnFACA56LvYz6bxXw2i4jDW1+Sptly9dbVoPmyHF09NhpH2Kb4YJIkiSzLIxvnUY3HsbXz8oOv7fs+urZdD6KfXZ7H+dlpnJ+exOX5WRwf7Mfe29fRWdUFwCMkYAEAsNZ17SdPUiyXQ+Wranx1fzmDq6xG5nBtSJIkNwfRx+2nLV6FrndWdZ2cxNnJUZweH8bR/l7MLi8e/D0AwIcIWAAAfLau6+Ly/OyDQ8iTJFkMlh/d3KJYVldbFc3h2qyboevjq7q65Zyupq5jfnkZ89lFnJ+exvnZSZwdH8Xx0UGcHOxH09QP+h4AeH4ELAAA7kzf9zGfXcZ8dhknRwe3vub6NsViOXS+Gi8iV1FWMRpPIsv9mDoEaZpGmpZRFGWMJ9OPvvbdofTNfLbewnhydBDHB/txfLAXXdc92PUD8HT4yQAAgAd1Y5viB4hcj897Q+k/omvbaJo66vk86np+4wTG0+ODOD89jcO93Qe7dgCGz9/6AAAMjsj1tKVZFmWWRVmNFg/ccgJjvDOYvmmamF1exMX5WZyfHsfZ8VFcnJ/Gwe5uXJyfPuwbAODB+RsdAIBH6XMiV54XUVTVeg5XubxfrO5XZnIN2Y15XREx3d754Gu7to22baOeL07anF2cx8X5aVxenMfFam7XyVGcHN1+AicAwyZgAQDwZDVNHU1Tx8XZh1foWMn1NKRZFmmWRVGWMdna/uTr313dVdfzaOazmM1mMb+8uLGd8fToIJqmeZD3AcDt/E0MAMCz9i0rufKyiqoaRVEuZj/xeLy7uuvT+ui6RfRqmzrqejnDa3YZlxfncXmxmON1cXYSZ8fHcXZyJHoB3CEBCwAAPuFzVnIlaRpFUURRVuvVW2VV3fo5j1ESaZpEmqaRF0VU48/7qr7vo++66Lr2xgmNq5Ves8uLuDw/i+OD/TjY341mPr/vNwLwKAlYAABwB/qui/lsMX/p7OT4g69bBRCh63lIkiSS5fbGzzmhMd6JXm3TLGZ6XZ6/F70uzk/jaH/vo3/eAJ4KAQsAAB5Q97mhK8uW2xOrKFaBq6yiKMurx4rF5zwt70avajyJ7fjuo1/T9/06eDV1HXW92N44u7yIy4tF8Dq/tr3x8iNbZgGGSMACAIAB6to2Ls7P4uL87KOvS5JkEbSuxa1yGbfKqoq8rKIsyyiqKtLUiYtPVZIkkWV5ZFkeZTX6rK9ZRK8uuvZm9Lq8vIzZxflildfZaZydHMfp8VFcnH94Cy3AfROwAADgEev7Puazy5jPLj/52izPoyyXUauqoigWYeu9x4oyIkke5PrZnEX0yiLLsijKKj5nrNdqe2N7fbXXfB71fLHaa3ZxvgivZ2dxfnoSZ6fHcfmJCAvwOQQsAAB4JtqmiYumifiMoLA6eXF1Wy63LZbl6NoML7O6npvr2xuLoozPql5Lfb84xbGp59E0TdT1/NaB9hfnp3F+ehrHB3vRdd19vh3gERGwAACA96xOXvyU1VD6LC+WkWu0jl3X41dZjSLL/frxnCVJElmeR5bn8SXZs++6aNtmseLrM8LX4d7uPb4LYFP8DQIAAHy11VD6mM3i4uzjM5LSNIu8yN87cfEqfi1j12gciS2MLCVpGnlaLgbaf8HXCV/wtAhYAADAg+i6Nuaz9pMnMMYydt3cuviBLYzmdfEBwhc8LQIWAAAwOF3XxuziPGYX5x99XZKmURTleh7XajB9UVSRF8Xio1wMps/zItLMSYx83NeEr/Vw+7aNtm2iqedRz+eLAxYuL+Niearj5dlpnJ4ex/nJccwuL+75ncDTImABAACPVt91n30KY6y3MS7D1vLExdX9m4+vHisjE734hBvD7aOMGE8+6+tW4atbner4zoqv2eV5zC5WK77O4vzsNC5OjmI+n9/7e4KhEbAAAIBn42ob4+cFr5XrpzKuhtbneX5tO+NiSP3qeVsb+RzXw9cXb3X8RPy6bbvj6clRNOIXj5SABQAA8AmfeyrjddfneL0bva4Prl9Fr7woDa/nsz14/Do6/OJ/B+AuCVgAAAD34HPneF337kmN70av1UqwVRQTvfgaDx+/DqJpmnt8RzwHAhYAAMBAfMlJjSur6HW1qmv0XvS6fnJjnheRpOm9vxeepoeOX8cHe9F13T2+Ix4LAQsAAOARW0WvmM3i4uz0s74my4trg+pvDrEvlsPrr+4Xohd34qvjV99H1/fRdW10bbvY0lvXUc9nMZ/NYn55GbPL87i8OI/L8/O4OD+Ni7PTz47APA4CFgAAwDPTNnW0TR3xFdsbr6/q+tQWxywvIhW++FZJEmmSLP4s5UWU1eiLvvxzVn41TR1t01j9NWACFgAAAJ90faXXlxC+2LRv2fYYX7n18fzkKOZOfLxTAhYAAAD35iHDl62O3IdvnfsVfR/9cgukwfdfT8ACAABgcIQvnoIkSSKSJJKIOx983zZNNG37bIbfC1gAAAA8GcIXT8ldbH9cDb9fBLA6mnoe9Xwes8vLmM8u4+UPP93T1d8tAQsAAIBn72vDV5bl6xMcF1Hr6uTGrFic9pjl7z+fJMm9vRdYSZIksiyPLMujKL80fw2LgAUAAABfqW2baNsmZpcXX/R1q/C1iFv5InitQle+CmD5tftXK8PgORKwAAAA4IGtwlfEl4WviHh/a+Nt0Wu1Cmx9f7E9Eh4rAQsAAAAekbapo23qL171FRE3tjfettLr+ryvxcqwMrJisQUNNsmfQAAAAHgmmrqOpq6/eOFXkiTvbWXM8vyW6LVc7XUtkKVZdl9vh2dEwAIAAAA+qu/7qOt51PX8i782SdNrK7xuOenx2hbHvLj5XOqUR5YELAAAAODe9F0X9XwW9fzLTniMiEjT7LOj12o22Gowfppa+fWUCFgAAADAIHVdG/NZGzH78vgVHwtg14fgf2BLpNVfwyJgAQAAAE/StwSwd+NXmqaRZtlnBbC8KCNJknt5T8+VgAUAAADwjoda/XUVxq4CWFGUEQLYDQIWAAAAwB2z/fFuCVgAAAAAA3N32x8Xt+vItbyfLQfhb7/4Loqyupf3cJcELAAAAIAn5Evi1x//5d/ix1/+zYNc17d4emvKAAAAAHhSBCwAAAAABk3AAgAAAGDQBCwAAAAABk3AAgAAAGDQBCwAAAAABk3AAgAAAGDQBCwAAAAABk3AAgAAAGDQBCwAAAAABk3AAgAAAGDQBCwAAAAABk3AAgAAAGDQBCwAAAAABk3AAgAAAGDQBCwAAAAABk3AAgAAAGDQBCwAAAAABk3AAgAAAGDQBCwAAAAABk3AAgAAAGDQBCwAAAAABk3AAgAAAGDQBCwAAAAABk3AAgAAAGDQBCwAAAAABk3AAgAAAGDQBCwAAAAABk3AAgAAAGDQBCwAAAAABk3AAgAAAGDQBCwAAAAABk3AAgAAAGDQBCwAAAAABk3AAgAAAGDQBCwAAAAABk3AAgAAAGDQBCwAAAAABk3AAgAAAGDQBCwAAAAABk3AAgAAAGDQBCwAAAAABk3AAgAAAGDQBCwAAAAABk3AAgAAAGDQBCwAAAAABk3AAgAAAGDQBCwAAAAABk3AAgAAAGDQBCwAAAAABk3AAgAAAGDQBCwAAAAABk3AAgAAAGDQBCwAAAAABk3AAgAAAGDQBCwAAAAABk3AAgAAAGDQBCwAAAAABk3AAgAAAGDQBCwAAAAABk3AAgAAAGDQBCwAAAAABk3AAgAAAGDQBCwAAAAABk3AAgAAAGDQBCwAAAAABk3AAgAAAGDQBCwAAAAABk3AAgAAAGDQBCwAAAAABk3AAgAAAGDQBCwAAAAABk3AAgAAAGDQBCwAAAAABk3AAgAAAGDQBCwAAAAABk3AAgAAAGDQBCwAAAAABk3AAgAAAGDQBCwAAAAABk3AAgAAAGDQBCwAAAAABk3AAgAAAGDQBCwAAAAABk3AAgAAAGDQBCwAAAAABk3AAgAAAGDQBCwAAAAABk3AAgAAAGDQBCwAAAAABk3AAgAAAGDQBCwAAAAABk3AAgAAAGDQBCwAAAAABk3AAgAAAGDQBCwAAAAABk3AAgAAAGDQBCwAAAAABk3AAgAAAGDQBCwAAAAABk3AAgAAAGDQBCwAAAAABk3AAgAAAGDQBCwAAAAABk3AAgAAAGDQBCwAAAAABk3AAgAAAGDQBCwAAAAABk3AAgAAAGDQBCwAAAAABk3AAgAAAGDQBCwAAAAABk3AAgAAAGDQBCwAAAAABk3AAgAAAGDQBCwAAAAABk3AAgAAAGDQBCwAAAAABk3AAgAAAGDQBCwAAAAABk3AAgAAAGDQBCwAAAAABk3AAgAAAGDQBCwAAAAABk3AAgAAAGDQBCwAAAAABk3AAgAAAGDQBCwAAAAABk3AAgAAAGDQBCwAAAAABk3AAgAAAGDQBCwAAAAABk3AAgAAAGDQBCwAAAAABk3AAgAAAGDQBCwAAAAABk3AAgAAAGDQBCwAAAAABk3AAgAAAGDQBCwAAAAABk3AAgAAAGDQBCwAAAAABi3f9AUAAAAA8O3K0TiS5f28KCPNsvVzWZZHnl9loCRNoyiKmEy3NnClX07AAgAAALhnaZpGWY2iqEZRVVXkRRVFWUSel5EVeeR5EVmeR5pmkaRJZFkeSSSRpGkkabK+HxGRJMkn/3lPjYAFAAAA8BFpmsZoPIlyNImiLKMoy8iLMoqijDzPI8vzyPIi0jSLNMsiTdNIr4WneIbB6a4JWAAAAMCzkCRJlNUoqtEoqvEkqvEkiqKKoigiL8vIsmWMyrJI0izSNIkkMT58CAQsAAAA4NFJ0zRGk2mMxpOoRpOoxqMoytFiVVRRRJZlkWb5ciVU+iy33T0lAhYAAACweUkSVTmK0XQao/E0qtEoirKKsqoiL8rI8lWUWqyMihCknhMBCwAAALg3k63tGE2mMZ5srbfvFWW1nB1VRJKmkSbmRPFxAhYAAADwRfK8iPF0KybTrSjHkxiNx4tZUuXVSinb9rhLAhYAAAAQERF5nsdk+0WMp9MYT6ZRVuMoq1HkRRF5XqznScFDE7AAAADgGRhNJjGZbsdosrUcfL7cylcUkeWLYefmSjFUAhYAAAA8YmmWx3Rrez1rqhq9s2oqy2zl49ETsAAAAGCgkiSJ0WQaWzsvlnFqEqPxJPKijDzPxSmeDQELAAAANmQy3YrJ1k6Mp9MYTbaiqkaRl2XkRRFpKk7xZbquW9/v+z76/urz6G8+HxHRd23kZRVZlj3kZX4VAQsAAADuQZ7nMd15GdPtnRgvV0+V1SiyIo8sy8WpZ6jruui77uq2v/q869rl/UV4WgSofhGdljGq6/qIvo+uXzwWEdH1/fr+1/j+p1/GZGv7Dt/l/RCwAAAA4CuMxpOYbL+I6dbWYvXUaBxFWUaWF5GlaYRA9aTciEztbfGpj65rb41Tq1u+noAFAAAAt6hG49h+8V1MtneWg9GrxXD05WB0HqfFqqZlaGq79f31bdtF2zbRtc36865ro/+GVU58OwELAACAZyfL89jafhGT7Z0YT7ZiNB4vt/cVtvc9In3XRdu2i/jUtov7q9t1kLoWqNp205fMVxKwAAAAeHLyvIjx1nZs77yI8dZ2jMaTKIoqsjyPLBeohur66qiuaW6EqHb5eX/tc9vyng8BCwAAgEdnsrUd0+0XMVnGqbIaRVEuAlWappu+PK7p+36xJa9po+3aRXhq22jb5tqKqcVjtunxIQIWAAAAg3N9/tRkshVFVUVeFOZPDciNMNU2i4/l/cXWvavP4VsJWAAAADy4yXQrpjsvY7K1HePxNMrRKPKyjDzLI7GCaqO6rl2Hp8W2vUWI6pYrpqyWYhMELAAAAO7cagXVaDqNajReb/OzgmpzVvOl3o1RbdNE0zTLFVPmSjFMAhYAAABfbDSZxtbOy5hMt2M8XaygWg1JN4Pq4fV9F01zfcXUYpXU6rFVsILHSsACAADgPWU1iq0XL2O6/SLGk8UqKkPSN6Pv+xthqmnqa1v8aqumeBYELAAAgGcoTdOY7ryM7Z0XMZ6uTvKrIi9KW/weUN/311ZK1Vdzp5bb+lbzpuC5E7AAAACeqPFkGlsvXsZkayfGk2mUo3EUZRlZlkeSJJu+vGeh67plkKrXkWq91W8ZqIBPE7AAAAAeqTTLY7q9s1hFtbVtUPoGdF0XTV1fWz3VLrf41dHUta19cEcELAAAgAFbneY32d6JyWQryvHVsHSrqO7X9VP7FiunFlGqbRen+NXzOvpeoIKHIGABAABsUJbnsf3i+9ja2YnJ1s5iWHpVRZ7lkRiWfq/6rrtlW18dTdtEW9veB0MiYAEAANyzPM9jvLUTL77/Iba2XlhF9UBW2/u6tom2baOp6/X2vtUpfsDjIGABAADcgfF0K7ZffBfT7auB6XlRRJb5tete9P1ipdT6xL765ul9TR1932/6KoE74r+kAAAAn+n6PKqt7Z2oxhMD0+/R9QHpq/lTTdNEWy+2+YVABc+GgAUAALCUpmlMd1461e+BCFTA5xKwAACAZyXL85hs7awj1WS6HWU1Mo/qHnwoUHVtE01tix/w+QQsAADgybm+1W8y2TI0/Z4IVMBDEbAAAIBHabr9IrZfvIzJ9k6Mx9MoR7b63bWubW9u7WvqG8PSBSrgoQhYAADAIJlHdf/6vo+2Xc6capplqFquqKrr6Lpu05cIECFgAQAAm5RmeUy3d96LVEVRRpKmm768J+Gjg9KbetOXB/BZBCwAAOBeFWUZ2y9/iK2dFzGZbkU1mkRRlpFmmXlUd6DruvWKqfU2v/pqq59tfsBTIGABAADf7PpKqunOyxhPp4am35Hbtvm1bRNt21pFBTwbAhYAAPBZsjyPnZffx9bOy5hsbUc1HkdRVpFlItW36rvu2va+m7dt02z68gA2TsACAADWbhucXo0mkReFSPWNzKIC+HoCFgAAPDMfOt3P4PRv926kqufzaOq5E/0AvpGABQAAT5BIdT9um0e1GJZeRz2vo+9FKoD7IGABAMAjNt3eiRff/XAjUuV5EWmWbfrSHq0PRaqmnkdd1xFO9QN4cAIWAAAMXDUax8sffoqtFy9FqjtiHhXA4yJgAQDAAFSjcWy/+C62X34fk60tkeoOfChSNfN5tK2T/QAeEwELAAAeyCpSTbZ3Ymt7J6rxRKT6Rm27CFLvzaOq6+gNTQd4MgQsAAC4Q5PpVmx/931Mt17EeDKNcjSKvCgiTUWqr9H3/Xr1VFtfX0lVR9s00ZtHBfAsCFgAAPCFytE4dpYrqSaTrSjHoyirUWSZH6+/xmpoejOfR13PzaMC4D3+hgUAgFvkZRk7L3+IrZ0XMZluRTWeRFGWItVXWs2jaur51SqqZaDq2nbTlwfAwPnbFwCAZytN05juvIztnRcx3tqOyXR7sZIqzyNJkk1f3qOz3u43nzvZD4A7JWABAPDkTbd34sV3P8R4aztG40mU1SiKoowkTTd9aY+O7X4AbIKABQDAk7A64W/75fcx2dqKsho54e8rrSJVW9dR1/Ool6f8iVQAbIqABQDAo7GKVKvh6aPJNIqyFKm+wvVI1TRN1MsVVSIVAEMkYAEAMCh5nsf2y+8XK6mWJ/wVRRV5nkeYS/VF3o1UzXJF1WpGFQA8FgIWAAAPLs3ymG7vxPbOi5juvIzxdBpFURme/hVui1SLAeqLrX8A8BQIWAAA3It3T/gbjSdRjSaRF4VI9aX6PppbIlXb1FHP59H3/aavEADulYAFAMA3qUbjePnDT7H14uX6hD/D07/O6nQ/kQoAbhKwAAD4qDRNY7r9IrZfvIzx1naMx9MoR6PI8iLSNN305T06bdNEU8+X2/zqqOvFbdvUIhUAfICABQBA5GUZOy+/j+nWTkymW1GNJ1GUZWS57X5fo22adaBq6vm1uVQiFQB8DQELAOCZqEbj2H7xXUy2d26c7mdw+tfpum69cqpZbvNr6nnUdR1912368gDgSRGwAACeiNuGpptH9W36vl+snJpfbflrmiaa+Szatt305QHAsyFgAQA8Inmex3hrZx2pJtPtKKuRVVTfoO/7aJcn/NX1fLGSqlmd+Fdv+vIAAAELAGB4bPW7e9cj1eqEv7qer1dWAQDDJmABADywPM9j68X3Md3Zicl0sdWvKKvI8zwSp/p9k6vB6dcGqDeLaBWGpwPAoyVgAQDcA6uo7s/14emrLX9tU0c9r6PvDU8HgKdIwAIA+Applsd0e8fA9HvyoRP+mrqOzgl/APDsCFgAAB8w3d6JrZ2XMZ5uxXgyjbIaR1GWkWaZVVR3oO+6RZxabfW7tvWv65zwBwBcEbAAgGdrtc1vNJ1GNRpbRXUPnPAHANwFAQsAeLLyPI/xlm1+967vo3HCHwBwjwQsAODRGk2mMd3aicnWVowmW1GNxuvT/ASqu9X3/XIe1SJQXZ32N4+2aaJ3wh8AcI8ELABgkNI0Xc6e2lqf5FdUVeRFYQXVPXl3cHqzXFFlux8AsGkCFgCwEXlexHhr+8b2vqKoIsvzyPLckPR7IlIBAI+RgAUA3Dmrpzbn+tD069v92qaOel5H33ebvkQAgC8mYAEAX8zqqc2yigoAeG4ELADghqIsY7r9MsbTaYzG0xiNx8vVU2XkWR5Jmm76Ep++G6f61dHUzTpUtU0dXWcVFQDwvAhYAPCMTKZbMZpux2Q6jWo8jaoaRVlVkeVFZFkmTj2grusWK6hWq6fW92un+gEAvEPAAoAnohqNY/vFdzGaTqMajW9u6xOnNsJWPwCAuyFgAcDA5Xke462dmEy3ohpPohqNo6yqKKtRZHkeaZqZObUhHx+YPreKCgDgjghYALBB48k0xlvbMZ5uxWg8iaoaRVGOIi/ySLM8UqumNms9i6pZb+1rrm3169p201cIAPAsCFgAcA/KsorJ9k6MxpMYTaZRVqMoq1HkRRF5XkSaWTU1FG3bRFM3621+7XIlVds00bRNhFVUAAAbJ2ABwBfI8yLGW9vvbecza2q43p1D1TbtYttfU0c9r6PvnegHADB0AhYAz16W5zEaT2O8tRWj0TjK0Tiqahx5WUZRLFZLmTM1XO1qi98ySi22+V2d6mcOFQDA4ydgAfBkVaNxTLa2YzyZRjWeRl4U69VSaZZFlmWLGVPC1GBdH5Letu1yu99iYHq3vC9QAQA8fQIWAI9GXpQxmixmSlXVOKpqFOVoFHlZRp4Xiy18qS18j8mHV08tPrrOkHQAAAQsADYoz4uoxuMoq9GNVVJFUUSWF5EXiyiVJuli+56VUo+K1VMAANwVAQuAO5HleVSj8WKo+WgRpYqyjLKoliuk8kizqyHn5kk9flZPAQDwUAQsAN4zmkzXMaqoqijLRYzK8yKyoog8yyLN8kizNJJEjHqK2rZdRKi2uVoxdS1OtW1j9RQAAA9GwAJ4QqrROPKiiDwvoiirRWxabsXLiyKKvFxsycuzyLI80jRdnK6XJkLUM9H3fXTLONW0TXTNtUDVLldOta04BQDAoAhYAA+sGo0Xw8bzIsqyiizPI8/zyIoy0jRdzH3KFnOfsiJfB6bVcPIkSddb8FYfEBHRd906SrVt+97Kqa5dPA4AAI+NgAXwjuuBqSiryLI0imKxcilJsyjKMtI0iyzNIs2zSJN0cZtmkSTJ+jZJkkjSJCJEJr5d27aLALXcvtc2bTRNvV5N1bZNdF236csEAIB78SgC1g8//Spe/t8/Rd930fd99F0fXd8ubrs2oo9omyYiIupmHhGxPtmobZrou/ZqlkffRT2fR/R9zGeXERExu7zY6PsDPk81GkeSJFFUo8Xny9uyqiIiIi+qSJKI/FpgWkSnNNIs/UBgSiMiBCY25vqWvrZdxalm+fdWHW3TmjcFAMCz9ygCVpKmkS9/yXwI618S+n4RzJbbMiJifaLSYgtGH13bRd93i9uui67vFr9odH00TR3RRzT1LCIi5vU8ouujrufRdd36xKa2a6OZzx/s/cHXKEfjSJahZxWQ0iSJolzEoyxbxqLsarZSli9v0zySNIk0yyJJFjEpieXnsYxISUSaLG6TRFTiaWjb5lqcat/5vFnHKQAA4OMeRcB6aOtfmpMk1r8+Z9nyTvEg17CKaH3fRfSLzxcf3fr+9ePJ+z6i+8gvQX23+H/4P6Tt2o8ed744Dv3DW1OaerGq7UPm848/v4p6n9K17eKf9Rm+dWVdnheR5V/3r0g5Gr/3WFGWi0BzzSr63JAkkRfl+9dTFO8FndUqo8XXxfp7JZFEmmfL+4tgFMs/2+s4lCax+hOeJEnE8nsny2sAbrdeMdU2107qu/1zAADgbghYA7UKFUmSffK1AHy7ruuuVkit5k3dEqg+9n8GAAAA90PAAuDJWq1WbZtrQaptomtXsWqxurRpmvVWcQAAYHgELAAela5tF9uel6uh2vVtc+N+17YGnwMAwBMhYAGwUavo1HVXMeq2z1fRCgAAeH4ELADuTNe10bXdzdtr99vrq6YEKQAA4DMJWAC8Z3XS3nvxqevW4enqfidGAQAA90rAAnhC+q5bxKe+W9zv+uj7bhmbFo91Xbd+/urx9sbzZkcBAABDImABPLCu6xZOLdEAAAXISURBVCLWkamPvu+j7xYDxxen5nXL+91VkFo/1q+/vu+76Nqr13ZO0QMAAJ4oAQvgHV8WmFaPXT3fd9ejUr/4XteeBwAA4Ms8ioA1u7iI46ODSNM0IiLSJI1IIpIkjSRJFh9psnguzZa3i9cmaRpJLF4b116bRBLJ6vstb4FhW60w6rrFrKVFKIro+1VwWsUigQkAAOApeRQBq22bmF2c3/s/52b0WoauJFmGr2UIeyd6rYLZ6rXJ8rWRLEPbje97La69G+CS5N7fH3yL69vTVgEp+uuPL8PQtTlMVx/djdeuvv7q82799RERXXvzcVvjAAAAnrdHEbAeyvqX5A39srwOWUlyFb+yZfxariBL10HtZvRah7OPfe/0w5FsFdM+eW0fen650u0Dz67D34esot6nfOp9vvc9v8G3rMZZB57r36+77ftdRZubX3/LY8sI9P41dje/rn//Gtbfb7VKaXl/9bXXr63vrwZ4r1Y0AQAAwCYJWANyPZh0sYwPzWavCQAAAGDTDH8CAAAAYNAELAAAAAAGTcACAAAAYNAELAAAAAAGTcACAAAAYNAELAAAAAAGTcACAAAAYNAELAAAAAAGTcACAAAAYNAELAAAAAAGTcACAAAAYNAELAAAAAAGTcACAAAAYNAELAAAAAAGTcACAAAAYNAELAAAAAAGTcACAAAAYNAELAAAAAAGTcACAAAAYNAELAAAAAAGTcACAAAAYNAELAAAAAAGTcACAAAAYNAELAAAAAAGTcACAAAAYNAELAAAAAAGTcACAAAAYNAELAAAAAAGTcACAAAAYNAELAAAAAAGTcACAAAAYNAELAAAAAAGTcACAAAAYNAELAAAAAAGTcACAAAAYNAELAAAAAAGTcACAAAAYNAELAAAAAAGTcACAAAAYNAELAAAAAAGTcACAAAAYNAELAAAAAAGTcACAAAAYNAELP7/9u3gBGEoiqJgxI9JwJ0gru3J/kvRCoTs/lFmKrjrw3sAAAAAaQIWAAAAAGkCFgAAAABpAhYAAAAAaQIWAAAAAGkCFgAAAABpAhYAAAAAaQIWAAAAAGkCFgAAAABpAhYAAAAAaQIWAAAAAGkCFgAAAABpAhYAAAAAaQIWAAAAAGkCFgAAAABpAhYAAAAAaQIWAAAAAGkCFgAAAABpAhYAAAAAaQIWAAAAAGkCFgAAAABpAhYAAAAAaQIWAAAAAGkCFgAAAABpAhYAAAAAaQIWAAAAAGkCFgAAAABpAhYAAAAAaQIWAAAAAGkCFgAAAABpAhYAAAAAaQIWAAAAAGkCFgAAAABpAhYAAAAAaQIWAAAAAGkCFgAAAABpAhYAAAAAaQIWAAAAAGkCFgAAAABpAhYAAAAAaQIWAAAAAGkCFgAAAABpAhYAAAAAaQIWAAAAAGkCFgAAAABpAhYAAAAAaQIWAAAAAGkCFgAAAABpAhYAAAAAaQIWAAAAAGkCFgAAAABpAhYAAAAAaQIWAAAAAGkCFgAAAABpAhYAAAAAaQIWAAAAAGkCFgAAAABpAhYAAAAAaWP2gCPWbV9u98fsGQAAAAB/5bJusycc8hMB6zzGso/r7BkAAAAATOCFEAAAAIA0AQsAAACANAELAAAAgDQBCwAAAIA0AQsAAACANAELAAAAgDQBCwAAAIA0AQsAAACANAELAAAAgDQBCwAAAIA0AQsAAACANAELAAAAgDQBCwAAAIA0AQsAAACANAELAAAAgDQBCwAAAIC00/J8vWePAAAAAIBvXGABAAAAkCZgAQAAAJAmYAEAAACQJmABAAAAkCZgAQAAAJAmYAEAAACQJmABAAAAkCZgAQAAAJAmYAEAAACQJmABAAAAkCZgAQAAAJAmYAEAAACQJmABAAAAkCZgAQAAAJAmYAEAAACQJmABAAAAkCZgAQAAAJAmYAEAAACQJmABAAAAkCZgAQAAAJAmYAEAAACQJmABAAAAkCZgAQAAAJD2AVDLjft0ZPGzAAAAAElFTkSuQmCC;points=[];" vertex="1" parent="1-M_9NGXBiTfHiVbcUes-48">
          <mxGeometry width="80" height="80" as="geometry" />
        </mxCell>
        <mxCell id="1-M_9NGXBiTfHiVbcUes-16" value="&lt;font face=&quot;Montserrat&quot;&gt;SandBlocks&lt;/font&gt;" style="rounded=0;whiteSpace=wrap;html=1;points=[];fillColor=#003366;strokeColor=#FFFFFF;fontColor=#ffffff;" vertex="1" parent="1-M_9NGXBiTfHiVbcUes-48">
          <mxGeometry x="80.5" width="360" height="20" as="geometry" />
        </mxCell>
        <mxCell id="1-M_9NGXBiTfHiVbcUes-33" value="&lt;span style=&quot;font-family: Montserrat; font-size: 8px;&quot;&gt;CMULT microarchitecture&lt;/span&gt;" style="rounded=0;whiteSpace=wrap;html=1;points=[];fillColor=#E6E6E6;align=left;strokeColor=#FFFFFF;" vertex="1" parent="1-M_9NGXBiTfHiVbcUes-48">
          <mxGeometry x="80.5" y="20" width="300" height="20" as="geometry" />
        </mxCell>
        <UserObject label="&lt;div style=&quot;text-align: center;&quot;&gt;&lt;font face=&quot;Montserrat&quot;&gt;&lt;span style=&quot;font-size: 5px;&quot;&gt;Draw&lt;/span&gt;&lt;/font&gt;&lt;/div&gt;" id="1-M_9NGXBiTfHiVbcUes-34">
          <mxCell style="text;whiteSpace=wrap;html=1;verticalAlign=middle;points=[];" vertex="1" parent="1-M_9NGXBiTfHiVbcUes-48">
            <mxGeometry x="81.5" y="22" width="30" as="geometry" />
          </mxCell>
        </UserObject>
        <mxCell id="1-M_9NGXBiTfHiVbcUes-36" value="&lt;font style=&quot;font-size: 8px;&quot; face=&quot;Montserrat&quot;&gt;Thiago M. de Oliveira&lt;i&gt; &amp;lt;thiagomoraisee@gmail.com&amp;gt;&lt;/i&gt;&lt;/font&gt;" style="rounded=0;whiteSpace=wrap;html=1;points=[];fillColor=#E6E6E6;verticalAlign=bottom;align=left;strokeColor=#FFFFFF;" vertex="1" parent="1-M_9NGXBiTfHiVbcUes-48">
          <mxGeometry x="80.5" y="40" width="300" height="20" as="geometry" />
        </mxCell>
        <UserObject label="&lt;div style=&quot;text-align: center;&quot;&gt;&lt;font style=&quot;font-size: 5px;&quot; face=&quot;Montserrat&quot;&gt;Designer&lt;/font&gt;&lt;/div&gt;" id="1-M_9NGXBiTfHiVbcUes-37">
          <mxCell style="text;whiteSpace=wrap;html=1;verticalAlign=middle;points=[];" vertex="1" parent="1-M_9NGXBiTfHiVbcUes-48">
            <mxGeometry x="81.5" y="42" width="30" as="geometry" />
          </mxCell>
        </UserObject>
        <mxCell id="1-M_9NGXBiTfHiVbcUes-38" value="&lt;span style=&quot;font-family: Montserrat; text-align: left; font-size: 14px;&quot;&gt;&lt;font style=&quot;font-size: 14px;&quot;&gt;01/01&lt;/font&gt;&lt;/span&gt;" style="rounded=0;whiteSpace=wrap;html=1;points=[];fillColor=#E6E6E6;strokeColor=#FFFFFF;fontSize=14;" vertex="1" parent="1-M_9NGXBiTfHiVbcUes-48">
          <mxGeometry x="380.5" y="20" width="60" height="60" as="geometry" />
        </mxCell>
        <UserObject label="&lt;div style=&quot;text-align: center;&quot;&gt;&lt;font style=&quot;font-size: 5px;&quot; face=&quot;Montserrat&quot;&gt;Page&lt;/font&gt;&lt;/div&gt;" id="1-M_9NGXBiTfHiVbcUes-39">
          <mxCell style="text;whiteSpace=wrap;html=1;verticalAlign=middle;points=[];" vertex="1" parent="1-M_9NGXBiTfHiVbcUes-48">
            <mxGeometry x="382.5" y="22" width="26" as="geometry" />
          </mxCell>
        </UserObject>
        <mxCell id="1-M_9NGXBiTfHiVbcUes-42" value="&lt;div style=&quot;text-align: left;&quot;&gt;&lt;span style=&quot;background-color: initial; font-size: 8px;&quot;&gt;&lt;font face=&quot;Montserrat&quot;&gt;2024/09/29&lt;/font&gt;&lt;/span&gt;&lt;/div&gt;" style="rounded=0;whiteSpace=wrap;html=1;points=[];fillColor=#E6E6E6;strokeColor=#FFFFFF;" vertex="1" parent="1-M_9NGXBiTfHiVbcUes-48">
          <mxGeometry x="80.5" y="60" width="80" height="20" as="geometry" />
        </mxCell>
        <mxCell id="1-M_9NGXBiTfHiVbcUes-43" value="&lt;div style=&quot;text-align: left;&quot;&gt;&lt;font face=&quot;Montserrat&quot;&gt;&lt;span style=&quot;font-size: 8px;&quot;&gt;1.0.1&lt;/span&gt;&lt;/font&gt;&lt;/div&gt;" style="rounded=0;whiteSpace=wrap;html=1;points=[];fillColor=#E6E6E6;strokeColor=#FFFFFF;" vertex="1" parent="1-M_9NGXBiTfHiVbcUes-48">
          <mxGeometry x="160.5" y="60" width="70" height="20" as="geometry" />
        </mxCell>
        <UserObject label="&lt;div style=&quot;text-align: center;&quot;&gt;&lt;font style=&quot;font-size: 5px;&quot; face=&quot;Montserrat&quot;&gt;Date&lt;/font&gt;&lt;/div&gt;" id="1-M_9NGXBiTfHiVbcUes-44">
          <mxCell style="text;whiteSpace=wrap;html=1;verticalAlign=middle;points=[];" vertex="1" parent="1-M_9NGXBiTfHiVbcUes-48">
            <mxGeometry x="81.5" y="62" width="30" as="geometry" />
          </mxCell>
        </UserObject>
        <UserObject label="&lt;div style=&quot;text-align: center;&quot;&gt;&lt;font style=&quot;font-size: 5px;&quot; face=&quot;Montserrat&quot;&gt;Version&lt;/font&gt;&lt;/div&gt;" id="1-M_9NGXBiTfHiVbcUes-45">
          <mxCell style="text;whiteSpace=wrap;html=1;verticalAlign=middle;points=[];" vertex="1" parent="1-M_9NGXBiTfHiVbcUes-48">
            <mxGeometry x="161.5" y="62" width="30" as="geometry" />
          </mxCell>
        </UserObject>
        <mxCell id="1-M_9NGXBiTfHiVbcUes-46" value="&lt;font face=&quot;Montserrat&quot;&gt;&lt;span style=&quot;font-size: 8px;&quot;&gt;-&lt;/span&gt;&lt;/font&gt;" style="rounded=0;whiteSpace=wrap;html=1;points=[];fillColor=#E6E6E6;verticalAlign=bottom;align=left;strokeColor=#FFFFFF;" vertex="1" parent="1-M_9NGXBiTfHiVbcUes-48">
          <mxGeometry x="230.5" y="60" width="150" height="20" as="geometry" />
        </mxCell>
        <UserObject label="&lt;div style=&quot;text-align: center;&quot;&gt;&lt;font style=&quot;font-size: 5px;&quot; face=&quot;Montserrat&quot;&gt;Company&lt;/font&gt;&lt;/div&gt;" id="1-M_9NGXBiTfHiVbcUes-47">
          <mxCell style="text;whiteSpace=wrap;html=1;verticalAlign=middle;points=[];" vertex="1" parent="1-M_9NGXBiTfHiVbcUes-48">
            <mxGeometry x="230.5" y="62" width="30" as="geometry" />
          </mxCell>
        </UserObject>
      </root>
    </mxGraphModel>
  </diagram>
</mxfile>
